<?xml version="1.0" encoding="UTF-8" standalone="no"?>
<!DOCTYPE svg PUBLIC "-//W3C//DTD SVG 1.1//EN" "http://www.w3.org/Graphics/SVG/1.1/DTD/svg11.dtd">
<svg>
<metadata>
Created by FontForge 20090914 at Mon Nov  7 08:33:06 2011
 By www-data
Copyright 2004 Monotype Imaging, Inc. All rights reserved.
</metadata>
<defs>
<font id="NeoSansWeleda-Rg" horiz-adv-x="528">
  <font-face font-family="Neo Sans Weleda Regular" font-weight="400" font-stretch="normal" units-per-em="1000" panose-1="2 11 5 4 3 5 4 4 2 4" ascent="775" descent="-225" x-height="536.999" cap-height="742" bbox="-86.5118 -215.999 1098 970.999" underline-thickness="42" underline-position="-35" unicode-range="U+000D-U+FB04"/>
<missing-glyph horiz-adv-x="509" d="M12 667h484v-667h-484v667zM255 393l138 209h-278zM80 98c0 4 1.83301 10.5 5.5 19.5s8.66699 19.333 15 31l21.5 38l25 41.5l67 106l-134 201v-437zM295 334l134 -202v404zM255 274l-139 -208h276z"/>
    <glyph glyph-name="f_f" unicode="ff" horiz-adv-x="666" d="M631 706c0 -15.333 -10.332 -23.002 -30.999 -23.002h-48c-19.333 0 -33.5 -4.66699 -42.5 -14s-13.5 -26.666 -13.5 -51.999v-80h104c8 0 14.833 -2.33301 20.5 -7s8.5 -10.667 8.5 -18v-9c0 -7.33301 -2.83301 -13.333 -8.5 -18s-12.5 -7 -20.5 -7h-104v-450 c0 -7.33301 -2.83301 -13.833 -8.5 -19.5s-12.167 -8.5 -19.5 -8.5h-7c-8 0 -14.833 2.83301 -20.5 8.5s-8.5 12.167 -8.5 19.5v450h-215v-450c0 -7.33301 -2.66699 -13.833 -8 -19.5s-12 -8.5 -20 -8.5h-6c-8.66699 0 -15.667 2.83301 -21 8.5s-8 12.167 -8 19.5v450h-85 c-8 0 -14.833 2.33301 -20.5 7s-8.5 10.667 -8.5 18v9c0 7.33301 2.83301 13.333 8.5 18s12.5 7 20.5 7h85v80c0 45.333 10.333 77.166 31 95.499s50 27.5 88 27.5c14.667 0 25.667 -0.166992 33 -0.5s13.666 -1.16602 18.999 -2.49902c11.333 -1.33301 18.666 -4 21.999 -8 s5 -9.66699 5 -17v-6c0 -8 -2.33301 -13.833 -7 -17.5s-12.667 -5.5 -24 -5.5h-48c-19.333 0 -33.5 -4.66699 -42.5 -14s-13.5 -26.666 -13.5 -51.999v-80h215v80c0 45.333 10.5 77.166 31.5 95.499s50.5 27.5 88.5 27.5c14.667 0 25.5 -0.166992 32.5 -0.5 s13.5 -1.16602 19.5 -2.49902c10.667 -1.33301 17.834 -4 21.501 -8s5.5 -9.66699 5.5 -17v-6z"/>
    <glyph glyph-name="fi" unicode="fi" horiz-adv-x="576" d="M217 28c0 -7.33301 -2.66699 -13.834 -8 -19.501s-12 -8.5 -20 -8.5h-7c-8 0 -14.833 2.83301 -20.5 8.5s-8.5 12.167 -8.5 19.5v450h-84c-8.66699 0 -15.667 2.33301 -21 7s-8 10.667 -8 18v9c0 7.33301 2.66699 13.333 8 18s12.333 7 21 7h84v80 c0 45.333 10.5 77.166 31.5 95.499s50.5 27.5 88.5 27.5c14.667 0 25.667 -0.166992 33 -0.5s13.666 -1.16602 18.999 -2.49902c10.667 -1.33301 17.834 -4 21.501 -8s5.5 -9.66699 5.5 -17v-6c0 -15.333 -10.333 -23 -31 -23h-48c-19.333 0 -33.5 -4.66699 -42.5 -14 s-13.5 -26.666 -13.5 -51.999v-80h250c7.33301 0 14 -2.83301 20 -8.5s9 -12.167 9 -19.5v-481c0 -7.33301 -3 -13.833 -9 -19.5s-12.667 -8.5 -20 -8.5h-6c-7.33301 -0 -14 2.83301 -20 8.5s-9 12.167 -9 19.5v450h-215v-450zM496 640.999c0 -8 -3 -14.667 -9 -20 s-12.667 -8 -20 -8h-6c-7.33301 0 -14 2.66699 -20 8s-9 12 -9 20v71c0 7.33301 3 13.833 9 19.5s12.667 8.5 20 8.5h6c7.33301 0 14 -2.83301 20 -8.5s9 -12.167 9 -19.5v-71z"/>
    <glyph glyph-name="fl" unicode="fl" horiz-adv-x="576" d="M217 28c0 -7.33301 -2.66797 -13.8301 -8.00098 -19.4971s-12 -8.5 -20 -8.5h-7c-8 0 -14.833 2.83301 -20.5 8.5s-8.5 12.167 -8.5 19.5v450h-84c-8.66699 0 -15.667 2.33301 -21 7s-8 10.667 -8 18v9c0 7.33301 2.66699 13.333 8 18s12.333 7 21 7h84v80 c0 24 2.83301 44 8.5 60s14.5 28.667 26.5 38s27.5 15.833 46.5 19.5s41.5 5.5 67.5 5.5c74.667 0 130.667 -1 168 -3c7.33301 0 13.5 -2.83301 18.5 -8.5s7.5 -11.834 7.5 -18.501v-682c0 -7.33301 -2.66699 -13.833 -8 -19.5s-11.666 -8.5 -18.999 -8.5h-10 c-7.33301 0 -13.666 2.83301 -18.999 8.5s-8 12.167 -8 19.5v655h-128c-17.333 0 -31.5 -0.666992 -42.5 -2s-19.833 -4.33301 -26.5 -9s-11.334 -11.334 -14.001 -20.001s-4 -20.334 -4 -35.001v-80h104c8.66699 0 15.667 -2.33301 21 -7s8 -10.667 8 -18v-9 c0 -7.33301 -2.66699 -13.333 -8 -18s-12.333 -7 -21 -7h-104v-450z"/>
    <glyph glyph-name="f_f_i" unicode="ffi" horiz-adv-x="865" d="M496 28c0 -7.33301 -2.66699 -13.835 -8 -19.502s-12 -8.5 -20 -8.5h-6c-8.66699 0 -15.667 2.83301 -21 8.5s-8 12.167 -8 19.5v450h-215v-450c0 -7.33301 -2.83301 -13.833 -8.5 -19.5s-12.167 -8.5 -19.5 -8.5h-7c-8 0 -14.833 2.83301 -20.5 8.5 s-8.5 12.167 -8.5 19.5v450h-85c-8 0 -14.833 2.33301 -20.5 7s-8.5 10.667 -8.5 18v9c0 7.33301 2.83301 13.333 8.5 18s12.5 7 20.5 7h85v80c0 45.333 10.5 77.166 31.5 95.499s50.5 27.5 88.5 27.5c14.667 0 25.5 -0.166992 32.5 -0.5s13.5 -1.16602 19.5 -2.49902 c10.667 -1.33301 17.834 -4 21.501 -8s5.5 -9.66699 5.5 -17v-6c0 -15.333 -10.333 -23 -31 -23h-48c-19.333 0 -33.5 -4.66699 -42.5 -14s-13.5 -26.666 -13.5 -51.999v-80h215v80c0 45.333 10.333 77.166 31 95.499s50 27.5 88 27.5c14.667 0 25.667 -0.166992 33 -0.5 s13.666 -1.16602 18.999 -2.49902c11.333 -1.33301 18.666 -4 21.999 -8s5 -9.66699 5 -17v-6c0 -8 -2.16699 -13.833 -6.5 -17.5s-12.166 -5.5 -23.499 -5.5h-49c-19.333 0 -33.5 -4.66699 -42.5 -14s-13.5 -26.666 -13.5 -51.999v-80h260c11.333 0 19 -2.83301 23 -8.5 s6 -12.167 6 -19.5v-481c0 -7.33301 -3 -13.833 -9 -19.5s-12.667 -8.5 -20 -8.5h-6c-7.33301 -0 -14 2.83301 -20 8.5s-9 12.167 -9 19.5v450h-225v-450zM785 640.998c0 -8 -3 -14.667 -9 -20s-12.667 -8 -20 -8h-6c-7.33301 0 -14 2.66699 -20 8s-9 12 -9 20v71 c0 7.33301 3 13.833 9 19.5s12.667 8.5 20 8.5h6c7.33301 0 14 -2.83301 20 -8.5s9 -12.167 9 -19.5v-71z"/>
    <glyph glyph-name="f_f_l" unicode="ffl" horiz-adv-x="855" d="M496 28c0 -7.33301 -2.66895 -13.8311 -8.00195 -19.498s-12 -8.5 -20 -8.5h-6c-8.66699 0 -15.667 2.83301 -21 8.5s-8 12.167 -8 19.5v450h-215v-450c0 -7.33301 -2.83301 -13.833 -8.5 -19.5s-12.167 -8.5 -19.5 -8.5h-7c-8 0 -14.833 2.83301 -20.5 8.5 s-8.5 12.167 -8.5 19.5v450h-85c-8 0 -14.833 2.33301 -20.5 7s-8.5 10.667 -8.5 18v9c0 7.33301 2.83301 13.333 8.5 18s12.5 7 20.5 7h85v80c0 45.333 10.5 77.166 31.5 95.499s50.5 27.5 88.5 27.5c14.667 0 25.5 -0.166992 32.5 -0.5s13.5 -1.16602 19.5 -2.49902 c10.667 -1.33301 17.834 -4 21.501 -8s5.5 -9.66699 5.5 -17v-6c0 -15.333 -10.333 -23 -31 -23h-48c-19.333 0 -33.5 -4.66699 -42.5 -14s-13.5 -26.666 -13.5 -51.999v-80h215v80c0 24 2.83301 44 8.5 60s14.5 28.667 26.5 38s27.333 15.833 46 19.5s41 5.5 67 5.5 c74.667 0 130.667 -1 168 -3c7.33301 0 13.5 -2.83301 18.5 -8.5s7.5 -11.834 7.5 -18.501v-682c0 -7.33301 -2.66699 -13.833 -8 -19.5s-11.666 -8.5 -18.999 -8.5h-10c-7.33301 0 -13.666 2.83301 -18.999 8.5s-8 12.167 -8 19.5v655h-128 c-16.667 0 -30.667 -0.666992 -42 -2s-20.333 -4.33301 -27 -9s-11.334 -11.334 -14.001 -20.001s-4 -20.334 -4 -35.001v-80h104c8.66699 0 15.667 -2.33301 21 -7s8 -10.667 8 -18v-9c0 -7.33301 -2.66699 -13.333 -8 -18s-12.333 -7 -21 -7h-104v-450z"/>
    <glyph glyph-name="f_b" unicode="fb" horiz-adv-x="874" d="M217 28c0 -7.33301 -2.66699 -13.8301 -8 -19.4971s-12 -8.5 -20 -8.5h-7c-8 0 -14.833 2.83301 -20.5 8.5s-8.5 12.167 -8.5 19.5v450h-84c-8.66699 0 -15.667 2.33301 -21 7s-8 10.667 -8 18v9c0 7.33301 2.66699 13.333 8 18s12.333 7 21 7h84v80 c0 24 2.83301 44 8.5 60s14.5 28.667 26.5 38s27.5 15.833 46.5 19.5s41.5 5.5 67.5 5.5c37.333 0 70 -0.5 98 -1.5s51.333 -1.5 70 -1.5c7.33301 0 13.5 -2.83301 18.5 -8.5s7.5 -11.834 7.5 -18.501v-180c18.667 3.33301 39.5 6.16602 62.5 8.49902s43.167 3.5 60.5 3.5 c133.333 0 200 -80 200 -240v-64c0 -36 -3.83301 -69 -11.5 -99s-19.5 -55.667 -35.5 -77s-36.667 -38 -62 -50s-55.666 -18 -90.999 -18c-28.667 0 -58 2 -88 6s-55.667 8.33301 -77 13c-8.66699 2 -14.5 4.83301 -17.5 8.5s-4.5 9.83398 -4.5 18.501v643h-128 c-17.333 0 -31.5 -0.666992 -42.5 -2s-19.833 -4.33301 -26.5 -9s-11.334 -11.334 -14.001 -20.001s-4 -20.334 -4 -35.001v-80h104c8.66699 0 15.667 -2.33301 21 -7s8 -10.667 8 -18v-9c0 -7.33301 -2.66699 -13.333 -8 -18s-12.333 -7 -21 -7h-104v-450zM496 62.0029 c17.333 -2.66699 36.999 -5.16797 58.999 -7.50098s43.333 -3.5 64 -3.5c50 0 85.167 16.333 105.5 49s30.5 78.667 30.5 138v64c0 60.667 -10.333 106.334 -31 137.001s-55.667 46 -105 46c-17.333 0 -37.666 -1 -60.999 -3s-44 -4.66699 -62 -8v-412z"/>
    <glyph glyph-name="f_f_b" unicode="ffb" horiz-adv-x="1153" d="M496 28c0 -7.33301 -2.66797 -13.832 -8.00098 -19.499s-12 -8.5 -20 -8.5h-6c-8.66699 0 -15.667 2.83301 -21 8.5s-8 12.167 -8 19.5v450h-215v-450c0 -7.33301 -2.83301 -13.833 -8.5 -19.5s-12.167 -8.5 -19.5 -8.5h-7c-8 0 -14.833 2.83301 -20.5 8.5 s-8.5 12.167 -8.5 19.5v450h-85c-8 0 -14.833 2.33301 -20.5 7s-8.5 10.667 -8.5 18v9c0 7.33301 2.83301 13.333 8.5 18s12.5 7 20.5 7h85v80c0 45.333 10.5 77.166 31.5 95.499s50.5 27.5 88.5 27.5c14.667 0 25.5 -0.166992 32.5 -0.5s13.5 -1.16602 19.5 -2.49902 c10.667 -1.33301 17.834 -4 21.501 -8s5.5 -9.66699 5.5 -17v-6c0 -15.333 -10.333 -23 -31 -23h-48c-19.333 0 -33.5 -4.66699 -42.5 -14s-13.5 -26.666 -13.5 -51.999v-80h215v80c0 24 2.83301 44 8.5 60s14.5 28.667 26.5 38s27.333 15.833 46 19.5s41 5.5 67 5.5 c74.667 0 130.667 -1 168 -3c7.33301 -0.666992 13.5 -3.66699 18.5 -9s7.5 -11.333 7.5 -18v-180c19.333 3.33301 40.5 6.16602 63.5 8.49902s42.833 3.5 59.5 3.5c133.333 0 200 -80 200 -240v-64c0 -36 -3.83301 -69 -11.5 -99s-19.5 -55.667 -35.5 -77 s-36.667 -38 -62 -50s-55.666 -18 -90.999 -18c-28.667 0 -58 2 -88 6s-55.667 8.33301 -77 13c-8.66699 2 -14.5 4.83301 -17.5 8.5s-4.5 9.83398 -4.5 18.501v643h-128c-16.667 0 -30.667 -0.666992 -42 -2s-20.333 -4.33301 -27 -9s-11.334 -11.334 -14.001 -20.001 s-4 -20.334 -4 -35.001v-80h104c8.66699 0 15.667 -2.33301 21 -7s8 -10.667 8 -18v-9c0 -7.33301 -2.66699 -13.333 -8 -18s-12.333 -7 -21 -7h-104v-450zM774.999 62.001c17.333 -2.66699 37 -5.16797 59 -7.50098s43.333 -3.5 64 -3.5c50.667 0 86 16.333 106 49 s30 78.667 30 138v64c0 60.667 -10.167 106.334 -30.5 137.001s-55.5 46 -105.5 46c-17.333 0 -37.5 -1 -60.5 -3s-43.833 -4.66699 -62.5 -8v-412z"/>
    <glyph glyph-name="f_h" unicode="fh" horiz-adv-x="875" d="M496 528c37.333 9.33301 76.999 14.001 118.999 14.001c35.333 0 65.333 -4.83301 90 -14.5s44.834 -23.167 60.501 -40.5s27 -37.833 34 -61.5s10.5 -49.834 10.5 -78.501v-325c0 -7.33301 -2.33301 -13.833 -7 -19.5s-11.334 -8.5 -20.001 -8.5h-10 c-8 0 -14.333 2.83301 -19 8.5s-7 12.167 -7 19.5v325c0 44.667 -10 78.834 -30 102.501s-54 35.5 -102 35.5c-18 0 -38 -1.33301 -60 -4s-41.667 -6.66699 -59 -12v-447c0 -7.33301 -2.66699 -13.833 -8 -19.5s-11.666 -8.5 -18.999 -8.5h-10 c-7.33301 0 -13.666 2.83301 -18.999 8.5s-8 12.167 -8 19.5v661h-128c-17.333 0 -31.5 -0.666992 -42.5 -2s-19.833 -4.33301 -26.5 -9s-11.334 -11.334 -14.001 -20.001s-4 -20.334 -4 -35.001v-80h104c8.66699 0 15.667 -2.33301 21 -7s8 -10.667 8 -18v-9 c0 -7.33301 -2.66699 -13.333 -8 -18s-12.333 -7 -21 -7h-104v-450c0 -7.33301 -2.66699 -13.833 -8 -19.5s-12 -8.5 -20 -8.5h-7c-8 0 -14.833 2.83301 -20.5 8.5s-8.5 12.167 -8.5 19.5v450h-84c-8.66699 0 -15.667 2.33301 -21 7s-8 10.667 -8 18v9 c0 7.33301 2.66699 13.333 8 18s12.333 7 21 7h84v80c0 24 2.83301 44 8.5 60s14.5 28.667 26.5 38s27.5 15.833 46.5 19.5s41.5 5.5 67.5 5.5c37.333 0 70 -0.166992 98 -0.5s51.333 -1.16602 70 -2.49902c11.333 -0.666992 18.5 -3.5 21.5 -8.5s4.5 -11.167 4.5 -18.5 v-182z"/>
    <glyph glyph-name="f_f_h" unicode="ffh" horiz-adv-x="1154" d="M496 28c0 -7.33301 -2.66895 -13.833 -8.00195 -19.5s-12 -8.5 -20 -8.5h-6c-8.66699 -0 -15.667 2.83301 -21 8.5s-8 12.167 -8 19.5v450h-215v-450c0 -7.33301 -2.83301 -13.833 -8.5 -19.5s-12.167 -8.5 -19.5 -8.5h-7c-8 -0 -14.833 2.83301 -20.5 8.5 s-8.5 12.167 -8.5 19.5v450h-85c-8 0 -14.833 2.33301 -20.5 7s-8.5 10.667 -8.5 18v9c0 7.33301 2.83301 13.333 8.5 18s12.5 7 20.5 7h85v80c0 45.333 10.5 77.166 31.5 95.499s50.5 27.5 88.5 27.5c14 0 24.667 -0.166992 32 -0.5s14 -1.16602 20 -2.49902 c10.667 -1.33301 17.834 -4 21.501 -8s5.5 -9.66699 5.5 -17v-6c0 -15.333 -10.333 -23 -31 -23h-48c-19.333 0 -33.5 -4.66699 -42.5 -14s-13.5 -26.666 -13.5 -51.999v-80h215v80c0 24 2.83301 44 8.5 60s14.5 28.667 26.5 38s27.333 15.833 46 19.5s41 5.5 67 5.5 c37.333 0 70 -0.166992 98 -0.5s51.333 -1.16602 70 -2.49902c11.333 -0.666992 18.5 -3.5 21.5 -8.5s4.5 -11.167 4.5 -18.5v-182c37.333 9.33301 77 14 119 14c35.333 0 65.333 -4.83301 90 -14.5s44.834 -23.167 60.501 -40.5s27 -37.833 34 -61.5 s10.5 -49.834 10.5 -78.501v-325c0 -7.33301 -2.33301 -13.833 -7 -19.5s-11.334 -8.5 -20.001 -8.5h-10c-8 0 -14.333 2.83301 -19 8.5s-7 12.167 -7 19.5v325c0 44.667 -10 78.834 -30 102.501s-54 35.5 -102 35.5c-18 0 -37.833 -1.33301 -59.5 -4 s-41.5 -6.66699 -59.5 -12v-447c0 -7.33301 -2.66699 -13.833 -8 -19.5s-11.666 -8.5 -18.999 -8.5h-10c-7.33301 0 -13.666 2.83301 -18.999 8.5s-8 12.167 -8 19.5v661h-128c-16.667 0 -30.667 -0.666992 -42 -2s-20.333 -4.33301 -27 -9s-11.334 -11.334 -14.001 -20.001 s-4 -20.334 -4 -35.001v-80h104c8.66699 0 15.667 -2.33301 21 -7s8 -10.667 8 -18v-9c0 -7.33301 -2.66699 -13.333 -8 -18s-12.333 -7 -21 -7h-104v-450z"/>
    <glyph glyph-name="f_j" unicode="fj" horiz-adv-x="585" d="M217 28c0 -7.33301 -2.66699 -13.833 -8 -19.5s-12 -8.5 -20 -8.5h-7c-8 -0 -14.667 2.83301 -20 8.5s-8 12.167 -8 19.5v450h-85c-8.66699 0 -15.667 2.33301 -21 7s-8 10.667 -8 18v9c0 7.33301 2.66699 13.333 8 18s12.333 7 21 7h85v80 c0 45.333 10.333 77.166 31 95.499s50 27.5 88 27.5c14.667 0 25.667 -0.166992 33 -0.5s13.666 -1.16602 18.999 -2.49902c10.667 -1.33301 17.834 -4 21.501 -8s5.5 -9.66699 5.5 -17v-6c0 -15.333 -10.333 -23 -31 -23h-48c-19.333 0 -33.5 -4.66699 -42.5 -14 s-13.5 -26.666 -13.5 -51.999v-80h261c9.33301 0 16.166 -2.83301 20.499 -8.5s6.5 -12.167 6.5 -19.5v-582c0 -22.667 -2.33301 -41.5 -7 -56.5s-11.667 -26.833 -21 -35.5s-20.666 -14.667 -33.999 -18s-29 -5 -47 -5c-9.33301 0 -17 0.166992 -23 0.5 s-12.667 1.16602 -20 2.49902c-10 1.33301 -16.667 4 -20 8s-5 9 -5 15v9c0 14 10.333 21 31 21h37c17.333 0 29.333 3.5 36 10.5s10 23.167 10 48.5v551h-225v-450zM505 641c0 -8 -2.83301 -14.667 -8.5 -20s-12.167 -8 -19.5 -8h-6c-8 0 -14.833 2.66699 -20.5 8 s-8.5 12 -8.5 20v71c0 7.33301 2.83301 13.833 8.5 19.5s12.5 8.5 20.5 8.5h6c7.33301 0 13.833 -2.83301 19.5 -8.5s8.5 -12.167 8.5 -19.5v-71z"/>
    <glyph glyph-name="f_f_j" unicode="ffj" horiz-adv-x="865" d="M496 28c0 -7.33301 -2.66797 -13.834 -8.00098 -19.501s-12 -8.5 -20 -8.5h-6c-8.66699 0 -15.667 2.83301 -21 8.5s-8 12.167 -8 19.5v450h-215v-450c0 -7.33301 -2.83301 -13.833 -8.5 -19.5s-12.167 -8.5 -19.5 -8.5h-7c-8 0 -14.833 2.83301 -20.5 8.5 s-8.5 12.167 -8.5 19.5v450h-85c-8 0 -14.833 2.33301 -20.5 7s-8.5 10.667 -8.5 18v9c0 7.33301 2.83301 13.333 8.5 18s12.5 7 20.5 7h85v80c0 45.333 10.5 77.166 31.5 95.499s50.5 27.5 88.5 27.5c14.667 0 25.5 -0.166992 32.5 -0.5s13.5 -1.16602 19.5 -2.49902 c10.667 -1.33301 17.834 -4 21.501 -8s5.5 -9.66699 5.5 -17v-6c0 -15.333 -10.333 -23 -31 -23h-48c-19.333 0 -33.5 -4.66699 -42.5 -14s-13.5 -26.666 -13.5 -51.999v-80h215v80c0 45.333 10.333 77.166 31 95.499s50 27.5 88 27.5c14.667 0 25.667 -0.166992 33 -0.5 s13.666 -1.16602 18.999 -2.49902c11.333 -1.33301 18.666 -4 21.999 -8s5 -9.66699 5 -17v-6c0 -8 -2.16699 -13.833 -6.5 -17.5s-12.166 -5.5 -23.499 -5.5h-49c-19.333 0 -33.5 -4.66699 -42.5 -14s-13.5 -26.666 -13.5 -51.999v-80h262 c8.66699 0 15.334 -2.83301 20.001 -8.5s7 -12.167 7 -19.5v-582c0 -22.667 -2.33301 -41.5 -7 -56.5s-11.667 -26.833 -21 -35.5s-20.833 -14.667 -34.5 -18s-29.5 -5 -47.5 -5c-9.33301 0 -17 0.166992 -23 0.5s-12.667 1.16602 -20 2.49902c-10 1.33301 -16.667 4 -20 8 s-5 9 -5 15v9c0 14 10.333 21 31 21h37c17.333 0 29.333 3.5 36 10.5s10 23.167 10 48.5v551h-225v-450zM784.999 640.999c0 -8 -3 -14.667 -9 -20s-12.667 -8 -20 -8h-6c-7.33301 0 -14 2.66699 -20 8s-9 12 -9 20v71c0 7.33301 3 13.833 9 19.5s12.667 8.5 20 8.5h6 c7.33301 0 14 -2.83301 20 -8.5s9 -12.167 9 -19.5v-71z"/>
    <glyph glyph-name="f_k" unicode="fk" horiz-adv-x="817" d="M218 28c0 -7.33301 -2.83496 -13.835 -8.50195 -19.502s-12.167 -8.5 -19.5 -8.5h-7c-8 0 -14.833 2.83301 -20.5 8.5s-8.5 12.167 -8.5 19.5v450h-85c-8 0 -14.833 2.33301 -20.5 7s-8.5 10.667 -8.5 18v9c0 7.33301 2.83301 13.333 8.5 18s12.5 7 20.5 7h85v80 c0 24 2.83301 44 8.5 60s14.5 28.667 26.5 38s27.333 15.833 46 19.5s41.334 5.5 68.001 5.5c37.333 0 70 -0.166992 98 -0.5s51 -1.16602 69 -2.49902c11.333 -0.666992 18.5 -3.5 21.5 -8.5s4.5 -11.167 4.5 -18.5v-385l220 205c4.66699 4.66699 9.5 7.83398 14.5 9.50098 s9.5 2.5 13.5 2.5c8.66699 0 15.334 -1.83301 20.001 -5.5s7.66699 -8 9 -13s1.33301 -10.333 0 -16s-4 -10.167 -8 -13.5l-228 -210l230 -244c8.66699 -8.66699 11.5 -18.167 8.5 -28.5s-10.5 -16.166 -22.5 -17.499h-5c-7.33301 0 -13.666 0.833008 -18.999 2.5 s-11.333 5.83398 -18 12.501l-215 229v-216c0 -7.33301 -2.83301 -13.833 -8.5 -19.5s-12.5 -8.5 -20.5 -8.5h-5c-8 0 -14.833 2.83301 -20.5 8.5s-8.5 12.167 -8.5 19.5v661h-129c-16.667 0 -30.5 -0.666992 -41.5 -2s-19.833 -4.33301 -26.5 -9 s-11.334 -11.334 -14.001 -20.001s-4 -20.334 -4 -35.001v-80h104c8 0 14.833 -2.33301 20.5 -7s8.5 -10.667 8.5 -18v-9c0 -7.33301 -2.83301 -13.333 -8.5 -18s-12.5 -7 -20.5 -7h-104v-450z"/>
    <glyph glyph-name="f_f_k" unicode="ffk" horiz-adv-x="1095" d="M496 28c0 -7.33301 -2.83008 -13.835 -8.49707 -19.502s-12.167 -8.5 -19.5 -8.5h-7c-8 0 -14.833 2.83301 -20.5 8.5s-8.5 12.167 -8.5 19.5v450h-215v-450c0 -7.33301 -2.66699 -13.833 -8 -19.5s-12 -8.5 -20 -8.5h-6c-8.66699 0 -15.667 2.83301 -21 8.5 s-8 12.167 -8 19.5v450h-85c-8.66699 0 -15.667 2.33301 -21 7s-8 10.667 -8 18v9c0 7.33301 2.66699 13.333 8 18s12.333 7 21 7h85v80c0 45.333 10.333 77.166 31 95.499s50 27.5 88 27.5c14.667 0 25.667 -0.166992 33 -0.5s13.666 -1.16602 18.999 -2.49902 c11.333 -1.33301 18.666 -4 21.999 -8s5 -9.66699 5 -17v-6c0 -8 -2.33301 -13.833 -7 -17.5s-12.667 -5.5 -24 -5.5h-48c-19.333 0 -33.5 -4.66699 -42.5 -14s-13.5 -26.666 -13.5 -51.999v-80h215v80c0 24 2.83301 44 8.5 60s14.5 28.667 26.5 38s27.5 15.833 46.5 19.5 s41.5 5.5 67.5 5.5c37.333 0 70 -0.166992 98 -0.5s51.333 -1.16602 70 -2.49902c11.333 -0.666992 18.5 -3.5 21.5 -8.5s4.5 -11.167 4.5 -18.5v-385l211 198c8.66699 8 15.667 13.167 21 15.5s11.333 3.5 18 3.5c5.33301 0 10.333 -1.66699 15 -5s8 -7.5 10 -12.5 s2.66699 -10.333 2 -16s-3.33398 -10.5 -8.00098 -14.5l-229 -210l230 -244c8.66699 -8.66699 11.5 -18.167 8.5 -28.5s-10.5 -16.166 -22.5 -17.499h-5c-7.33301 0 -13.666 0.833008 -18.999 2.5s-11 5.83398 -17 12.501l-215 229v-216c0 -7.33301 -3 -13.833 -9 -19.5 s-12.667 -8.5 -20 -8.5h-6c-8 0 -14.833 2.83301 -20.5 8.5s-8.5 12.167 -8.5 19.5v661h-128c-17.333 0 -31.5 -0.666992 -42.5 -2s-19.833 -4.33301 -26.5 -9s-11.334 -11.334 -14.001 -20.001s-4 -20.334 -4 -35.001v-80h104c8 0 14.833 -2.33301 20.5 -7 s8.5 -10.667 8.5 -18v-9c0 -7.33301 -2.83301 -13.333 -8.5 -18s-12.5 -7 -20.5 -7h-104v-450z"/>
    <glyph glyph-name=".notdef" horiz-adv-x="509" d="M12 667h484v-667h-484v667zM255 393l138 209h-278zM80 98c0 4 1.83301 10.5 5.5 19.5s8.66699 19.333 15 31l21.5 38l25 41.5l67 106l-134 201v-437zM295 334l134 -202v404zM255 274l-139 -208h276z"/>
    <glyph glyph-name="nonmarkingreturn" unicode=" " horiz-adv-x="0"/>
    <glyph glyph-name="space" unicode=" " horiz-adv-x="215"/>
    <glyph glyph-name="exclam" unicode="!" horiz-adv-x="224" d="M109 167c-7.33301 0 -14 2.83301 -20 8.5s-9 12.167 -9 19.5v513c0 7.33301 3 13.833 9 19.5s12.667 8.5 20 8.5h6c7.33301 0 14 -2.83301 20 -8.5s9 -12.167 9 -19.5v-513c0 -7.33301 -3 -13.833 -9 -19.5s-12.667 -8.5 -20 -8.5h-6zM109 -6 c-7.33301 0 -14 2.66699 -20 8s-9 12 -9 20v72c0 7.33301 3 13.666 9 18.999s12.667 8 20 8h6c7.33301 0 14 -2.66699 20 -8s9 -11.666 9 -18.999v-72c0 -8 -3 -14.667 -9 -20s-12.667 -8 -20 -8h-6z"/>
    <glyph glyph-name="quotedbl" unicode="&quot;" horiz-adv-x="308" d="M269 715c0 -3.33301 -0.332031 -6.66797 -0.999023 -10.001l-46 -166c-4.66699 -16.667 -14.334 -25 -29.001 -25h-15c-7.33301 0 -12.333 1.83301 -15 5.5s-4 8.16699 -4 13.5v4.5c0 1.66699 0.333008 3.83398 1 6.50098l40 166c4 17.333 14 26 30 26h18 c14 0 21 -7 21 -21zM149.001 714.998c0 -3.33301 -0.331055 -6.66797 -0.998047 -10.001l-47 -166c-4.66699 -16.667 -14.334 -25 -29.001 -25h-14c-8 0 -13.167 1.83301 -15.5 5.5s-3.5 8.16699 -3.5 13.5v4.5c0 1.66699 0.333008 3.83398 1 6.50098l39 166 c2 8.66699 5.66699 15.167 11 19.5s11.666 6.5 18.999 6.5h18c14.667 0 22 -7 22 -21z"/>
    <glyph glyph-name="numbersign" unicode="#" horiz-adv-x="638" d="M588 489c0 -8 -3.1748 -14.333 -9.50781 -19s-13.166 -7 -20.499 -7h-89l-20 -199h90c8 0 14.5 -2.33301 19.5 -7s7.5 -12 7.5 -22c0 -8 -3.16699 -14.333 -9.5 -19s-13.166 -7 -20.499 -7h-90l-17 -182c-0.666992 -7.33301 -3.16699 -13.666 -7.5 -18.999 s-11.166 -8 -20.499 -8h-8c-7.33301 0 -13.666 2.83301 -18.999 8.5s-7.66602 12.5 -6.99902 20.5l16 180h-152l-17 -182c-0.666992 -7.33301 -3.5 -13.666 -8.5 -18.999s-11.5 -8 -19.5 -8h-9c-7.33301 0 -13.666 2.83301 -18.999 8.5s-7.66602 12.5 -6.99902 20.5l16 180 h-89c-7.33301 0 -13.833 2.33301 -19.5 7s-8.5 12 -8.5 22c0 8.66699 3.33301 15.167 10 19.5s13.667 6.5 21 6.5h90l19 199h-90c-7.33301 0 -13.833 2.33301 -19.5 7s-8.5 11 -8.5 19v4c0 7.33301 3.33301 13.5 10 18.5s13.667 7.5 21 7.5h91l16 190 c0.666992 7.33301 3.83398 13.666 9.50098 18.999s12.167 8 19.5 8h10c7.33301 0 13.5 -2.83301 18.5 -8.5s7.16699 -12.5 6.5 -20.5l-16 -188h152l16 190c0.666992 7.33301 3.66699 13.666 9 18.999s12 8 20 8h9c8 0 14.333 -2.83301 19 -8.5s6.66699 -12.5 6 -20.5 l-16 -188h88c8 0 14.5 -2.5 19.5 -7.5s7.5 -11.167 7.5 -18.5v-4zM253.992 463l-20 -199h153l19 199h-152z"/>
    <glyph glyph-name="dollar" unicode="$" horiz-adv-x="586" d="M325 740c22.667 -0.666992 44.833 -1.67188 66.5 -3.00488s44.834 -3.33301 69.501 -6c7.33301 -1.33301 13.5 -3.83301 18.5 -7.5s7.5 -9.16699 7.5 -16.5v-13c0 -8 -2.83301 -14 -8.5 -18s-12.834 -5.66699 -21.501 -5c-22.667 1.33301 -45.5 3.33301 -68.5 6 s-47.5 4 -73.5 4c-60.667 0 -104.167 -8.5 -130.5 -25.5s-39.5 -43.833 -39.5 -80.5c0 -12 1.66699 -23.167 5 -33.5s9.16602 -20.666 17.499 -30.999s19.833 -21 34.5 -32s33 -23.167 55 -36.5l95 -58c32 -19.333 58 -37 78 -53s35.667 -31.667 47 -47 s19 -30.666 23 -45.999s6 -32.333 6 -51c0 -20.667 -2.5 -41.5 -7.5 -62.5s-14.167 -40.167 -27.5 -57.5s-31.833 -32.333 -55.5 -45s-53.834 -21 -90.501 -25v-92c0 -7.33301 -2.33301 -13.833 -7 -19.5s-11 -8.5 -19 -8.5h-10c-8 0 -14.333 2.83301 -19 8.5 s-7 12.167 -7 19.5v89c-24 0.666992 -46.167 1.83398 -66.5 3.50098s-38.5 3.5 -54.5 5.5c-12 1.33301 -23 3.5 -33 6.5s-15 9.83301 -15 20.5v12c0 8.66699 3.33301 15 10 19s14.667 5.33301 24 4c23.333 -2 46.666 -4.33301 69.999 -7s48 -4 74 -4 c34 0 61.833 3.5 83.5 10.5s38.834 16.5 51.501 28.5s21.334 26.167 26.001 42.5s7 33.5 7 51.5c0 14 -1.83301 26.5 -5.5 37.5s-10.167 21.833 -19.5 32.5s-22.166 22 -38.499 34s-36.833 25.667 -61.5 41l-96 59c-27.333 16.667 -50 32.334 -68 47.001 s-32.333 29.167 -43 43.5s-18 29 -22 44s-6 31.5 -6 49.5c0 28 5 51.833 15 71.5s23.333 35.667 40 48s36 21.833 58 28.5s45.333 11.334 70 14.001v76c0 7.33301 2.33301 13.833 7 19.5s11 8.5 19 8.5h10c8 0 14.333 -2.83301 19 -8.5s7 -12.167 7 -19.5v-73z"/>
    <glyph glyph-name="percent" unicode="%" horiz-adv-x="755" d="M695 154c0 -54 -11.667 -94.167 -35 -120.5s-55.666 -39.5 -96.999 -39.5s-73.833 13.167 -97.5 39.5s-35.5 66.5 -35.5 120.5v101c0 54 11.833 94 35.5 120s56.167 39 97.5 39s73.666 -13 96.999 -39s35 -66 35 -120v-101zM325 481c0 -54 -11.667 -94.167 -35 -120.5 s-55.666 -39.5 -96.999 -39.5s-73.833 13.167 -97.5 39.5s-35.5 66.5 -35.5 120.5v100c0 54 11.833 94 35.5 120s56.167 39 97.5 39s73.666 -13 96.999 -39s35 -66 35 -120v-100zM637 255c0 36 -6.5 62.167 -19.5 78.5s-31.167 24.5 -54.5 24.5s-41.5 -8.16699 -54.5 -24.5 s-19.5 -42.5 -19.5 -78.5v-101c0 -36 6.5 -62.167 19.5 -78.5s31.167 -24.5 54.5 -24.5s41.5 8.16699 54.5 24.5s19.5 42.5 19.5 78.5v101zM266 581c0 36 -6.33301 62.167 -19 78.5s-30.667 24.5 -54 24.5s-41.5 -8.16699 -54.5 -24.5s-19.5 -42.5 -19.5 -78.5v-100 c0 -36 6.5 -62.167 19.5 -78.5s31.167 -24.5 54.5 -24.5s41.333 8.16699 54 24.5s19 42.5 19 78.5v100zM599 736c9.33301 0 15.333 -2.33203 18 -6.99902s0.333984 -13.334 -6.99902 -26.001l-402 -686c-5.33301 -8.66699 -9.66602 -14.667 -12.999 -18s-9 -5 -17 -5h-26 c-12.667 0 -18.834 3.83301 -18.501 11.5s2.5 14.834 6.5 21.501l402 685c5.33301 9.33301 9.66602 15.666 12.999 18.999s9 5 17 5h27z"/>
    <glyph glyph-name="ampersand" unicode="&amp;" horiz-adv-x="639" d="M476 67c-24.667 -23.333 -53.001 -41.333 -85.001 -54s-69.333 -19 -112 -19c-25.333 0 -51.5 2.66699 -78.5 8s-51.667 14.833 -74 28.5s-40.666 31.834 -54.999 54.501s-21.5 51.334 -21.5 86.001v5c0 20 2.5 38.333 7.5 55s13.167 33 24.5 49s26 31.667 44 47 s40 31.666 66 48.999c-25.333 29.333 -45.333 54.166 -60 74.499s-25.667 38 -33 53s-12.166 28.167 -14.499 39.5s-3.5 22.666 -3.5 33.999v6c0 28.667 5 53 15 73s23.833 36.333 41.5 49s38.334 21.667 62.001 27s49.167 8 76.5 8c23.333 0 46.166 -2.66699 68.499 -8 s42.333 -14.333 60 -27s31.834 -29 42.501 -49s16 -44.333 16 -73v-6c0 -19.333 -2.83301 -37.166 -8.5 -53.499s-14.834 -32.333 -27.501 -48s-29 -31.5 -49 -47.5s-44 -33.333 -72 -52l-20 -13l188 -203c15.333 25.333 25.666 53.666 30.999 84.999s8 64.666 8 99.999v11 c0 8 1.83301 14.667 5.5 20s10.167 8 19.5 8h14c9.33301 0 16 -2.66699 20 -8s6 -12 6 -20v-11c0 -43.333 -5 -84.666 -15 -123.999s-25.333 -74.666 -46 -105.999l79 -86c4.66699 -4.66699 6.16699 -10.667 4.5 -18s-7.5 -11 -17.5 -11h-31c-4.66699 0 -8.5 0.5 -11.5 1.5 s-6.83301 3.83301 -11.5 8.5zM396.999 583c0 18.667 -3.16895 34.502 -9.50195 47.502s-14.833 23.333 -25.5 31s-23.5 13.167 -38.5 16.5s-30.833 5 -47.5 5c-19.333 0 -36.833 -1.5 -52.5 -4.5s-29.167 -8.16699 -40.5 -15.5s-20.166 -17.5 -26.499 -30.5 s-9.5 -29.5 -9.5 -49.5v-6c0 -8.66699 0.666992 -17.334 2 -26.001s5.33301 -19 12 -31s16.5 -26.833 29.5 -44.5s31.167 -39.834 54.5 -66.501l28 17c24 14.667 43.833 28.167 59.5 40.5s28.334 24.5 38.001 36.5s16.5 24 20.5 36s6 24.667 6 38v6zM231.997 331.002 c-22 -14 -40.499 -26.667 -55.499 -38s-26.833 -22.833 -35.5 -34.5s-14.834 -24 -18.501 -37s-5.5 -28.167 -5.5 -45.5v-5c0 -22 4.66699 -40.5 14 -55.5s21.5 -27.333 36.5 -37s32.333 -16.5 52 -20.5s39.5 -6 59.5 -6c34.667 0 64.5 5 89.5 15s46.833 24.667 65.5 44z "/>
    <glyph glyph-name="quotesingle" unicode="'" horiz-adv-x="187" d="M148 715c0 -3.33301 -0.332031 -6.66699 -0.999023 -10l-46 -166c-4.66699 -16.667 -14.334 -25 -29.001 -25h-14c-8 0 -13.333 1.83301 -16 5.5s-4 8.16699 -4 13.5v4.5c0 1.66699 0.333008 3.83398 1 6.50098l40 166c4 17.333 14 26 30 26h18 c8 0 13.5 -1.83301 16.5 -5.5s4.5 -8.83398 4.5 -15.501z"/>
    <glyph glyph-name="parenleft" unicode="(" horiz-adv-x="280" d="M260 -174c0 -9.33301 -6.33301 -14 -19 -14h-29c-11.333 0 -19.666 3.66699 -24.999 11c-22 28 -41 60.167 -57 96.5s-29.167 73.666 -39.5 111.999s-18 76.333 -23 114s-7.5 71.834 -7.5 102.501v52c0 30.667 2.5 64.667 7.5 102s12.667 75.166 23 113.499 s23.5 75.666 39.5 111.999s35 68.833 57 97.5c5.33301 7.33301 13.666 11 24.999 11h29c12.667 0 19 -5 19 -15c0 -6 -2.66699 -11 -8 -15c-22 -23.333 -40.833 -52 -56.5 -86s-28.834 -69.5 -39.501 -106.5s-18.5 -74.167 -23.5 -111.5s-7.5 -71.333 -7.5 -102v-52 c0 -30.667 2.5 -64.667 7.5 -102s12.833 -74.666 23.5 -111.999s23.834 -72.833 39.501 -106.5s34.5 -62.167 56.5 -85.5c5.33301 -5.33301 8 -10.666 8 -15.999z"/>
    <glyph glyph-name="parenright" unicode=")" horiz-adv-x="279" d="M219 248c0 -30.667 -2.5 -64.835 -7.5 -102.502s-12.667 -75.667 -23 -114s-23.5 -75.666 -39.5 -111.999s-35 -68.5 -57 -96.5c-5.33301 -7.33301 -13.666 -11 -24.999 -11h-29c-12 0 -18 4.66699 -18 14c0 4.66699 2.33301 10 7 16c22 23.333 41 51.833 57 85.5 s29.167 69.167 39.5 106.5s18.166 74.666 23.499 111.999s8 71.333 8 102v52c0 30.667 -2.66699 64.667 -8 102s-13.166 74.5 -23.499 111.5s-23.5 72.5 -39.5 106.5s-35 62.667 -57 86c-4.66699 4.66699 -7 9.66699 -7 15c0 10 6 15 18 15h29 c11.333 0 19.666 -3.66699 24.999 -11c22.667 -28.667 42 -61.167 58 -97.5s29.167 -73.666 39.5 -111.999s17.833 -76.166 22.5 -113.499s7 -71.333 7 -102v-52z"/>
    <glyph glyph-name="asterisk" unicode="*" horiz-adv-x="426" d="M392 603c0 -7.33301 -2.16992 -13.0029 -6.50293 -17.0029s-9.5 -7 -15.5 -9l-111 -36l69 -96c1.33301 -1.33301 2.83301 -3.83301 4.5 -7.5s2.5 -7.83398 2.5 -12.501c0 -7.33301 -3 -13.333 -9 -18s-12.333 -7 -19 -7c-6 0 -11 1.33301 -15 4s-7.33301 5.66699 -10 9 l-70 94l-34 -47.5l-34 -46.5c-6 -8 -14.667 -12 -26 -12c-6.66699 0 -13 2.33301 -19 7s-9 10 -9 16c0 5.33301 0.833008 9.5 2.5 12.5s3.16699 5.83301 4.5 8.5l70 97l-112 35c-5.33301 1.33301 -10.166 4.33301 -14.499 9s-6.5 10.334 -6.5 17.001 c0 10.667 3.66699 18.834 11 24.501s16.333 6.83398 27 3.50098l112 -36v118c0 8 1.83301 14.5 5.5 19.5s9.83398 7.5 18.501 7.5h9c8.66699 0 14.834 -2.5 18.501 -7.5s5.5 -11.5 5.5 -19.5v-117l113 35c11.333 3.33301 20.5 2.33301 27.5 -3s10.5 -13.666 10.5 -24.999z "/>
    <glyph glyph-name="plus" unicode="+" horiz-adv-x="585" d="M518 382c0 -9.33301 -2.83301 -15.833 -8.5 -19.5s-12.834 -5.5 -21.501 -5.5h-164v-165c0 -8.66699 -2 -15.667 -6 -21s-10.667 -8 -20 -8h-10c-9.33301 0 -16 2.66699 -20 8s-6 12.333 -6 21v165h-164c-8 0 -15 1.83301 -21 5.5s-9 10.167 -9 19.5v9 c0 9.33301 3 15.833 9 19.5s13 5.5 21 5.5h164v166c0 8 2 14.833 6 20.5s10.667 8.5 20 8.5h10c9.33301 0 16 -2.83301 20 -8.5s6 -12.5 6 -20.5v-166h164c8.66699 0 15.834 -1.83301 21.501 -5.5s8.5 -10.167 8.5 -19.5v-9z"/>
    <glyph glyph-name="comma" unicode="," horiz-adv-x="185" d="M147 101c0 -1.33301 -0.333984 -3.33301 -1.00098 -6s-1.66699 -5.66699 -3 -9l-59 -158c-5.33301 -16 -14.666 -24 -27.999 -24h-12c-13.333 0 -20 6.33301 -20 19c0 2 0.666992 5.66699 2 11l51 162c5.33301 16.667 15.333 25 30 25h18c14.667 0 22 -6.66699 22 -20z "/>
    <glyph glyph-name="hyphen" unicode="-" horiz-adv-x="356" d="M304 273c0 -8 -2.66699 -14.167 -8 -18.5s-12.333 -6.5 -21 -6.5h-194c-8.66699 0 -15.667 2.16699 -21 6.5s-8 10.5 -8 18.5v8c0 7.33301 2.66699 13.666 8 18.999s12.333 8 21 8h194c8.66699 0 15.667 -2.66699 21 -8s8 -11.666 8 -18.999v-8z"/>
    <glyph glyph-name="period" unicode="." horiz-adv-x="187" d="M125 22c0 -8 -2.83301 -14.667 -8.5 -20s-12.5 -8 -20.5 -8h-5c-8 0 -14.833 2.66699 -20.5 8s-8.5 12 -8.5 20v72c0 7.33301 2.83301 13.666 8.5 18.999s12.5 8 20.5 8h5c8 0 14.833 -2.66699 20.5 -8s8.5 -11.666 8.5 -18.999v-72z"/>
    <glyph glyph-name="slash" unicode="/" horiz-adv-x="323" d="M287 740c9.33301 0 15.832 -2.83301 19.499 -8.5s3.83398 -13.167 0.500977 -22.5l-227 -690c-2 -5.33301 -4.5 -10.833 -7.5 -16.5s-8.83301 -8.5 -17.5 -8.5h-21c-9.33301 0 -15.333 3.33301 -18 10s-2.66699 14 0 22l226 689c2 6 4.66699 11.667 8 17s9 8 17 8h20z "/>
    <glyph glyph-name="zero" unicode="0" horiz-adv-x="585" d="M525 273c0 -48 -5.5 -89.667 -16.5 -125s-26.5 -64.333 -46.5 -87s-44.333 -39.5 -73 -50.5s-60.667 -16.5 -96 -16.5s-67.333 5.5 -96 16.5s-53.167 27.833 -73.5 50.5s-36 51.667 -47 87s-16.5 77 -16.5 125v190c0 48 5.5 89.5 16.5 124.5s26.667 63.833 47 86.5 s44.833 39.334 73.5 50.001s60.667 16 96 16s67.333 -5.33301 96 -16s53 -27.334 73 -50.001s35.5 -51.5 46.5 -86.5s16.5 -76.5 16.5 -124.5v-190zM461 463c0 72.667 -14.333 127.5 -43 164.5s-70.334 55.5 -125.001 55.5s-96.5 -18.5 -125.5 -55.5 s-43.5 -91.833 -43.5 -164.5v-190c0 -73.333 14.5 -128.5 43.5 -165.5s70.833 -55.5 125.5 -55.5s96.334 18.5 125.001 55.5s43 92.167 43 165.5v190z"/>
    <glyph glyph-name="one" unicode="1" horiz-adv-x="476" d="M114 660c-12.667 -1.33301 -21 0.668945 -25 6.00195s-6 11 -6 17v4c0 11.333 2.83301 18.666 8.5 21.999s12.167 5.66602 19.5 6.99902l126 19c2 0.666992 4.5 1 7.5 1h9.5c9.33301 0 16 -2.66699 20 -8s6 -12.333 6 -21v-678c0 -8 -3 -14.833 -9 -20.5 s-13 -8.5 -21 -8.5h-4c-8 -0 -15 2.83301 -21 8.5s-9 12.5 -9 20.5v644z"/>
    <glyph glyph-name="two" unicode="2" horiz-adv-x="586" d="M506 562c0 -18.667 -2.33691 -35.8311 -7.00391 -51.498s-12.167 -30.834 -22.5 -45.501s-24.166 -29.5 -41.499 -44.5s-38.666 -30.833 -63.999 -47.5l-98 -66c-30 -20 -53.667 -38.833 -71 -56.5s-30.166 -35 -38.499 -52s-13.666 -34.5 -15.999 -52.5 s-3.5 -37.333 -3.5 -58v-29h323c7.33301 0 14.166 -1.83301 20.499 -5.5s9.5 -9.83398 9.5 -18.501v-11c0 -8.66699 -2.83301 -14.834 -8.5 -18.501s-12.834 -5.5 -21.501 -5.5h-357c-9.33301 0 -16.666 3 -21.999 9s-8 12.667 -8 20v59c0 22.667 2.33301 45.334 7 68.001 s12.667 45 24 67s27 43.667 47 65s45.333 42.333 76 63l98 66c20.667 14 37.834 26.667 51.501 38s24.5 22.5 32.5 33.5s13.667 22.333 17 34s5 24.834 5 39.501c0 40 -12.667 69.833 -38 89.5s-68 29.5 -128 29.5c-22 0 -45.667 -1.33301 -71 -4 s-50.333 -6.33398 -75 -11.001c-8 -1.33301 -15.167 -0.333008 -21.5 3s-10.166 10.333 -11.499 21v11c0 8 2.66699 13.833 8 17.5s11.666 6.16699 18.999 7.5c24 5.33301 48.833 9 74.5 11s51.5 3 77.5 3c76 0 134 -14.167 174 -42.5s60 -73.5 60 -135.5z"/>
    <glyph glyph-name="three" unicode="3" horiz-adv-x="586" d="M510 543c0 -30 -6.66602 -59.501 -19.999 -88.501s-36.666 -52.5 -69.999 -70.5c16.667 -10 30.834 -21.5 42.501 -34.5s21 -26.5 28 -40.5s12 -28 15 -42s4.5 -27 4.5 -39v-20c0 -38 -5.83301 -70.5 -17.5 -97.5s-28.5 -49.167 -50.5 -66.5s-48.333 -30 -79 -38 s-65 -12 -103 -12c-25.333 0 -50.833 1.33301 -76.5 4s-47.5 6.33398 -65.5 11.001c-7.33301 2 -13.5 5.16699 -18.5 9.5s-7.5 10.166 -7.5 17.499v5c0 8 2.16699 14.667 6.5 20s12.166 7.33301 23.499 6l68.5 -8.5c25 -3 48.167 -4.5 69.5 -4.5 c63.333 0 109.666 11.833 138.999 35.5s44 63.167 44 118.5v20c0 12 -2.16699 25.333 -6.5 40s-11.5 28.5 -21.5 41.5s-23 24 -39 33s-35.667 13.5 -59 13.5h-180c-8 0 -14.833 2.5 -20.5 7.5s-8.5 11.5 -8.5 19.5v6c0 8.66699 2.83301 15.334 8.5 20.001s12.5 7 20.5 7h180 c26 0 47.167 4.33301 63.5 13s29.166 19.5 38.499 32.5s15.666 26.833 18.999 41.5s5 28 5 40v11c0 25.333 -3.83301 46.166 -11.5 62.499s-19 29.333 -34 39s-34 16.334 -57 20.001s-49.833 5.5 -80.5 5.5c-20.667 0 -43.834 -1.66699 -69.501 -5 s-48.167 -6.66602 -67.5 -9.99902c-7.33301 -1.33301 -14.333 0.166992 -21 4.5s-10 11.166 -10 20.499v8c0 7.33301 2.5 13.333 7.5 18s11.167 7.66699 18.5 9c18.667 3.33301 40.334 6.5 65.001 9.5s50.334 4.5 77.001 4.5c38.667 0 73.5 -2.83301 104.5 -8.5 s57.333 -15.5 79 -29.5s38.167 -33 49.5 -57s17 -54.333 17 -91v-11z"/>
    <glyph glyph-name="four" unicode="4" horiz-adv-x="583" d="M516 268c8 0 14.833 -2.33105 20.5 -6.99805s8.5 -10.667 8.5 -18v-9c0 -8 -2.83301 -14.333 -8.5 -19s-12.5 -7 -20.5 -7h-85v-180c0 -7.33301 -2.33301 -13.833 -7 -19.5s-11 -8.5 -19 -8.5h-12c-9.33301 0 -16 2.83301 -20 8.5s-6 12.167 -6 19.5v180h-256 c-25.333 0 -43.833 6 -55.5 18s-17.5 26.667 -17.5 44c0 15.333 5.33301 30.666 16 45.999l270 396c6.66699 9.33301 13.667 16.166 21 20.499s18.333 6.83301 33 7.5h3c13.333 0 25 -4.33301 35 -13s15 -23 15 -43v-416h85zM367 667.002l-259 -380c-4 -6 -6 -10.333 -6 -13 c0 -4 3 -6 9 -6h256v399z"/>
    <glyph glyph-name="five" unicode="5" horiz-adv-x="586" d="M262 54c61.333 0 108.498 13.5039 141.498 40.5039s49.5 67.833 49.5 122.5v24c0 52.667 -17.833 89.167 -53.5 109.5s-91.834 30.5 -168.501 30.5h-102c-9.33301 0 -16.833 3.33301 -22.5 10s-8.16699 14 -7.5 22l22 297c1.33301 7.33301 5 13.5 11 18.5 s12.333 7.5 19 7.5h315c7.33301 0 14.166 -2 20.499 -6s9.5 -10.667 9.5 -20v-10c0 -9.33301 -3.16699 -15.5 -9.5 -18.5s-13.166 -4.5 -20.499 -4.5h-283l-15 -237h63c54.667 0 100.334 -4.33301 137.001 -13s66 -21.334 88 -38.001s37.667 -37.334 47 -62.001 s14 -53.334 14 -86.001v-24c0 -36.667 -6.16699 -69 -18.5 -97s-29.666 -51.333 -51.999 -70s-49.166 -32.667 -80.499 -42s-66 -14 -104 -14c-34.667 0 -63.5 1.66699 -86.5 5s-44.167 7.66602 -63.5 12.999c-7.33301 2 -13.666 5 -18.999 9s-8 10.333 -8 19v10 c0 10.667 3.16699 17.5 9.5 20.5s14.166 3.16699 23.499 0.5c47.333 -11.333 95.333 -17 144 -17z"/>
    <glyph glyph-name="six" unicode="6" horiz-adv-x="585" d="M521 252c0 -85.333 -18.332 -149.667 -54.999 -193s-96 -65 -178 -65c-76 0 -132.333 21.167 -169 63.5s-55 107.833 -55 196.5v226c0 46.667 5.33301 86.5 16 119.5s26.5 60 47.5 81s46.833 36.167 77.5 45.5s66 14 106 14c34.667 0 63.5 -1.5 86.5 -4.5 s45.833 -7.5 68.5 -13.5c7.33301 -2 14.166 -5.33301 20.499 -10s9.5 -11 9.5 -19v-10c0 -10 -3.33301 -16.333 -10 -19s-15 -3 -25 -1c-25.333 5.33301 -49 9.66602 -71 12.999s-48.333 5 -79 5c-31.333 0 -58.333 -3.5 -81 -10.5s-41.667 -18.333 -57 -34 s-26.666 -36.334 -33.999 -62.001s-11 -57.167 -11 -94.5v-47c23.333 5.33301 49.166 10.333 77.499 15s58.5 7 90.5 7c27.333 0 54.5 -3.16699 81.5 -9.5s51.167 -17.166 72.5 -32.499s38.5 -35.666 51.5 -60.999s19.5 -57.333 19.5 -96v-4zM458.001 255.999 c0 27.333 -4.83301 49.999 -14.5 67.999s-22.167 32.333 -37.5 43s-32.666 18.167 -51.999 22.5s-38.666 6.5 -57.999 6.5c-30 0 -60.333 -2.16699 -91 -6.5s-56.334 -9.16602 -77.001 -14.499v-121c0 -74 13 -126.167 39 -156.5s66.333 -45.5 121 -45.5 c26.667 0 50.667 3.5 72 10.5s39.166 18.5 53.499 34.5s25.333 36.667 33 62s11.5 56.333 11.5 93v4z"/>
    <glyph glyph-name="seven" unicode="7" horiz-adv-x="535" d="M498 694c0 -9.33301 -2 -18.335 -6 -27.002l-305 -646c-4.66699 -9.33301 -10 -15.166 -16 -17.499s-11.333 -3.5 -16 -3.5h-15c-11.333 0 -18.333 4.5 -21 13.5s-2 17.833 2 26.5l305 635h-358c-8 0 -15 2.16699 -21 6.5s-9 10.5 -9 18.5v8c0 7.33301 3 13.833 9 19.5 s13 8.5 21 8.5h382c14 0 25.5 -3.66699 34.5 -11s13.5 -17.666 13.5 -30.999z"/>
    <glyph glyph-name="eight" unicode="8" horiz-adv-x="584" d="M535 200c0 -34 -5.66406 -63.832 -16.9971 -89.499s-27.333 -47 -48 -64s-45 -29.833 -73 -38.5s-59 -13.334 -93 -14.001h-8c-33.333 0 -64.333 4.33301 -93 13s-53.334 21.5 -74.001 38.5s-36.834 38.333 -48.501 64s-17.5 55.834 -17.5 90.501v28 c0 12.667 1.66699 26.334 5 41.001s8.66602 29 15.999 43s16.333 27.167 27 39.5s23.667 23.166 39 32.499c-25.333 14.667 -46.166 35.667 -62.499 63s-24.5 56.333 -24.5 87v21c0 31.333 5.5 58.5 16.5 81.5s26.667 42.167 47 57.5s44.666 26.666 72.999 33.999 s59.833 11.333 94.5 12h5c34.667 0 66.5 -3.66699 95.5 -11s53.833 -18.5 74.5 -33.5s36.834 -34.167 48.501 -57.5s17.5 -51 17.5 -83v-21c0 -32 -7.83301 -61.5 -23.5 -88.5s-37.167 -47.5 -64.5 -61.5c15.333 -9.33301 28.5 -20.166 39.5 -32.499 s20.167 -25.5 27.5 -39.5s12.666 -28.333 15.999 -43s5 -28.334 5 -41.001v-28zM468.003 555.001c0 44 -14.666 76.001 -43.999 96.001s-71 30 -125 30h-5c-52.667 -0.666992 -93.334 -10.834 -122.001 -30.501s-43 -51.5 -43 -95.5v-21c0 -12.667 2 -26 6 -40 s11 -26.667 21 -38s23.333 -20.833 40 -28.5s37.667 -11.5 63 -11.5h79c25.333 0 46.333 3.83301 63 11.5s30 17.167 40 28.5s17 24 21 38s6 27.333 6 40v21zM468.004 228.002c0 10.667 -2 23.334 -6 38.001s-11 28.667 -21 42s-23.333 24.666 -40 33.999s-37.667 14 -63 14 h-79c-25.333 0 -46.333 -4.66699 -63 -14s-30 -20.666 -40 -33.999s-17 -27.333 -21 -42s-6 -27.334 -6 -38.001v-28c0 -48 14.333 -84.167 43 -108.5s69.667 -36.833 123 -37.5h4c54 0 95.667 12.333 125 37s44 61 44 109v28z"/>
    <glyph glyph-name="nine" unicode="9" horiz-adv-x="585" d="M521 255c0 -94 -21.167 -161.001 -63.5 -201.001s-103.5 -60 -183.5 -60c-35.333 0 -64.5 1.5 -87.5 4.5s-45.833 7.83301 -68.5 14.5c-7.33301 2 -14 4.66699 -20 8s-9 9.66602 -9 18.999v9c0 9.33301 3.66699 15.833 11 19.5s15.666 4.5 24.999 2.5 c25.333 -5.33301 49 -9.5 71 -12.5s48 -4.5 78 -4.5c31.333 0 58.5 3.33301 81.5 10s42.167 17.834 57.5 33.501s26.666 36.334 33.999 62.001s11 57.5 11 95.5v46c-24 -6 -50.167 -11 -78.5 -15s-58.166 -6 -89.499 -6c-27.333 0 -54.5 3.16699 -81.5 9.5 s-51.167 17 -72.5 32s-38.666 35.333 -51.999 61s-20 57.5 -20 95.5v5c0 84.667 18.5 148.667 55.5 192s96.5 65 178.5 65c76 0 132.167 -21 168.5 -63s54.5 -107.333 54.5 -196v-226zM458 480.999c0 74 -12.999 126.168 -38.999 156.501s-66.333 45.5 -121 45.5 c-27.333 0 -51.5 -3.5 -72.5 -10.5s-38.667 -18.5 -53 -34.5s-25.333 -36.667 -33 -62s-11.5 -56.333 -11.5 -93v-5c0 -26.667 4.66699 -49 14 -67s21.5 -32.333 36.5 -43s32.333 -18.334 52 -23.001s39.5 -7 59.5 -7c30 0 60.167 2.33301 90.5 7s56.166 9.66699 77.499 15 v121z"/>
    <glyph glyph-name="colon" unicode=":" horiz-adv-x="197" d="M130 442c0 -8 -2.83301 -14.5 -8.5 -19.5s-12.5 -7.5 -20.5 -7.5h-5c-8 0 -14.833 2.5 -20.5 7.5s-8.5 11.5 -8.5 19.5v72c0 7.33301 2.83301 13.833 8.5 19.5s12.5 8.5 20.5 8.5h5c8 0 14.833 -2.83301 20.5 -8.5s8.5 -12.167 8.5 -19.5v-72zM130 22 c0 -8 -2.83301 -14.667 -8.5 -20s-12.5 -8 -20.5 -8h-5c-8 0 -14.833 2.66699 -20.5 8s-8.5 12 -8.5 20v72c0 7.33301 2.83301 13.666 8.5 18.999s12.5 8 20.5 8h5c8 0 14.833 -2.66699 20.5 -8s8.5 -11.666 8.5 -18.999v-72z"/>
    <glyph glyph-name="semicolon" unicode=";" horiz-adv-x="196" d="M129 442c0 -8 -3 -14.5 -9 -19.5s-12.667 -7.5 -20 -7.5h-6c-7.33301 0 -14 2.5 -20 7.5s-9 11.5 -9 19.5v72c0 7.33301 3 13.833 9 19.5s12.667 8.5 20 8.5h6c7.33301 0 14 -2.83301 20 -8.5s9 -12.167 9 -19.5v-72zM136 101c0 -1.33301 -0.333008 -2.99902 -1 -4.99902 l-2 -6l-61 -162c-3.33301 -8.66699 -7 -14.834 -11 -18.501s-9.66699 -5.5 -17 -5.5h-12c-13.333 0 -20 6.33301 -20 19c0 2 0.666992 5.66699 2 11l51 162c5.33301 16.667 15.333 25 30 25h18c6.66699 0 12.167 -1.66699 16.5 -5s6.5 -8.33301 6.5 -15z"/>
    <glyph glyph-name="less" unicode="&lt;" horiz-adv-x="589" d="M429 185c5.33301 -4.66699 8.83203 -10.502 10.499 -17.502s-0.5 -14.167 -6.5 -21.5l-6 -7c-6 -6 -12.667 -8.33301 -20 -7s-14 4.33301 -20 9l-256 210c-12.667 10.667 -19 22.667 -19 36c0 5.33301 1.66699 11.333 5 18s8 12.334 14 17.001l256 210 c5.33301 4.66699 11.5 8 18.5 10s14.167 -0.666992 21.5 -8l6 -6c6.66699 -6.66699 9.33398 -13.667 8.00098 -21s-5.33301 -13.666 -12 -18.999l-245 -201z"/>
    <glyph glyph-name="equal" unicode="=" horiz-adv-x="587" d="M500 478c0 -8.66699 -2.83301 -15 -8.5 -19s-12.834 -6 -21.501 -6h-352c-8 0 -15 2 -21 6s-9 10.333 -9 19v10c0 8.66699 3 15 9 19s13 6 21 6h352c8.66699 0 15.834 -2 21.501 -6s8.5 -10.333 8.5 -19v-10zM500 285c0 -8.66699 -2.83301 -15 -8.5 -19 s-12.834 -6 -21.501 -6h-352c-8 0 -15 2 -21 6s-9 10.333 -9 19v10c0 8.66699 3 15 9 19s13 6 21 6h352c8.66699 0 15.834 -2 21.501 -6s8.5 -10.333 8.5 -19v-10z"/>
    <glyph glyph-name="greater" unicode="&gt;" horiz-adv-x="589" d="M419 387l-245.001 201.001c-6.66699 5.33301 -10.667 11.833 -12 19.5s1.33398 14.5 8.00098 20.5l7 6c7.33301 6 14.333 8.16699 21 6.5s12.667 -4.5 18 -8.5l257 -210c5.33301 -4.66699 9.66602 -10.334 12.999 -17.001s5 -12.667 5 -18 c0 -6.66699 -1.5 -13.167 -4.5 -19.5s-7.5 -11.833 -13.5 -16.5l-257 -210c-5.33301 -4.66699 -11.666 -7.66699 -18.999 -9s-14 1 -20 7l-7 7c-6.66699 6.66699 -9 13.667 -7 21s5.66699 13.333 11 18z"/>
    <glyph glyph-name="question" unicode="?" horiz-adv-x="433" d="M373 583c0 -15.333 -1.66602 -29.666 -4.99902 -42.999s-9.16602 -27.333 -17.499 -42s-19.5 -30.334 -33.5 -47.001s-31.667 -35.667 -53 -57l-29 -29c-11.333 -11.333 -20.666 -21.333 -27.999 -30s-13 -17 -17 -25s-6.66699 -16.333 -8 -25s-2 -19.334 -2 -32.001v-58 c0 -8.66699 -2.83301 -15.5 -8.5 -20.5s-12.5 -7.5 -20.5 -7.5h-5c-8 0 -14.833 2.5 -20.5 7.5s-8.5 11.833 -8.5 20.5v58c0 16 1.16699 30.5 3.5 43.5s6.33301 25.5 12 37.5s13.167 24 22.5 36s21.333 25.333 36 40l27 27c18 18 32.833 33.667 44.5 47s20.667 25.5 27 36.5 s10.666 21.333 12.999 31s3.5 20.167 3.5 31.5v8c0 33.333 -10.667 57 -32 71s-54 21 -98 21c-19.333 0 -36 -0.166992 -50 -0.5s-30 -1.5 -48 -3.5c-19.333 -2 -31.333 -0.666992 -36 4s-7 10.667 -7 18v8c0 6 1.66699 11.333 5 16s10 7.66699 20 9 c19.333 2.66699 38.666 4.33398 57.999 5.00098s38.666 1 57.999 1c25.333 0 49.833 -2.5 73.5 -7.5s44.667 -13.167 63 -24.5s33 -26.5 44 -45.5s16.5 -42.833 16.5 -71.5v-8zM179.001 22c0 -8 -2.83301 -14.667 -8.5 -20s-12.5 -8 -20.5 -8h-5 c-8 0 -14.833 2.66699 -20.5 8s-8.5 12 -8.5 20v72c0 7.33301 2.83301 13.666 8.5 18.999s12.5 8 20.5 8h5c8 0 14.833 -2.66699 20.5 -8s8.5 -11.666 8.5 -18.999v-72z"/>
    <glyph glyph-name="at" unicode="@" horiz-adv-x="756" d="M706 369c0 -67.333 -6.33887 -120.17 -19.0059 -158.503s-34 -68.5 -64 -90.5c-28 -20.667 -64 -35.334 -108 -44.001s-97.333 -13 -160 -13c-21.333 0 -41.166 3.16699 -59.499 9.5s-34.333 15.833 -48 28.5s-24 28.834 -31 48.501s-9.5 42.5 -7.5 68.5 c1.33301 18.667 3.16602 37.5 5.49902 56.5s4.16602 37.833 5.49902 56.5c2 20.667 6.83301 40.167 14.5 58.5s18.167 34.333 31.5 48s30 24.334 50 32.001s43.333 11.5 70 11.5c20.667 0 42 -1.16699 64 -3.5s40.667 -5.5 56 -9.5 c6.66699 -1.33301 12.334 -4.33301 17.001 -9s6.66699 -10.334 6 -17.001l-29 -314c34.667 5.33301 61.5 15 80.5 29s33.167 31.5 42.5 52.5s15 45 17 72s3 56.167 3 87.5c0 30.667 -5.16699 59.334 -15.5 86.001s-25.5 49.667 -45.5 69s-44.5 34.666 -73.5 45.999 s-62.5 17 -100.5 17c-34 0 -64.833 -4.16699 -92.5 -12.5s-52.167 -19.666 -73.5 -33.999s-39.666 -30.833 -54.999 -49.5s-27.666 -38.334 -36.999 -59.001c-8 -18 -14.5 -39.167 -19.5 -63.5s-8.83301 -48.666 -11.5 -72.999s-4.5 -47.5 -5.5 -69.5s-1.5 -39.333 -1.5 -52 c0 -29.333 5.83301 -57 17.5 -83s28 -48.667 49 -68s46 -34.666 75 -45.999s60.5 -17 94.5 -17c21.333 0 43.5 0.5 66.5 1.5s41.5 2.16699 55.5 3.5c6 0.666992 12.333 -0.166016 19 -2.49902s10 -8.5 10 -18.5v-5c0 -9.33301 -2.66699 -15.833 -8 -19.5 s-12.666 -6.16699 -21.999 -7.5c-15.333 -2 -34.833 -3.66699 -58.5 -5s-45.834 -2 -66.501 -2c-39.333 0 -76.666 6.33301 -111.999 19s-66.666 30.5 -93.999 53.5s-49 50.667 -65 83s-24 68.166 -24 107.499c0 12 0.5 28.667 1.5 50s2.83301 44.333 5.5 69 s6.16699 49.334 10.5 74.001s9.5 46.667 15.5 66c8.66699 26.667 22.167 53 40.5 79s41.333 49.333 69 70s59.834 37.167 96.501 49.5s77.667 18.5 123 18.5c48 0 90.5 -7.66699 127.5 -23s67.833 -35.833 92.5 -61.5s43.334 -55 56.001 -88s19 -67.167 19 -102.5z M435.994 120.996l27.001 295c-12 2 -25 3.83301 -39 5.5s-27.333 2.5 -40 2.5c-34 0 -58.833 -8.5 -74.5 -25.5s-24.834 -40.5 -27.501 -70.5c-1.33301 -19.333 -3 -38.5 -5 -57.5l-6 -57.5c-3.33301 -27.333 2.66699 -49.5 18 -66.5s37.333 -25.5 66 -25.5h81z"/>
    <glyph glyph-name="A" unicode="A" horiz-adv-x="627" d="M182 274l-79.001 -257c-1.33301 -4.66699 -4.66602 -9.16699 -9.99902 -13.5s-10.666 -6.5 -15.999 -6.5h-12c-11.333 0 -19.166 3.66699 -23.499 11s-4.83301 16 -1.5 26l200 659c5.33301 16 14.166 29.167 26.499 39.5s28.166 15.5 47.499 15.5c18 0 33.333 -5 46 -15 s21.667 -23 27 -39l200 -660c3.33301 -10 3 -18.667 -1 -26s-12 -11 -24 -11h-11c-6.66699 0 -12.5 2 -17.5 6s-8.16699 8.66699 -9.5 14l-80 257h-262zM325.999 677c-1.33301 2.66699 -2.83398 5.33301 -4.50098 8s-4.16699 4 -7.5 4c-4 0 -6.66699 -1 -8 -3 s-2.66602 -4.66699 -3.99902 -8l-103 -342h229z"/>
    <glyph glyph-name="B" unicode="B" horiz-adv-x="590" d="M538 207c0 -45.333 -8.66797 -81.8311 -26.001 -109.498s-39.833 -49.334 -67.5 -65.001s-58.167 -26.167 -91.5 -31.5s-66 -8 -98 -8c-25.333 0 -50.833 0.666992 -76.5 2s-49.167 3.33301 -70.5 6c-18.667 2 -28 11.333 -28 28v685c0 7.33301 2.83301 13.5 8.5 18.5 s12.167 8.16699 19.5 9.5c20 2 43.333 3.5 70 4.5s52.334 1.5 77.001 1.5c34.667 0 68.667 -2.5 102 -7.5s63.166 -14.333 89.499 -28s47.5 -32.5 63.5 -56.5s24 -55.333 24 -94v-11c0 -38.667 -8.5 -71.334 -25.5 -98.001s-41.167 -47.667 -72.5 -63 c32.667 -14 57.834 -34.833 75.501 -62.5s26.5 -62.167 26.5 -103.5v-17zM469.999 562.002c0 27.333 -6.16699 49.5 -18.5 66.5s-28.5 30 -48.5 39s-42.833 15 -68.5 18s-52.167 4.5 -79.5 4.5c-17.333 0 -34.833 -0.5 -52.5 -1.5s-37.167 -1.83301 -58.5 -2.5v-265h166 c32 0 58.333 3.5 79 10.5s37 16.5 49 28.5s20.333 25.833 25 41.5s7 32.167 7 49.5v11zM473.999 224.002c0 17.333 -2.5 34.168 -7.5 50.501s-13.667 30.666 -26 42.999s-29.166 22.333 -50.499 30s-48 11.5 -80 11.5h-166v-303c21.333 -0.666992 40.166 -1.5 56.499 -2.5 s34.5 -1.5 54.5 -1.5c28 0 55 1.83301 81 5.5s49.333 11.167 70 22.5s37.167 27 49.5 47s18.5 46.667 18.5 80v17z"/>
    <glyph glyph-name="C" unicode="C" horiz-adv-x="547" d="M507 30c0 -7.33301 -2.83301 -13.168 -8.5 -17.501s-12.167 -7.16602 -19.5 -8.49902c-15.333 -2 -36.666 -4.16699 -63.999 -6.5s-62.333 -3.5 -105 -3.5c-32 0 -63 5 -93 15s-56.667 27 -80 51s-42 56.167 -56 96.5s-21 90.5 -21 150.5v128c0 60 7 110.167 21 150.5 s32.667 72.5 56 96.5s50 41 80 51s61 15 93 15c42 0 76.5 -1.16699 103.5 -3.5s48.833 -4.5 65.5 -6.5c7.33301 -1.33301 13.833 -4.16602 19.5 -8.49902s8.5 -10.166 8.5 -17.499v-12c0 -10 -2.66699 -16.333 -8 -19s-12.666 -3.33398 -21.999 -2.00098l-33.5 2.5 c-13 1 -27 2 -42 3s-30.333 1.66699 -46 2s-30.834 0.5 -45.501 0.5c-26 0 -50.333 -4.5 -73 -13.5s-42.167 -23.5 -58.5 -43.5s-29.333 -46 -39 -78s-14.5 -71 -14.5 -117v-128c0 -46 4.83301 -85 14.5 -117s22.667 -58 39 -78s35.833 -34.5 58.5 -43.5s47 -13.5 73 -13.5 c14.667 0 30 0.166992 46 0.5s31.5 1 46.5 2s29 1.83301 42 2.5s23.833 1.66699 32.5 3c9.33301 1.33301 16.666 0.666016 21.999 -2.00098s8 -9 8 -19v-12z"/>
    <glyph glyph-name="D" unicode="D" horiz-adv-x="622" d="M562 311c0 -58 -7.33301 -106.999 -22 -146.999s-35 -72.667 -61 -98s-57.167 -43.666 -93.5 -54.999s-75.833 -17 -118.5 -17c-40 0 -73.333 0.666992 -100 2s-47 3.33301 -61 6c-7.33301 1.33301 -13.5 4.66602 -18.5 9.99902s-7.5 11.333 -7.5 18v682 c0 6.66699 2.5 12.667 7.5 18s11.167 8.66602 18.5 9.99902c14 2.66699 34.333 4.66699 61 6s60 2 100 2c42.667 0 82.167 -5.5 118.5 -16.5s67.5 -29 93.5 -54s46.333 -57.667 61 -98s22 -89.833 22 -148.5v-120zM498 431.001c0 50 -5.83398 91.668 -17.501 125.001 s-27.834 59.833 -48.501 79.5s-45.167 33.667 -73.5 42s-58.833 12.5 -91.5 12.5c-24 0 -45.167 -0.333008 -63.5 -1s-37.833 -1.66699 -58.5 -3v-631c34.667 -2 75.334 -3 122.001 -3c32.667 0 63.167 4.16699 91.5 12.5s52.833 22.5 73.5 42.5s36.834 46.667 48.501 80 s17.5 74.666 17.5 123.999v120z"/>
    <glyph glyph-name="E" unicode="E" horiz-adv-x="544" d="M489 26c0 -7.33301 -2.83301 -13.5 -8.5 -18.5s-12.5 -7.5 -20.5 -7.5h-252c-20 0 -38 2 -54 6s-29.5 10.667 -40.5 20s-19.333 21.5 -25 36.5s-8.5 33.833 -8.5 56.5v505c0 44.667 11.333 75.667 34 93s54 26 94 26h252c8 0 14.833 -2.5 20.5 -7.5 s8.5 -11.167 8.5 -18.5v-8c0 -8 -2.83301 -14.167 -8.5 -18.5s-12.5 -6.5 -20.5 -6.5h-252c-20 0 -35.667 -3.5 -47 -10.5s-17 -23.5 -17 -49.5v-204h316c8 0 14.833 -2.33301 20.5 -7s8.5 -11 8.5 -19v-9c0 -8 -2.83301 -14.5 -8.5 -19.5s-12.5 -7.5 -20.5 -7.5h-316v-239 c0 -26 5.66699 -42.5 17 -49.5s27 -10.5 47 -10.5h252c8 0 14.833 -2.16699 20.5 -6.5s8.5 -10.5 8.5 -18.5v-8z"/>
    <glyph glyph-name="F" unicode="F" horiz-adv-x="529" d="M489 385c0 -8 -2.83496 -14.5 -8.50195 -19.5s-12.5 -7.5 -20.5 -7.5h-316v-330c0 -7.33301 -2.66699 -13.833 -8 -19.5s-11.666 -8.5 -18.999 -8.5h-10c-7.33301 -0 -13.666 2.83301 -18.999 8.5s-8 12.167 -8 19.5v596c0 44.667 11.333 75.667 34 93s54 26 94 26h252 c8 0 14.833 -2.5 20.5 -7.5s8.5 -11.167 8.5 -18.5v-8c0 -8 -2.83301 -14.167 -8.5 -18.5s-12.5 -6.5 -20.5 -6.5h-252c-20 0 -35.667 -3.5 -47 -10.5s-17 -23.5 -17 -49.5v-204h316c8 0 14.833 -2.33301 20.5 -7s8.5 -11 8.5 -19v-9z"/>
    <glyph glyph-name="G" unicode="G" horiz-adv-x="598" d="M517 35c0 -7.33301 -2.66504 -13.499 -7.99805 -18.499s-11.333 -8.16699 -18 -9.5c-13.333 -2 -26.5 -3.83301 -39.5 -5.5s-26.333 -3 -40 -4s-28.334 -1.83301 -44.001 -2.5s-32.834 -1 -51.501 -1c-36 0 -69.667 6.16699 -101 18.5s-58.5 31.333 -81.5 57 s-41 58.5 -54 98.5s-19.5 87.667 -19.5 143v120c0 62.667 7.83301 114.5 23.5 155.5s35.667 73.5 60 97.5s51.666 40.667 81.999 50s60.5 14 90.5 14c43.333 0 78.333 -1 105 -3s50.334 -4.33301 71.001 -7c6.66699 -1.33301 12.667 -3.5 18 -6.5s8 -9.16699 8 -18.5v-10 c0 -18.667 -10.667 -26.667 -32 -24c-17.333 2 -32.666 3.5 -45.999 4.5s-26.166 1.83301 -38.499 2.5s-25.333 1.16699 -39 1.5s-29.167 0.5 -46.5 0.5c-23.333 0 -46.333 -3.83301 -69 -11.5s-43 -21.167 -61 -40.5s-32.667 -45.5 -44 -78.5s-17 -75.167 -17 -126.5v-120 c0 -44.667 4.5 -83 13.5 -115s21.667 -58.5 38 -79.5s36.333 -36.5 60 -46.5s50.167 -15 79.5 -15c34 0 62.5 0.666992 85.5 2s40.167 2.66602 51.5 3.99902v302c0 8.66699 2.66699 15.5 8 20.5s11.666 7.5 18.999 7.5h10c7.33301 0 13.666 -2.5 18.999 -7.5 s8 -11.833 8 -20.5v-328z"/>
    <glyph glyph-name="H" unicode="H" horiz-adv-x="656" d="M576 28c0 -7.33301 -2.33301 -13.833 -7 -19.5s-11.334 -8.5 -20.001 -8.5h-9c-8.66699 -0 -15.334 2.83301 -20.001 8.5s-7 12.167 -7 19.5v339h-368v-339c0 -7.33301 -2.66699 -13.833 -8 -19.5s-12 -8.5 -20 -8.5h-9c-8 -0 -14.667 2.83301 -20 8.5s-8 12.167 -8 19.5 v687c0 7.33301 2.66699 13.833 8 19.5s12 8.5 20 8.5h9c8 0 14.667 -2.83301 20 -8.5s8 -12.167 8 -19.5v-288h368v288c0 7.33301 2.33301 13.833 7 19.5s11.334 8.5 20.001 8.5h9c8.66699 0 15.334 -2.83301 20.001 -8.5s7 -12.167 7 -19.5v-687z"/>
    <glyph glyph-name="I" unicode="I" horiz-adv-x="245" d="M155 28c0 -7.33301 -2.66699 -13.833 -8 -19.5s-12 -8.5 -20 -8.5h-9c-8 -0 -14.667 2.83301 -20 8.5s-8 12.167 -8 19.5v687c0 7.33301 2.66699 13.833 8 19.5s12 8.5 20 8.5h9c8 0 14.667 -2.83301 20 -8.5s8 -12.167 8 -19.5v-687z"/>
    <glyph glyph-name="J" unicode="J" horiz-adv-x="241" d="M151 -49c0 -24 -2.49902 -45 -7.49902 -63s-13.333 -32.667 -25 -44s-27.167 -19.833 -46.5 -25.5s-43.333 -8.5 -72 -8.5h-14c-8 0 -15 1.5 -21 4.5s-9 9.16699 -9 18.5v10c0 9.33301 3 15.833 9 19.5s13 5.5 21 5.5h14c18 0 32.5 1.16699 43.5 3.5 s19.833 6.5 26.5 12.5s11.167 14.333 13.5 25s3.5 24.667 3.5 42v764c0 7.33301 2.5 13.833 7.5 19.5s11.5 8.5 19.5 8.5h10c7.33301 0 13.666 -2.83301 18.999 -8.5s8 -12.167 8 -19.5v-764z"/>
    <glyph glyph-name="K" unicode="K" horiz-adv-x="552" d="M512 46c4 -4 6.83203 -8.66699 8.49902 -14s1.83398 -10.5 0.500977 -15.5s-4.33301 -9.33301 -9 -13s-11.334 -5.5 -20.001 -5.5c-4 0 -8.83301 0.833008 -14.5 2.5s-10.5 4.5 -14.5 8.5l-319 331v-312c0 -7.33301 -2.5 -13.833 -7.5 -19.5s-11.5 -8.5 -19.5 -8.5h-10 c-7.33301 -0 -13.666 2.83301 -18.999 8.5s-8 12.167 -8 19.5v687c0 7.33301 3 13.833 9 19.5s12.667 8.5 20 8.5h6c8 0 14.833 -2.83301 20.5 -8.5s8.5 -12.167 8.5 -19.5v-288l313 306c6.66699 6 12.334 9.83301 17.001 11.5s9.66699 2.5 15 2.5 c7.33301 0 13.666 -2.83301 18.999 -8.5s8 -11.5 8 -17.5c0 -4 -0.833008 -8.33301 -2.5 -13s-4.16699 -8.66699 -7.5 -12l-321 -311z"/>
    <glyph glyph-name="L" unicode="L" horiz-adv-x="494" d="M208 0c-20 0 -37.999 2 -53.999 6s-29.5 10.667 -40.5 20s-19.333 21.5 -25 36.5s-8.5 33.833 -8.5 56.5v596c0 7.33301 2.5 13.833 7.5 19.5s11.5 8.5 19.5 8.5h10c7.33301 0 13.666 -2.83301 18.999 -8.5s8 -12.167 8 -19.5v-596c0 -26 5.66699 -42.5 17 -49.5 s27 -10.5 47 -10.5h222c8.66699 0 15.667 -2.16699 21 -6.5s8 -10.5 8 -18.5v-8c0 -7.33301 -2.66699 -13.5 -8 -18.5s-12.333 -7.5 -21 -7.5h-222z"/>
    <glyph glyph-name="M" unicode="M" horiz-adv-x="736" d="M656 28c0 -7.33301 -2.50488 -13.8301 -7.50488 -19.4971s-11.5 -8.5 -19.5 -8.5h-10c-7.33301 0 -13.666 2.83301 -18.999 8.5s-8 12.167 -8 19.5v648l-164 -347c-7.33301 -16 -15.833 -26.667 -25.5 -32s-21.167 -8.33301 -34.5 -9 c-13.333 0 -24.666 2.66699 -33.999 8s-17.666 16.333 -24.999 33l-165 347v-648c0 -7.33301 -2.5 -13.833 -7.5 -19.5s-11.5 -8.5 -19.5 -8.5h-10c-7.33301 0 -13.666 2.83301 -18.999 8.5s-8 12.167 -8 19.5v662c0 19.333 5.16699 33.666 15.5 42.999 s25.166 14.333 44.499 15c14.667 0 26.334 -3.66699 35.001 -11s15.334 -15.666 20.001 -24.999l170 -358l3 -6l3 6l171 358c4 9.33301 10.5 17.666 19.5 24.999s20.5 11 34.5 11h4c17.333 -0.666992 31 -5.83398 41 -15.501s15 -23.834 15 -42.501v-662z"/>
    <glyph glyph-name="N" unicode="N" horiz-adv-x="660" d="M580 54c0 -18.667 -5.33496 -33.333 -16.002 -44s-23.667 -16 -39 -16h-5c-16.667 0 -28.5 3 -35.5 9s-13.5 14.667 -19.5 26l-320 642v-643c0 -7.33301 -2.66699 -13.833 -8 -19.5s-12 -8.5 -20 -8.5h-9c-8 -0 -14.667 2.83301 -20 8.5s-8 12.167 -8 19.5v662 c0 16.667 5 30.167 15 40.5s22.667 16.166 38 17.499h6c16.667 0 28.834 -3.16699 36.501 -9.5s14.167 -15.166 19.5 -26.499l320 -641v644c0 7.33301 2.16699 13.833 6.5 19.5s10.833 8.5 19.5 8.5h12c8.66699 0 15.334 -2.83301 20.001 -8.5s7 -12.167 7 -19.5v-661z"/>
    <glyph glyph-name="O" unicode="O" horiz-adv-x="640" d="M580 311c0 -56 -6.5 -104 -19.5 -144s-31 -72.833 -54 -98.5s-50.333 -44.5 -82 -56.5s-66.5 -18 -104.5 -18s-72.833 6 -104.5 18s-59 30.833 -82 56.5s-41 58.5 -54 98.5s-19.5 88 -19.5 144v120c0 56 6.5 104 19.5 144s31 72.833 54 98.5s50.333 44.5 82 56.5 s66.5 18 104.5 18s72.833 -6 104.5 -18s59 -30.833 82 -56.5s41 -58.5 54 -98.5s19.5 -88 19.5 -144v-120zM516 431c0 48 -5 88.333 -15 121s-23.667 59 -41 79s-38 34.333 -62 43s-50 13 -78 13s-54 -4.33301 -78 -13s-44.667 -23 -62 -43s-31 -46.333 -41 -79 s-15 -73 -15 -121v-120c0 -48 5 -88.333 15 -121s23.667 -59 41 -79s38 -34.333 62 -43s50 -13 78 -13s54 4.33301 78 13s44.667 23 62 43s31 46.333 41 79s15 73 15 121v120z"/>
    <glyph glyph-name="P" unicode="P" horiz-adv-x="550" d="M515 524c0 -40 -6.33398 -73.8311 -19.001 -101.498s-30.667 -50.167 -54 -67.5s-52.166 -29.833 -86.499 -37.5s-72.833 -11.5 -115.5 -11.5c-19.333 0 -36.666 0.166992 -51.999 0.5s-30 1.16602 -44 2.49902v-281c0 -7.33301 -2.5 -13.833 -7.5 -19.5 s-11.5 -8.5 -19.5 -8.5h-10c-7.33301 0 -13.666 2.83301 -18.999 8.5s-8 12.167 -8 19.5v687c0 6.66699 2.66699 12.667 8 18s11.333 8.66602 18 9.99902c17.333 1.33301 38.666 2.5 63.999 3.5s48.666 1.5 69.999 1.5c86 0 153.333 -16.333 202 -49s73 -85.667 73 -159v-16 zM450.999 540.002c0 56.667 -18 95.832 -54 117.499s-88.333 32.5 -157 32.5h-52.5c-14.333 0 -28.833 -0.666992 -43.5 -2v-322c14 -1.33301 30 -2.16602 48 -2.49902s34 -0.5 48 -0.5c72.667 0 126 12.167 160 36.5s51 65.833 51 124.5v16z"/>
    <glyph glyph-name="Q" unicode="Q" horiz-adv-x="640" d="M580 311c0 -52.667 -5.50098 -98.3359 -16.501 -137.003s-26.5 -70.667 -46.5 -96s-44.167 -44.666 -72.5 -57.999s-59.5 -21.333 -93.5 -24v-56c0 -16 0.666992 -28.667 2 -38s4.83301 -16.5 10.5 -21.5s13.834 -8.33301 24.501 -10s25 -2.5 43 -2.5h20 c8.66699 0 15.834 -2 21.501 -6s8.5 -10.667 8.5 -20v-7c0 -8.66699 -2.83301 -15 -8.5 -19s-12.834 -6 -21.501 -6h-20c-24 0 -45 1.33301 -63 4s-33 8.5 -45 17.5s-21 22 -27 39s-9 40.167 -9 69.5v56c-34 2.66699 -65 10.834 -93 24.501s-52 33.334 -72 59.001 s-35.333 57.667 -46 96s-16 83.5 -16 135.5v120c0 56 6.5 104 19.5 144s31 72.833 54 98.5s50.333 44.5 82 56.5s66.5 18 104.5 18s72.833 -6 104.5 -18s59 -30.833 82 -56.5s41 -58.5 54 -98.5s19.5 -88 19.5 -144v-120zM515.999 430.998c0 48 -5 88.333 -15 121 s-23.667 59 -41 79s-38 34.333 -62 43s-50 13 -78 13s-54 -4.33301 -78 -13s-44.667 -23 -62 -43s-31 -46.333 -41 -79s-15 -73 -15 -121v-120c0 -48 5 -88.333 15 -121s23.667 -59 41 -79s38 -34.333 62 -43s50 -13 78 -13s54 4.33301 78 13s44.667 23 62 43 s31 46.333 41 79s15 73 15 121v120z"/>
    <glyph glyph-name="R" unicode="R" horiz-adv-x="607" d="M556 43c5.33301 -10 6.66895 -19.6689 4.00195 -29.002s-10.667 -14 -24 -14h-13c-4 0 -8.33301 1.33301 -13 4s-8 5.66699 -10 9l-204 313h-36h-72c-14 0 -28.333 0.333008 -43 1v-299c0 -7.33301 -2.66699 -13.833 -8 -19.5s-12 -8.5 -20 -8.5h-9 c-8 0 -14.667 2.83301 -20 8.5s-8 12.167 -8 19.5v688c0 6.66699 2.66699 12.834 8 18.501s11.666 8.83398 18.999 9.50098c8.66699 0.666992 19.5 1.33398 32.5 2.00098s26.667 1.16699 41 1.5s28.5 0.5 42.5 0.5h37c45.333 0 85.166 -3.5 119.499 -10.5 s63 -18.833 86 -35.5s40.333 -38.334 52 -65.001s17.5 -59.334 17.5 -98.001v-4c0 -60 -14 -105.667 -42 -137s-70 -52.666 -126 -63.999zM471.003 538.998c0 28.667 -4.49902 52.501 -13.499 71.501s-22.333 34.167 -40 45.5s-39.667 19.333 -66 24s-56.833 7 -91.5 7h-62 c-20.667 0 -38.334 -0.666992 -53.001 -2v-298h115c36 0 67.167 2.16699 93.5 6.5s48.333 12.166 66 23.499s30.667 26.5 39 45.5s12.5 43.167 12.5 72.5v4z"/>
    <glyph glyph-name="S" unicode="S" horiz-adv-x="541" d="M486 190c0 -23.333 -3.16602 -46.6719 -9.49902 -70.0049s-18.166 -44.333 -35.499 -63s-41.333 -33.834 -72 -45.501s-70.667 -17.5 -120 -17.5c-32.667 0 -61 1 -85 3s-43.667 4.33301 -59 7c-11.333 2 -20 5 -26 9s-9 11 -9 21v4c0 12 3.5 19.667 10.5 23 s14.833 4.33301 23.5 3l28.5 -2.5c11 -1 23 -2 36 -3s26.333 -1.83301 40 -2.5s27.167 -1 40.5 -1c34.667 0 63 3.5 85 10.5s39.333 16.667 52 29s21.5 26.666 26.5 42.999s7.5 33.833 7.5 52.5c0 16.667 -2.66699 31 -8 43s-13.833 23.667 -25.5 35s-26.834 23 -45.501 35 l-67 43l-61 38c-22.667 14 -43.667 27.667 -63 41s-36 28 -50 44s-25 33.5 -33 52.5s-12 40.833 -12 65.5c0 32 6.83301 58.333 20.5 79s31.667 37.167 54 49.5s47.833 20.833 76.5 25.5s58 7 88 7c10 0 21.5 -0.333008 34.5 -1l38.5 -2 c12.667 -0.666992 24.667 -1.66699 36 -3s20.666 -2.33301 27.999 -3c13.333 -1.33301 22.5 -4.16602 27.5 -8.49902s7.5 -11.166 7.5 -20.499v-5c0 -11.333 -3.5 -18.666 -10.5 -21.999s-17.5 -4.33301 -31.5 -3c-2 0 -8 0.5 -18 1.5s-21.667 1.83301 -35 2.5l-41.5 2 c-14.333 0.666992 -26.5 1 -36.5 1c-60.667 0 -104.5 -8.5 -131.5 -25.5s-40.5 -41.833 -40.5 -74.5c0 -15.333 2.83301 -29.5 8.5 -42.5s14 -25.333 25 -37s24.333 -23 40 -34s33.167 -22.5 52.5 -34.5l62 -38c28.667 -17.333 54 -33.666 76 -48.999 s40.5 -31.166 55.5 -47.499s26.333 -33.666 34 -51.999s11.5 -39.166 11.5 -62.499z"/>
    <glyph glyph-name="T" unicode="T" horiz-adv-x="579" d="M549 708c0 -8.66699 -2.66797 -14.834 -8.00098 -18.501s-12.333 -5.5 -21 -5.5h-198v-656c0 -7.33301 -2.5 -13.833 -7.5 -19.5s-11.5 -8.5 -19.5 -8.5h-10c-7.33301 0 -13.666 2.83301 -18.999 8.5s-8 12.167 -8 19.5v656h-199c-8 0 -14.833 1.83301 -20.5 5.5 s-8.5 9.83398 -8.5 18.501v9c0 7.33301 2.83301 13.5 8.5 18.5s12.5 7.5 20.5 7.5h461c8.66699 0 15.667 -2.5 21 -7.5s8 -11.167 8 -18.5v-9z"/>
    <glyph glyph-name="U" unicode="U" horiz-adv-x="642" d="M562 267c0 -85.333 -19.332 -152.166 -57.999 -200.499s-99.334 -72.5 -182.001 -72.5c-83.333 0 -144.5 24.167 -183.5 72.5s-58.5 115.166 -58.5 200.499v448c0 7.33301 2.66699 13.833 8 19.5s12 8.5 20 8.5h9c8 0 14.667 -2.83301 20 -8.5s8 -12.167 8 -19.5v-448 c0 -68 13.333 -120.5 40 -157.5s72.334 -55.5 137.001 -55.5c64 0 109.333 18.5 136 55.5s40 89.5 40 157.5v448c0 7.33301 2.66699 13.833 8 19.5s11.666 8.5 18.999 8.5h10c8 0 14.5 -2.83301 19.5 -8.5s7.5 -12.167 7.5 -19.5v-448z"/>
    <glyph glyph-name="V" unicode="V" horiz-adv-x="637" d="M393 49c-5.33301 -18 -14.499 -31.667 -27.499 -41s-28.5 -14 -46.5 -14s-33.5 4.66699 -46.5 14s-22.167 23 -27.5 41l-200 657c-3.33301 9.33301 -2.33301 17.833 3 25.5s13.333 11.5 24 11.5h10c6 0 11.667 -2 17 -6s8.66602 -8.66699 9.99902 -14l198 -656 c1.33301 -5.33301 2.83301 -8.66602 4.5 -9.99902s4.16699 -2 7.5 -2s5.83301 0.666992 7.5 2s3.16699 4.66602 4.5 9.99902l198 655c2 6 5.5 11 10.5 15s10.167 6 15.5 6h11c10.667 0 18.5 -3.83301 23.5 -11.5s5.83301 -16.167 2.5 -25.5z"/>
    <glyph glyph-name="W" unicode="W" horiz-adv-x="791" d="M627 48c-6 -36 -25.6689 -53.999 -59.002 -53.999c-17.333 0 -30 5.16699 -38 15.5s-14 22.166 -18 35.499l-116 367l-116 -367c-4 -13.333 -10 -25.166 -18 -35.499s-21.667 -15.5 -41 -15.5c-30.667 0 -49.334 18 -56.001 54l-120 661 c-1.33301 8.66699 0.333984 16.5 5.00098 23.5s12 10.5 22 10.5h9c6.66699 0 12.834 -2 18.501 -6s9.16699 -9.66699 10.5 -17l114 -646l117 366c5.33301 15.333 12.333 26.5 21 33.5s18.334 10.833 29.001 11.5h5c11.333 0 21.833 -3.33301 31.5 -10 s17.167 -18.334 22.5 -35.001l116 -366l116 646c1.33301 7.33301 4.83301 13 10.5 17s11.5 6 17.5 6h10c10 0 17.167 -3.5 21.5 -10.5s5.83301 -14.833 4.5 -23.5z"/>
    <glyph glyph-name="X" unicode="X" horiz-adv-x="608" d="M563 44c6 -9.33301 6.83203 -18.998 2.49902 -28.998s-13.5 -15 -27.5 -15c-5.33301 0 -11.166 1.16699 -17.499 3.5s-12.833 8.5 -19.5 18.5l-196 302l-198 -300c-5.33301 -8.66699 -10.666 -14.834 -15.999 -18.501s-12 -5.5 -20 -5.5 c-12.667 0 -21.667 4.66699 -27 14s-4.66602 19 2.00098 29l222 337l-211 319c-6.66699 9.33301 -7.66699 19 -3 29s13.667 15 27 15c9.33301 0 16.166 -2 20.499 -6s10.166 -11.333 17.499 -22l185 -280l186 281c6.66699 9.33301 12.167 16.166 16.5 20.499 s11.5 6.5 21.5 6.5c12.667 0 21.5 -5 26.5 -15s4.16699 -20 -2.5 -30l-210 -318z"/>
    <glyph glyph-name="Y" unicode="Y" horiz-adv-x="560" d="M356 363c-7.33301 -16.667 -14.6631 -29.501 -21.9961 -38.501s-14.666 -15.5 -21.999 -19.5v-277c0 -7.33301 -2.66699 -13.833 -8 -19.5s-12 -8.5 -20 -8.5h-9c-8 0 -14.667 2.83301 -20 8.5s-8 12.167 -8 19.5v277c-7.33301 4 -14.833 10.333 -22.5 19 s-15.167 21.667 -22.5 39l-153 340c-4.66699 9.33301 -4.5 18.333 0.5 27s13.167 13 24.5 13h10c10 0 17.667 -6 23 -18l153 -340c5.33301 -12 9.16602 -19.833 11.499 -23.5s4.83301 -5.5 7.5 -5.5c3.33301 0 6.16602 1.83301 8.49902 5.5s6.16602 11.5 11.499 23.5 l153 340c2 4.66699 5.33301 8.83398 10 12.501s9.66699 5.5 15 5.5h10c11.333 0 19.166 -4.16699 23.499 -12.5s4.16602 -17.5 -0.500977 -27.5z"/>
    <glyph glyph-name="Z" unicode="Z" horiz-adv-x="605" d="M545 25c0 -7.33301 -3.16797 -13.332 -9.50098 -17.999s-13.833 -7 -22.5 -7h-381c-42.667 0 -64 17.333 -64 52c0 5.33301 1 11.666 3 18.999s5.33301 14.666 10 21.999l368 591h-348c-7.33301 0 -14.5 1.83301 -21.5 5.5s-10.5 9.83398 -10.5 18.501v10 c0 7.33301 3.5 13.333 10.5 18s14.167 7 21.5 7h352c8 0 16 -0.666992 24 -2s15.167 -3.66602 21.5 -6.99902s11.5 -8.33301 15.5 -15s6 -15 6 -25c0 -8 -1.16699 -15 -3.5 -21s-5.16602 -11.667 -8.49902 -17l-370 -597h375c8.66699 0 16.167 -1.83301 22.5 -5.5 s9.5 -9.83398 9.5 -18.501v-10z"/>
    <glyph glyph-name="bracketleft" unicode="[" horiz-adv-x="313" d="M293 -163c0 -7.33301 -2.83301 -13.333 -8.5 -18s-12.5 -7 -20.5 -7h-147c-7.33301 0 -13.666 2.83301 -18.999 8.5s-8 12.167 -8 19.5v868c0 7.33301 2.66699 13.833 8 19.5s11.666 8.5 18.999 8.5h147c8 0 14.833 -2.5 20.5 -7.5s8.5 -11.167 8.5 -18.5v-8 c0 -8 -2.83301 -14.167 -8.5 -18.5s-12.5 -6.5 -20.5 -6.5h-110v-806h110c8 0 14.833 -2.5 20.5 -7.5s8.5 -11.167 8.5 -18.5v-8z"/>
    <glyph glyph-name="backslash" unicode="\" horiz-adv-x="336" d="M316 15c0 -6 -1.66797 -10.998 -5.00098 -14.998s-8.66602 -6 -15.999 -6h-21c-8 0 -13.667 2.83301 -17 8.5s-6 11.167 -8 16.5l-223 679c-1.33301 4 -2.5 8.16699 -3.5 12.5s-1.5 7.16602 -1.5 8.49902c0 5.33301 1.5 10.166 4.5 14.499s8.5 6.5 16.5 6.5h20 c8 0 13.667 -2.66699 17 -8s6 -11 8 -17l222 -675c4.66699 -12.667 7 -21 7 -25z"/>
    <glyph glyph-name="bracketright" unicode="]" horiz-adv-x="312" d="M222 -160c0 -7.33301 -2.5 -13.833 -7.5 -19.5s-11.5 -8.5 -19.5 -8.5h-146c-8.66699 0 -15.667 2.33301 -21 7s-8 10.667 -8 18v8c0 7.33301 2.66699 13.5 8 18.5s12.333 7.5 21 7.5h110v806h-110c-8.66699 0 -15.667 2.16699 -21 6.5s-8 10.5 -8 18.5v8 c0 7.33301 2.66699 13.5 8 18.5s12.333 7.5 21 7.5h146c8 0 14.5 -2.83301 19.5 -8.5s7.5 -12.167 7.5 -19.5v-868z"/>
    <glyph glyph-name="asciicircum" unicode="^" horiz-adv-x="589" d="M471 558c0 -5.33301 -1.83203 -9.66504 -5.49902 -12.998s-8.83398 -5 -15.501 -5h-17c-8 0 -14 1.83301 -18 5.5s-9.66699 10.167 -17 19.5l-103 123l-103 -123c-8 -9.33301 -14 -15.833 -18 -19.5s-9.66699 -5.5 -17 -5.5h-17c-7.33301 0 -12.833 1.66699 -16.5 5 s-5.5 7.66602 -5.5 12.999s2.33301 11 7 17l113 144c6 7.33301 11 12.666 15 15.999s10.667 5 20 5h44c8.66699 0 15.167 -1.5 19.5 -4.5s9.5 -8.5 15.5 -16.5l112 -144c4.66699 -6 7 -11.667 7 -17z"/>
    <glyph glyph-name="underscore" unicode="_" horiz-adv-x="467" d="M497 -69c0 -9.33301 -3 -15.833 -9 -19.5s-13 -5.5 -21 -5.5h-467c-8.66699 0 -15.834 1.83301 -21.501 5.5s-8.5 10.167 -8.5 19.5v9c0 9.33301 2.83301 15.833 8.5 19.5s12.834 5.5 21.501 5.5h467c8 0 15 -1.83301 21 -5.5s9 -10.167 9 -19.5v-9z"/>
    <glyph glyph-name="grave" unicode="`" horiz-adv-x="345" d="M227 612c0 -10.667 -6.33496 -15.999 -19.002 -15.999h-13c-9.33301 0 -16.666 1.5 -21.999 4.5s-11.666 9.16699 -18.999 18.5l-99 119c-4.66699 4.66699 -7 9.66699 -7 15c0 10.667 7 16 21 16h25c7.33301 0 13 -1.33301 17 -4s8.66699 -7.33398 14 -14.001l97 -123 c3.33301 -4 5 -9.33301 5 -16z"/>
    <glyph glyph-name="a" unicode="a" horiz-adv-x="496" d="M426 29c0 -8 -3.00586 -14.835 -9.00586 -20.502s-13 -8.5 -21 -8.5h-5c-8 0 -15 2.83301 -21 8.5s-9 12.5 -9 20.5v7c-22 -11.333 -46 -21.166 -72 -29.499s-53 -12.5 -81 -12.5c-19.333 0 -38.333 2.66699 -57 8s-35.5 14.166 -50.5 26.499 s-27.167 29.166 -36.5 50.499s-14 48 -14 80v13c0 26.667 4.33301 49.834 13 69.501s22.834 36 42.501 49s45.334 22.833 77.001 29.5s70.5 10 116.5 10h63v25c0 23.333 -1.83301 43.166 -5.5 59.499s-9.66699 29.833 -18 40.5s-19.666 18.334 -33.999 23.001 s-32.166 7 -53.499 7c-14 0 -26.5 -0.166992 -37.5 -0.5s-21.667 -0.833008 -32 -1.5s-20.833 -1.5 -31.5 -2.5s-22.334 -2.5 -35.001 -4.5c-7.33301 -1.33301 -14.666 -0.666016 -21.999 2.00098s-11 10 -11 22v6c0 10 2.5 16.667 7.5 20s12.833 5.66602 23.5 6.99902 c20.667 2.66699 40.834 4.83398 60.501 6.50098s45.5 2.5 77.5 2.5c34.667 0 63.334 -4.66699 86.001 -14s40.5 -22.166 53.5 -38.499s22.167 -36 27.5 -59s8 -48.167 8 -75.5v-326zM361.994 272.998l-62.9961 0.000976562c-34.667 0 -63.834 -1.66699 -87.501 -5 s-42.834 -9 -57.501 -17s-25.167 -18.5 -31.5 -31.5s-9.5 -28.833 -9.5 -47.5v-13c0 -20.667 2.5 -37.834 7.5 -51.501s11.833 -24.667 20.5 -33s18.667 -14.333 30 -18s23.666 -5.5 36.999 -5.5c24.667 0 49.167 3.83301 73.5 11.5s51.166 18.5 80.499 32.5v178z"/>
    <glyph glyph-name="b" unicode="b" horiz-adv-x="511" d="M456 238c0 -36 -3.83301 -69 -11.5 -99s-19.5 -55.667 -35.5 -77s-36.667 -38 -62 -50s-55.333 -18 -90 -18c-28.667 0 -58 2 -88 6s-55.667 8.33301 -77 13c-9.33301 2 -15.333 4.83301 -18 8.5s-4 9.83398 -4 18.501v668c0 7.33301 2.5 13.833 7.5 19.5 s11.5 8.5 19.5 8.5h9c8 0 14.5 -2.83301 19.5 -8.5s7.5 -12.167 7.5 -19.5v-178c19.333 3.33301 40.5 6.16602 63.5 8.49902s43.167 3.5 60.5 3.5c132.667 0 199 -80 199 -240v-64zM392 302c0 60.667 -10.168 106.333 -30.501 137s-55.166 46 -104.499 46 c-17.333 0 -37.666 -1 -60.999 -3s-44.333 -4.66699 -63 -8v-412c17.333 -3.33301 37.166 -6 59.499 -8s43.833 -3 64.5 -3c50 0 85 16.333 105 49s30 78.667 30 138v64z"/>
    <glyph glyph-name="c" unicode="c" horiz-adv-x="446" d="M402 30c0 -8.66699 -1.66699 -14.9932 -5 -18.9932s-10.666 -6.66699 -21.999 -8c-20.667 -2.66699 -41.5 -4.83398 -62.5 -6.50098s-39.5 -2.5 -55.5 -2.5c-36.667 0 -67.834 6.5 -93.501 19.5s-46.5 30.667 -62.5 53s-27.667 48.166 -35 77.499s-11 60.333 -11 93v65 c0 33.333 3.66699 64.666 11 93.999s19 54.833 35 76.5s36.833 38.667 62.5 51s56.834 18.5 93.501 18.5c16 0 34.5 -0.833008 55.5 -2.5s41.833 -3.83398 62.5 -6.50098c11.333 -1.33301 18.666 -4 21.999 -8s5 -10.333 5 -19v-7c0 -8.66699 -3 -15 -9 -19 s-13.333 -5.33301 -22 -4c-23.333 3.33301 -44.333 5.66602 -63 6.99902s-35.667 2 -51 2c-25.333 0 -46.833 -4.33301 -64.5 -13s-32 -21 -43 -37s-18.833 -35.167 -23.5 -57.5s-7 -47.5 -7 -75.5v-65c0 -28 2.33301 -53.333 7 -76s12.5 -42.167 23.5 -58.5 s25.333 -29 43 -38s39.167 -13.5 64.5 -13.5c15.333 0 32.333 0.666992 51 2s39.667 3.66602 63 6.99902c8.66699 1.33301 16 0.166016 22 -3.50098s9 -10.167 9 -19.5v-7z"/>
    <glyph glyph-name="d" unicode="d" horiz-adv-x="511" d="M441 40c0 -8.66699 -1.49902 -14.833 -4.49902 -18.5s-9.16699 -6.5 -18.5 -8.5c-21.333 -4.66699 -46.833 -9 -76.5 -13s-58.834 -6 -87.501 -6c-35.333 0 -65.5 6 -90.5 18s-45.5 28.667 -61.5 50s-27.833 47 -35.5 77s-11.5 63 -11.5 99v64c0 160 66.333 240 199 240 c18 0 38.333 -1 61 -3s43.667 -5 63 -9v178c0 7.33301 2.5 13.833 7.5 19.5s11.5 8.5 19.5 8.5h9c8 0 14.5 -2.83301 19.5 -8.5s7.5 -12.167 7.5 -19.5v-668zM378.001 474.001c-18.667 3.33301 -39.8311 6.00098 -63.498 8.00098s-43.834 3 -60.501 3 c-49.333 0 -84.333 -15.333 -105 -46s-31 -76.334 -31 -137.001v-64c0 -59.333 10.167 -105.333 30.5 -138s55.5 -49 105.5 -49c20.667 0 42.167 1 64.5 3s42.166 4.66699 59.499 8v412z"/>
    <glyph glyph-name="e" unicode="e" horiz-adv-x="518" d="M463 277c0 -8.66699 -3.00293 -15.501 -9.00293 -20.501s-12.667 -7.5 -20 -7.5h-315v-11c0 -38.667 4.33301 -70.167 13 -94.5s20.334 -43.333 35.001 -57s32 -23 52 -28s41.333 -7.5 64 -7.5c20.667 0 43.334 1.5 68.001 4.5s48.667 6.83301 72 11.5 c8 1.33301 15.5 0.833008 22.5 -1.5s10.5 -9.16602 10.5 -20.499v-6c0 -14.667 -9 -24 -27 -28c-23.333 -5.33301 -48.166 -9.5 -74.499 -12.5s-50.166 -4.5 -71.499 -4.5c-31.333 0 -60.833 3.83301 -88.5 11.5s-51.834 20.834 -72.501 39.501s-37 43.667 -49 75 s-18 70.666 -18 117.999v64c0 34.667 4.33301 66.667 13 96s21.667 54.666 39 75.999s38.833 38 64.5 50s55.167 18 88.5 18c35.333 0 65.833 -5.83301 91.5 -17.5s46.667 -28 63 -49s28.5 -46.167 36.5 -75.5s12 -61.666 12 -96.999v-26zM259.997 484.999 c-24.667 0 -45.8311 -4.33008 -63.498 -12.9971s-32.167 -20.834 -43.5 -36.501s-19.833 -34.334 -25.5 -56.001s-8.5 -45.834 -8.5 -72.501h280c-0.666992 56.667 -11.334 100.5 -32.001 131.5s-56.334 46.5 -107.001 46.5z"/>
    <glyph glyph-name="f" unicode="f" horiz-adv-x="388" d="M353 706c0 -15.333 -10.334 -23.001 -31.001 -23.001h-48c-19.333 0 -33.5 -4.66699 -42.5 -14s-13.5 -26.666 -13.5 -51.999v-80h104c8 0 14.833 -2.33301 20.5 -7s8.5 -10.667 8.5 -18v-9c0 -7.33301 -2.83301 -13.333 -8.5 -18s-12.5 -7 -20.5 -7h-104v-450 c0 -7.33301 -2.83301 -13.833 -8.5 -19.5s-12.167 -8.5 -19.5 -8.5h-7c-8 -0 -14.833 2.83301 -20.5 8.5s-8.5 12.167 -8.5 19.5v450h-85c-8 0 -14.833 2.33301 -20.5 7s-8.5 10.667 -8.5 18v9c0 7.33301 2.83301 13.333 8.5 18s12.5 7 20.5 7h85v80 c0 45.333 10.5 77.166 31.5 95.499s50.5 27.5 88.5 27.5c14.667 0 25.5 -0.166992 32.5 -0.5s13.5 -1.16602 19.5 -2.49902c10.667 -2 17.834 -4.83301 21.501 -8.5s5.5 -9.16699 5.5 -16.5v-6z"/>
    <glyph glyph-name="g" unicode="g" horiz-adv-x="540" d="M269 192c-25.333 0 -46.833 1.66895 -64.5 5.00195s-35.167 8.66602 -52.5 15.999c-14.667 -6.66699 -22 -17 -22 -31c0 -9.33301 6.66699 -16 20 -20l173 -45c26 -6.66699 49 -13.667 69 -21s37 -16.166 51 -26.499s24.5 -23 31.5 -38s10.5 -33.833 10.5 -56.5v-7 c0 -23.333 -3.66699 -44.666 -11 -63.999s-19.5 -36 -36.5 -50s-39.167 -25 -66.5 -33s-61 -12 -101 -12c-39.333 0 -72.5 4 -99.5 12s-49.167 19 -66.5 33s-29.833 30.667 -37.5 50s-11.5 40.666 -11.5 63.999v9c0 30 6.33301 56.667 19 80s26.667 41.666 42 54.999 c-16.667 7.33301 -28.5 17 -35.5 29s-10.5 25.667 -10.5 41c0 11.333 2.5 22.833 7.5 34.5s13.833 21.5 26.5 29.5c-13.333 13.333 -24 29.666 -32 48.999s-12 40.666 -12 63.999v7c0 20 2.83301 40 8.5 60s16.167 38.333 31.5 55s36.5 30.167 63.5 40.5 s62.167 15.5 105.5 15.5h197c7.33301 0 14 -2.33301 20 -7s9 -10.667 9 -18v-11c0 -8.66699 -3 -15 -9 -19s-12.667 -6 -20 -6h-25c9.33301 -10 18 -24 26 -42s12 -40.667 12 -68v-7c0 -23.333 -3.5 -45.166 -10.5 -65.499s-18.667 -38 -35 -53s-37.833 -26.833 -64.5 -35.5 s-60 -13 -100 -13zM417 366.002c0 16 -2.16699 31.002 -6.5 45.002s-12.166 26.167 -23.499 36.5s-26.5 18.5 -45.5 24.5s-43.167 9 -72.5 9c-31.333 0 -56.333 -3.33301 -75 -10s-33.334 -15.334 -44.001 -26.001s-17.667 -23 -21 -37s-5 -28 -5 -42v-7 c0 -11.333 1.83301 -23.5 5.5 -36.5s10.667 -25 21 -36s25 -20.167 44 -27.5s43.833 -11 74.5 -11c30 0 54.5 3 73.5 9s34 14 45 24s18.667 21.667 23 35s6.5 27.666 6.5 42.999v7zM422 -24.9961c0 12 -1.66504 22 -4.99805 30s-9.33301 15.167 -18 21.5 s-20.334 12.166 -35.001 17.499s-33.334 11 -56.001 17l-129 33c-19.333 -13.333 -34.333 -28.666 -45 -45.999s-16 -41 -16 -71v-9c0 -16 2.5 -30.333 7.5 -43s13.5 -23.5 25.5 -32.5s27.667 -16 47 -21s43.333 -7.5 72 -7.5c30 0 54.833 2.33301 74.5 7 s35.167 11.5 46.5 20.5s19.333 20 24 33s7 27.5 7 43.5v7z"/>
    <glyph glyph-name="h" unicode="h" horiz-adv-x="513" d="M448 22c0 -7.33301 -2.16699 -13.833 -6.5 -19.5s-11.166 -8.5 -20.499 -8.5h-9c-8.66699 0 -15.167 2.83301 -19.5 8.5s-6.5 12.167 -6.5 19.5v325c0 44.667 -10 78.834 -30 102.501s-54 35.5 -102 35.5c-18.667 0 -38.834 -1.33301 -60.501 -4 s-41.5 -6.66699 -59.5 -12v-447c0 -7.33301 -2.5 -13.833 -7.5 -19.5s-11.5 -8.5 -19.5 -8.5h-10c-7.33301 0 -13.666 2.83301 -18.999 8.5s-8 12.167 -8 19.5v686c0 7.33301 2.66699 13.833 8 19.5s11.666 8.5 18.999 8.5h10c8 0 14.5 -2.83301 19.5 -8.5 s7.5 -12.167 7.5 -19.5v-180c38.667 9.33301 78.667 14 120 14c35.333 0 65.333 -4.83301 90 -14.5s44.667 -23.167 60 -40.5s26.5 -37.833 33.5 -61.5s10.5 -49.834 10.5 -78.501v-325z"/>
    <glyph glyph-name="i" unicode="i" horiz-adv-x="224" d="M144 641c0 -8 -3 -14.667 -9 -20s-12.667 -8 -20 -8h-6c-7.33301 0 -14 2.66699 -20 8s-9 12 -9 20v71c0 7.33301 3 13.833 9 19.5s12.667 8.5 20 8.5h6c7.33301 0 14 -2.83301 20 -8.5s9 -12.167 9 -19.5v-71zM144 22c0 -7.33301 -3 -13.833 -9 -19.5 s-12.667 -8.5 -20 -8.5h-6c-7.33301 0 -14 2.83301 -20 8.5s-9 12.167 -9 19.5v487c0 7.33301 3 13.833 9 19.5s12.667 8.5 20 8.5h6c7.33301 0 14 -2.83301 20 -8.5s9 -12.167 9 -19.5v-487z"/>
    <glyph glyph-name="j" unicode="j" horiz-adv-x="219" d="M139 641c0 -8 -3 -14.667 -9 -20s-12.667 -8 -20 -8h-6c-7.33301 0 -14 2.66699 -20 8s-9 12 -9 20v71c0 7.33301 3 13.833 9 19.5s12.667 8.5 20 8.5h6c7.33301 0 14 -2.83301 20 -8.5s9 -12.167 9 -19.5v-71zM139 -73c0 -22.667 -2.33301 -41.498 -7 -56.498 s-11.667 -26.833 -21 -35.5s-20.833 -14.667 -34.5 -18s-29.5 -5 -47.5 -5c-9.33301 0 -16.833 0.166992 -22.5 0.5s-12.167 1.16602 -19.5 2.49902c-10.667 1.33301 -17.5 4 -20.5 8s-4.5 9 -4.5 15v9c0 7.33301 2.16699 12.666 6.5 15.999s12.166 5 23.499 5h37 c8.66699 0 16 0.666992 22 2s10.667 4.16602 14 8.49902s5.83301 10.333 7.5 18s2.5 17.834 2.5 30.501v582c0 7.33301 2.33301 13.833 7 19.5s11 8.5 19 8.5h11c8.66699 0 15.334 -2.83301 20.001 -8.5s7 -12.167 7 -19.5v-582z"/>
    <glyph glyph-name="k" unicode="k" horiz-adv-x="453" d="M405 40c8.66699 -9.33301 11.1689 -19.334 7.50195 -30.001s-12.834 -16 -27.501 -16h-3c-12.667 0 -23.667 5 -33 15l-215 229v-216c0 -7.33301 -3 -13.833 -9 -19.5s-12.667 -8.5 -20 -8.5h-6c-7.33301 0 -14 2.83301 -20 8.5s-9 12.167 -9 19.5v686 c0 7.33301 3 13.833 9 19.5s12.667 8.5 20 8.5h6c7.33301 0 14 -2.83301 20 -8.5s9 -12.167 9 -19.5v-383l109.5 102.5l110.5 102.5c3.33301 3.33301 7.16602 6.16602 11.499 8.49902s9.5 3.5 15.5 3.5c8.66699 0 15.5 -2 20.5 -6s8.16699 -8.66699 9.5 -14 s1.33301 -10.666 0 -15.999s-4 -9.66602 -8 -12.999l-229 -209z"/>
    <glyph glyph-name="l" unicode="l" horiz-adv-x="224" d="M144 22c0 -7.33301 -2.66699 -13.833 -8 -19.5s-11.666 -8.5 -18.999 -8.5h-10c-7.33301 0 -13.666 2.83301 -18.999 8.5s-8 12.167 -8 19.5v686c0 7.33301 2.66699 13.833 8 19.5s11.666 8.5 18.999 8.5h10c7.33301 0 13.666 -2.83301 18.999 -8.5s8 -12.167 8 -19.5 v-686z"/>
    <glyph glyph-name="m" unicode="m" horiz-adv-x="745" d="M675 28c0 -7.33301 -2.33105 -13.8359 -6.99805 -19.5029s-11.334 -8.5 -20.001 -8.5h-10c-8.66699 0 -15.334 2.83301 -20.001 8.5s-7 12.167 -7 19.5v345c0 42 -9 71.167 -27 87.5s-43 24.5 -75 24.5c-18.667 0 -38.167 -2.66699 -58.5 -8s-39.5 -12 -57.5 -20 c7.33301 -21.333 11 -48 11 -80v-349c0 -7.33301 -1.83301 -13.833 -5.5 -19.5s-10.167 -8.5 -19.5 -8.5h-14c-9.33301 0 -15.833 2.83301 -19.5 8.5s-5.5 12.167 -5.5 19.5v349c0 20.667 -2 37.834 -6 51.501s-9.5 24.667 -16.5 33s-15.5 14.333 -25.5 18 s-20.667 5.5 -32 5.5c-19.333 0 -40 -3.66699 -62 -11s-43.667 -16 -65 -26v-420c0 -7.33301 -2 -13.833 -6 -19.5s-10.333 -8.5 -19 -8.5h-13c-8.66699 0 -15 2.83301 -19 8.5s-6 12.167 -6 19.5v480c0 7.33301 2.33301 14 7 20s11.667 9 21 9h7c9.33301 0 16.333 -3 21 -9 s7 -12.667 7 -20v-1c20 8.66699 41.667 16.667 65 24s47 11 71 11c17.333 0 34 -2.66699 50 -8s30.667 -15 44 -29c24 11.333 49 20.333 75 27s52 10 78 10c22 0 42.5 -3.16699 61.5 -9.5s35.833 -16.166 50.5 -29.499s26.167 -30.666 34.5 -51.999s12.5 -47.333 12.5 -78 v-345z"/>
    <glyph glyph-name="n" unicode="n" d="M458 28c0 -7.33301 -2.66797 -13.8359 -8.00098 -19.5029s-12.333 -8.5 -21 -8.5h-7c-7.33301 0 -13.833 2.83301 -19.5 8.5s-8.5 12.167 -8.5 19.5v320c0 25.333 -3.16699 46.833 -9.5 64.5s-14.833 31.834 -25.5 42.501s-23.167 18.334 -37.5 23.001s-29.833 7 -46.5 7 c-23.333 0 -47 -3.16699 -71 -9.5s-47.667 -15.166 -71 -26.499v-421c0 -7.33301 -2.83301 -13.833 -8.5 -19.5s-12.5 -8.5 -20.5 -8.5h-6c-7.33301 -0 -13.833 2.83301 -19.5 8.5s-8.5 12.167 -8.5 19.5v480c0 7.33301 2.33301 14 7 20s11.667 9 21 9h7 c9.33301 0 16.333 -3 21 -9s7 -12.667 7 -20c23.333 10.667 47.5 19 72.5 25s49.167 9 72.5 9c24.667 0 47.834 -3.5 69.501 -10.5s40.667 -18.167 57 -33.5s29.333 -35.333 39 -60s14.5 -54.667 14.5 -90v-320z"/>
    <glyph glyph-name="o" unicode="o" d="M473 234c0 -76 -17.333 -135 -52 -177s-87 -63 -157 -63s-122.333 21 -157 63s-52 101 -52 177v68c0 76 17.333 135 52 177s87 63 157 63s122.333 -21 157 -63s52 -101 52 -177v-68zM410 302c0 56.667 -11.167 101.334 -33.5 134.001s-59.833 49 -112.5 49 s-90 -16.333 -112 -49s-33 -77.334 -33 -134.001v-68c0 -56.667 11 -101.334 33 -134.001s59.333 -49 112 -49s90.167 16.333 112.5 49s33.5 77.334 33.5 134.001v68z"/>
    <glyph glyph-name="p" unicode="p" horiz-adv-x="511" d="M456 234c0 -160 -66.334 -240.001 -199.001 -240.001c-18.667 0 -39.167 1 -61.5 3s-43.166 5 -62.499 9v-166c0 -7.33301 -2.5 -13.833 -7.5 -19.5s-11.5 -8.5 -19.5 -8.5h-9c-8 0 -14.5 2.83301 -19.5 8.5s-7.5 12.167 -7.5 19.5v656 c0 8.66699 1.33301 14.834 4 18.501s8.66699 6.5 18 8.5c21.333 4.66699 47 9 77 13s59.333 6 88 6c34.667 0 64.667 -6 90 -18s46 -28.667 62 -50s27.833 -47 35.5 -77s11.5 -63 11.5 -99v-64zM391.999 297.999c0 59.333 -10.002 105.332 -30.002 137.999s-55 49 -105 49 c-20.667 0 -42.167 -1 -64.5 -3s-42.166 -4.66699 -59.499 -8v-412c18.667 -3.33301 39.834 -6 63.501 -8s43.834 -3 60.501 -3c49.333 0 84.166 15.333 104.499 46s30.5 76.334 30.5 137.001v64z"/>
    <glyph glyph-name="q" unicode="q" horiz-adv-x="511" d="M441 -160c0 -7.33301 -2.50098 -13.833 -7.50098 -19.5s-11.5 -8.5 -19.5 -8.5h-9c-8 0 -14.5 2.83301 -19.5 8.5s-7.5 12.167 -7.5 19.5v166c-19.333 -3.33301 -40.5 -6.16602 -63.5 -8.49902s-43.167 -3.5 -60.5 -3.5c-132.667 0 -199 80 -199 240v64 c0 36 3.83301 69 11.5 99s19.5 55.667 35.5 77s36.5 38 61.5 50s55.167 18 90.5 18c28.667 0 57.834 -2 87.501 -6s55.167 -8.33301 76.5 -13c9.33301 -2 15.5 -4.83301 18.5 -8.5s4.5 -9.83398 4.5 -18.501v-656zM377.999 474 c-17.333 3.33301 -37.166 6.00098 -59.499 8.00098s-43.833 3 -64.5 3c-50 0 -85.167 -16.333 -105.5 -49s-30.5 -78.667 -30.5 -138v-64c0 -60.667 10.333 -106.334 31 -137.001s55.667 -46 105 -46c17.333 0 37.666 1 60.999 3s44.333 4.66699 63 8v412z"/>
    <glyph glyph-name="r" unicode="r" horiz-adv-x="323" d="M294 510c0 -10 -3.33301 -16.6699 -10 -20.0029s-15.667 -5 -27 -5c-16.667 0 -35 -2.66699 -55 -8s-42.667 -15.666 -68 -30.999v-418c0 -7.33301 -3 -13.833 -9 -19.5s-12.667 -8.5 -20 -8.5h-6c-7.33301 0 -14 2.83301 -20 8.5s-9 12.167 -9 19.5v480 c0 7.33301 2.5 14 7.5 20s11.833 9 20.5 9h8c8.66699 0 15.5 -3 20.5 -9s7.5 -12.667 7.5 -20v-2c21.333 12.667 41.833 21.834 61.5 27.501s40.167 8.5 61.5 8.5c11.333 0 20.333 -1.66699 27 -5s10 -9.66602 10 -18.999v-8z"/>
    <glyph glyph-name="s" unicode="s" horiz-adv-x="449" d="M399 138c0 -28 -4.8291 -51.1689 -14.4961 -69.502s-22.5 -33 -38.5 -44s-34.833 -18.833 -56.5 -23.5s-44.5 -7 -68.5 -7c-11.333 0 -23.333 0.333008 -36 1s-25.5 1.66699 -38.5 3s-25.333 2.83301 -37 4.5s-21.834 3.5 -30.501 5.5c-9.33301 2 -16.5 4.33301 -21.5 7 s-7.5 8.66699 -7.5 18v10c0 10 3.16699 16.833 9.5 20.5s14.166 4.83398 23.499 3.50098l73 -10.5c25.333 -3.66699 47.666 -5.5 66.999 -5.5c16 0 30.833 1.16699 44.5 3.5s25.5 6.5 35.5 12.5s17.833 14.333 23.5 25s8.5 24.334 8.5 41.001c0 10 -1.5 18.833 -4.5 26.5 s-8 15.334 -15 23.001s-16.833 15.5 -29.5 23.5s-28.334 17.333 -47.001 28l-62 34c-19.333 10 -36.5 20 -51.5 30s-27.833 20.667 -38.5 32s-18.834 23.666 -24.501 36.999s-8.5 29 -8.5 47c0 24 4.5 44.167 13.5 60.5s20.833 29.5 35.5 39.5s31.5 17.167 50.5 21.5 s38.5 6.5 58.5 6.5c32 0 58.333 -0.833008 79 -2.5s38.667 -3.5 54 -5.5c10 -1.33301 18.5 -3.5 25.5 -6.5s10.5 -9.83301 10.5 -20.5v-8c0 -11.333 -4 -18.666 -12 -21.999s-18.667 -4 -32 -2c-14 2 -32 4.16699 -54 6.5s-44.333 3.5 -67 3.5c-14 0 -27 -0.833008 -39 -2.5 s-22.333 -4.83398 -31 -9.50098s-15.5 -11.334 -20.5 -20.001s-7.5 -19.667 -7.5 -33c0 -22 7.66699 -40 23 -54s37 -28.667 65 -44l64 -36c20.667 -11.333 39.167 -22.333 55.5 -33s29.833 -21.667 40.5 -33s18.834 -23.666 24.501 -36.999s8.5 -28.333 8.5 -45z"/>
    <glyph glyph-name="t" unicode="t" horiz-adv-x="391" d="M351 22c0 -6 -1.66895 -11.334 -5.00195 -16.001s-10.333 -7.66699 -21 -9c-15.333 -2 -32.333 -3 -51 -3c-19.333 0 -36.333 1.66699 -51 5s-27.167 9.33301 -37.5 18s-18.166 20.334 -23.499 35.001s-8 33.334 -8 56.001v370h-85c-8 0 -14.833 2.33301 -20.5 7 s-8.5 10.667 -8.5 18v10c0 8 2.83301 14 8.5 18s12.5 6 20.5 6h85v90c0 7.33301 2.33301 13.833 7 19.5s11.334 8.5 20.001 8.5h11c8 0 14.333 -2.83301 19 -8.5s7 -12.167 7 -19.5v-90h104c8 0 14.833 -2 20.5 -6s8.5 -10 8.5 -18v-10 c0 -7.33301 -2.83301 -13.333 -8.5 -18s-12.5 -7 -20.5 -7h-104v-370c0 -24.667 4.83301 -40.334 14.5 -47.001s23.5 -10 41.5 -10h46c20.667 0 31 -7.66699 31 -23v-6z"/>
    <glyph glyph-name="u" unicode="u" d="M458 29c0 -8 -2.50293 -14.832 -7.50293 -20.499s-11.833 -8.5 -20.5 -8.5h-8c-8.66699 0 -15.5 2.66699 -20.5 8s-7.5 12 -7.5 20c-23.333 -10 -47.333 -18 -72 -24s-48.667 -9 -72 -9c-24.667 0 -48 3.5 -70 10.5s-41.167 18.333 -57.5 34s-29.166 35.667 -38.499 60 s-14 54.166 -14 89.499v320c0 7.33301 2.66699 13.833 8 19.5s12 8.5 20 8.5h7c8 0 14.667 -2.83301 20 -8.5s8 -12.167 8 -19.5v-320c0 -26 3.16699 -47.667 9.5 -65s14.833 -31.333 25.5 -42s23.334 -18.334 38.001 -23.001s30.334 -7 47.001 -7 c22.667 0 46.167 3.33301 70.5 10s47.833 15.334 70.5 26.001v421c0 7.33301 3 13.833 9 19.5s12.667 8.5 20 8.5h6c8 0 14.833 -2.83301 20.5 -8.5s8.5 -12.167 8.5 -19.5v-480z"/>
    <glyph glyph-name="v" unicode="v" horiz-adv-x="488" d="M321 62c-8 -27.333 -18.668 -45.5 -32.001 -54.5s-28 -13.5 -44 -13.5s-31 4.5 -45 13.5s-25 27.167 -33 54.5l-127 438c-3.33301 10 -2.66602 18.667 2.00098 26s12.334 11 23.001 11h10c6 0 11.5 -1.66699 16.5 -5s8.83301 -9.66602 11.5 -18.999l123 -435 c5.33301 -18.667 11.666 -28 18.999 -28c3.33301 0 6 2 8 6s4.66699 11.333 8 22l123 435c2.66699 9.33301 6.66699 15.666 12 18.999s10.666 5 15.999 5h12c11.333 0 18.833 -3.5 22.5 -10.5s3.83398 -15.833 0.500977 -26.5z"/>
    <glyph glyph-name="w" unicode="w" horiz-adv-x="750" d="M374 408l-97.9961 -352c-5.33301 -19.333 -12 -34.5 -20 -45.5s-21.333 -16.5 -40 -16.5c-18 0 -31.333 4.66699 -40 14s-15.667 24.666 -21 45.999l-106 448c-2 8.66699 -1.16699 16.667 2.5 24s12.167 11 25.5 11h6c10 0 16.5 -2.16699 19.5 -6.5 s5.16699 -9.16602 6.5 -14.499l104 -449c1.33301 -4 2 -7 2 -9l3 9l104 373c4 14 11 24.333 21 31s20.667 10 32 10s21.666 -3.16699 30.999 -9.5s16 -16.833 20 -31.5l104 -373c0.666992 -2.66699 1.66699 -6 3 -10c0.666992 1.33301 1 3 1 5s0.333008 3.66699 1 5l104 449 c1.33301 5.33301 3.66602 10.166 6.99902 14.499s9.66602 6.5 18.999 6.5h6c12.667 0 21.167 -3.16699 25.5 -9.5s5.16602 -14.833 2.49902 -25.5l-106 -448c-5.33301 -21.333 -12.166 -36.666 -20.499 -45.999s-21.833 -14 -40.5 -14s-31.834 5.5 -39.501 16.5 s-14.167 26.167 -19.5 45.5z"/>
    <glyph glyph-name="x" unicode="x" horiz-adv-x="500" d="M462 23c0 -5.33301 -1.83203 -10.5039 -5.49902 -15.5039s-9.83398 -7.5 -18.501 -7.5h-8c-12.667 0 -21.667 4 -27 12l-151 211l-149 -211c-2.66699 -3.33301 -5.5 -6.16602 -8.5 -8.49902s-6.5 -3.5 -10.5 -3.5h-11c-11.333 0 -19.166 1.83301 -23.499 5.5 s-6.5 7.83398 -6.5 12.501s0.833008 8.83398 2.5 12.501s3.16699 6.83398 4.5 9.50098l166 235l-80 111.5l-80 111.5c-3.33301 4.66699 -5 10 -5 16c0 5.33301 2.16699 10.5 6.5 15.5s11.5 7.5 21.5 7.5s17.833 -1.83301 23.5 -5.5s12.167 -10.834 19.5 -21.501l132 -185 l128 183c8 11.333 14.667 19 20 23s12.666 6 21.999 6s16.333 -2.16699 21 -6.5s7 -9.5 7 -15.5c0 -7.33301 -2.33301 -14.333 -7 -21l-155 -221l161 -225c4.66699 -6.66699 7.66699 -11.667 9 -15s2 -6.66602 2 -9.99902z"/>
    <glyph glyph-name="y" unicode="y" horiz-adv-x="494" d="M295 -47c-8 -27.333 -16.668 -50.001 -26.001 -68.001s-20.5 -32.333 -33.5 -43s-28.167 -18.334 -45.5 -23.001s-38 -7 -62 -7c-12 0 -23 0.666992 -33 2l-29 4c-8 1.33301 -14.667 3.5 -20 6.5s-8 8.5 -8 16.5v11c0 9.33301 2.33301 15.833 7 19.5 s13 4.83398 25 3.50098c7.33301 -1.33301 17.666 -2.66602 30.999 -3.99902s23.666 -2 30.999 -2c16 0 29.333 1.5 40 4.5s19.834 8.16699 27.501 15.5s14.334 17.333 20.001 30s11.167 28.667 16.5 48l9 33c-17.333 0 -31.333 4.16699 -42 12.5s-19.667 24.5 -27 48.5 l-130 440c-3.33301 10 -3 18.5 1 25.5s12.333 10.5 25 10.5h9c8.66699 0 14.834 -2.16699 18.501 -6.5s6.16699 -8.83301 7.5 -13.5l130 -444c2 -6.66699 4 -10.667 6 -12s4 -2 6 -2h13l130 459c1.33301 5.33301 3.83301 9.83301 7.5 13.5s10.5 5.5 20.5 5.5h9 c13.333 0 21.5 -3.66699 24.5 -11s2.83301 -16 -0.5 -26z"/>
    <glyph glyph-name="z" unicode="z" horiz-adv-x="454" d="M414 25c0 -7.33301 -2.83105 -13.334 -8.49805 -18.001s-12.834 -7 -21.501 -7h-276c-23.333 0 -40.333 4.33301 -51 13s-16.334 20.667 -17.001 36c0 8 1.33301 15.833 4 23.5s7.66699 16.167 15 25.5l285 380h-257c-8 0 -15 2 -21 6s-9 10 -9 18v10 c0 7.33301 3 13.333 9 18s13 7 21 7h253c19.333 0 35.166 -3.66699 47.499 -11s18.5 -20.666 18.5 -39.999c0 -7.33301 -1 -14.833 -3 -22.5s-6.66699 -16.5 -14 -26.5l-282 -378h277c8.66699 0 15.834 -2 21.501 -6s8.5 -10 8.5 -18v-10z"/>
    <glyph glyph-name="braceleft" unicode="{" horiz-adv-x="312" d="M292 -162c0 -7.33301 -2.66699 -13.5 -8 -18.5s-12.333 -7.5 -21 -7.5h-44c-24 0 -44.333 1.83301 -61 5.5s-30 10 -40 19s-17.167 21 -21.5 36s-6.5 33.5 -6.5 55.5v196c0 16.667 -0.666992 31 -2 43s-4.16602 22.833 -8.49902 32.5s-10.5 18.667 -18.5 27 s-18.333 17.166 -31 26.499v42c12.667 9.33301 23 18.166 31 26.499s14.167 17.333 18.5 27s7.16602 20.5 8.49902 32.5s2 26 2 42v197c0 22 2.33301 40.5 7 55.5s12 27 22 36s23.167 15.333 39.5 19s36.5 5.5 60.5 5.5h44c8.66699 0 15.667 -2.5 21 -7.5s8 -11.167 8 -18.5 v-8c0 -8 -2.66699 -14.167 -8 -18.5s-12.333 -6.5 -21 -6.5h-44c-14 0 -25.333 -0.666992 -34 -2s-15.334 -4.16602 -20.001 -8.49902s-7.83398 -10.166 -9.50098 -17.499s-2.5 -17 -2.5 -29v-197c0 -32.667 -3.83301 -61 -11.5 -85s-22.167 -45.667 -43.5 -65 c21.333 -19.333 35.833 -40.5 43.5 -63.5s11.5 -51.5 11.5 -85.5v-196c0 -12 0.833008 -21.833 2.5 -29.5s4.83398 -13.5 9.50098 -17.5s11.334 -6.66699 20.001 -8s20 -2 34 -2h44c8.66699 0 15.667 -2.33301 21 -7s8 -10.667 8 -18v-8z"/>
    <glyph glyph-name="bar" unicode="|" horiz-adv-x="244" d="M154 -160c0 -7.33301 -2.66699 -13.833 -8 -19.5s-11.666 -8.5 -18.999 -8.5h-10c-7.33301 0 -13.666 2.83301 -18.999 8.5s-8 12.167 -8 19.5v868c0 7.33301 2.66699 13.833 8 19.5s11.666 8.5 18.999 8.5h10c7.33301 0 13.666 -2.83301 18.999 -8.5s8 -12.167 8 -19.5 v-868z"/>
    <glyph glyph-name="braceright" unicode="}" horiz-adv-x="312" d="M20 -154c0 7.33301 2.66699 13.333 8 18s12.333 7 21 7h44c14 0 25.333 0.666992 34 2s15.334 4 20.001 8s7.83398 9.83301 9.50098 17.5s2.5 17.5 2.5 29.5v196c0 34 3.83301 62.5 11.5 85.5s22.167 44.167 43.5 63.5c-21.333 19.333 -35.833 41 -43.5 65 s-11.5 52.333 -11.5 85v197c0 12 -0.833008 21.667 -2.5 29s-4.83398 13.166 -9.50098 17.499s-11.334 7.16602 -20.001 8.49902s-20 2 -34 2h-44c-8.66699 0 -15.667 2.16699 -21 6.5s-8 10.5 -8 18.5v8c0 7.33301 2.66699 13.5 8 18.5s12.333 7.5 21 7.5h44 c24 0 44.167 -1.83301 60.5 -5.5s29.5 -10 39.5 -19s17.333 -21 22 -36s7 -33.5 7 -55.5v-197c0 -16 0.666992 -30 2 -42s4.16602 -22.833 8.49902 -32.5s10.5 -18.667 18.5 -27s18.333 -17.166 31 -26.499v-42c-12.667 -9.33301 -23 -18.166 -31 -26.499 s-14.167 -17.333 -18.5 -27s-7.16602 -20.5 -8.49902 -32.5s-2 -26.333 -2 -43v-196c0 -22 -2.16699 -40.5 -6.5 -55.5s-11.5 -27 -21.5 -36s-23.333 -15.333 -40 -19s-37 -5.5 -61 -5.5h-44c-8.66699 0 -15.667 2.5 -21 7.5s-8 11.167 -8 18.5v8z"/>
    <glyph glyph-name="asciitilde" unicode="~" horiz-adv-x="588" d="M484 452c0 -38 -8.66406 -65.833 -25.9971 -83.5s-41.333 -26.5 -72 -26.5c-15.333 0 -30 3 -44 9s-26.667 14.333 -38 25l-55 53c-6 6 -13.167 12.667 -21.5 20s-17.5 11 -27.5 11c-10.667 0 -19.5 -4.33301 -26.5 -13s-10.5 -23 -10.5 -43v-29 c0 -9.33301 -1.16699 -16.333 -3.5 -21s-8.5 -7 -18.5 -7h-14c-15.333 0 -23 9.33301 -23 28v29c0 38 8.66699 66.167 26 84.5s40.666 27.5 69.999 27.5c17.333 0 33 -3.5 47 -10.5s26.667 -15.5 38 -25.5l55 -53c8 -7.33301 15.667 -13.666 23 -18.999s14.666 -8 21.999 -8 c13.333 0 23.333 3.83301 30 11.5s10 21.167 10 40.5v30c0 9.33301 1.16699 16.166 3.5 20.499s8.16602 6.5 17.499 6.5h15c15.333 0 23 -9 23 -27v-30z"/>
    <glyph glyph-name="uni00A0" unicode="" horiz-adv-x="215"/>
    <glyph glyph-name="exclamdown" unicode="" horiz-adv-x="224" d="M109 415c-7.33301 0 -14 2.66699 -20 8s-9 11.666 -9 18.999v72c0 8 3 14.667 9 20s12.667 8 20 8h6c7.33301 0 14 -2.66699 20 -8s9 -12 9 -20v-72c0 -7.33301 -3 -13.666 -9 -18.999s-12.667 -8 -20 -8h-6zM115 369c7.33301 0 14 -2.83301 20 -8.5s9 -12.167 9 -19.5 v-513c0 -7.33301 -3 -13.833 -9 -19.5s-12.667 -8.5 -20 -8.5h-6c-7.33301 0 -14 2.83301 -20 8.5s-9 12.167 -9 19.5v513c0 7.33301 3 13.833 9 19.5s12.667 8.5 20 8.5h6z"/>
    <glyph glyph-name="cent" unicode="" horiz-adv-x="589" d="M441 30c0 -8.66699 -1.83398 -15 -5.50098 -19s-11.167 -6.66699 -22.5 -8c-14.667 -2 -29.5 -3.83301 -44.5 -5.5s-29.167 -2.83398 -42.5 -3.50098v-88c0 -7.33301 -2.33301 -13.666 -7 -18.999s-11 -8 -19 -8h-10c-8 0 -14.333 2.66699 -19 8s-7 11.666 -7 18.999v90 c-29.333 4 -54.666 13.333 -75.999 28s-39 32.834 -53 54.501s-24.333 46 -31 73s-10 55.5 -10 85.5v65c0 30.667 3 59.834 9 87.501s15.667 52 29 73s30.833 38.333 52.5 52s48.167 22.167 79.5 25.5v90c0 7.33301 2.33301 13.666 7 18.999s11 8 19 8h10 c8 0 14.333 -2.66699 19 -8s7 -11.666 7 -18.999v-88c13.333 -0.666992 27.5 -1.83398 42.5 -3.50098s29.833 -3.5 44.5 -5.5c11.333 -1.33301 18.833 -4 22.5 -8s5.5 -10.333 5.5 -19v-7c0 -8 -3 -14.167 -9 -18.5s-13.667 -5.83301 -23 -4.5 c-22.667 2.66699 -43.5 4.83398 -62.5 6.50098s-36.167 2.5 -51.5 2.5c-25.333 0 -46.833 -4.33301 -64.5 -13s-32 -21 -43 -37s-18.833 -35.167 -23.5 -57.5s-7 -47.5 -7 -75.5v-65c0 -28 2.33301 -53.333 7 -76s12.5 -42.167 23.5 -58.5s25.333 -29 43 -38 s39.167 -13.5 64.5 -13.5c15.333 0 32.333 0.666992 51 2s39.667 3.66602 63 6.99902c9.33301 1.33301 17 -0.166992 23 -4.5s9 -10.5 9 -18.5v-7z"/>
    <glyph glyph-name="sterling" unicode="" horiz-adv-x="585" d="M342 683c-29.333 0 -52.835 -4.83203 -70.502 -14.499s-31.5 -23.334 -41.5 -41.001s-16.667 -39.167 -20 -64.5s-5 -53.666 -5 -84.999v-62h226c18.667 0 28 -8.66699 28 -26v-8c0 -8 -3 -14.333 -9 -19s-13 -7 -21 -7h-224v-183c0 -25.333 -2.16699 -46.833 -6.5 -64.5 s-10.166 -34.167 -17.499 -49.5h305c7.33301 0 14 -1.5 20 -4.5s9 -9.16699 9 -18.5v-11c0 -8.66699 -2.83301 -15 -8.5 -19s-12.5 -6 -20.5 -6h-359c-10.667 0 -18.334 2.5 -23.001 7.5s-7 11.167 -7 18.5s1.66699 13.333 5 18c13.333 19.333 23 38.5 29 57.5 s9 42.833 9 71.5v183h-41c-18.667 0 -28 8.66699 -28 26v8c0 8 3 14.333 9 19s13 7 21 7h39v62c0 40.667 3.33301 77.167 10 109.5s17.667 59.833 33 82.5s36 40 62 52s58.333 18 97 18c26 0 51.5 -0.666992 76.5 -2s47.5 -3.33301 67.5 -6 c11.333 -1.33301 18.833 -3.83301 22.5 -7.5s5.5 -9.5 5.5 -17.5v-8c0 -8 -2.66699 -14.333 -8 -19s-13.333 -6.33398 -24 -5.00098c-21.333 2 -44.666 3.83301 -69.999 5.5s-48.666 2.5 -69.999 2.5z"/>
    <glyph glyph-name="currency" unicode="" horiz-adv-x="585" d="M485 370c0 -40.667 -12.332 -77.998 -36.999 -111.998l72 -72c6 -6 9.66699 -12.333 11 -19s-1.66699 -13.334 -9 -20.001l-7 -7c-5.33301 -6 -11.666 -8.83301 -18.999 -8.5s-14.333 3.83301 -21 10.5l-71 72c-16.667 -12 -34.667 -21 -54 -27s-38.666 -9 -57.999 -9 s-38.5 3 -57.5 9s-36.833 14.667 -53.5 26l-70 -70c-6.66699 -6.66699 -13.5 -10.334 -20.5 -11.001s-13.833 2.33301 -20.5 9l-7 6c-6.66699 6 -9.33398 12.667 -8.00098 20s4.66602 13.666 9.99902 18.999l71 70c-12.667 17.333 -22.167 35.833 -28.5 55.5 s-9.5 39.167 -9.5 58.5c0 40.667 12.333 78 37 112l-70 69c-5.33301 5.33301 -8.33301 11.833 -9 19.5s1.66602 14.5 6.99902 20.5l7 7c6 5.33301 13 7.5 21 6.5s14.667 -4.16699 20 -9.5l68 -69c32.667 24 70 36 112 36c19.333 0 39 -3.16699 59 -9.5 s38.333 -15.5 55 -27.5l70 71c5.33301 5.33301 11.5 8.83301 18.5 10.5s14.167 -1.16602 21.5 -8.49902l7 -7c12 -12.667 11.333 -25.667 -2 -39l-71 -71c24 -34 36 -71 36 -111zM424.001 370.002c0 18 -3.5 35 -10.5 51s-16.5 30 -28.5 42s-26 21.5 -42 28.5 s-33 10.5 -51 10.5s-35 -3.5 -51 -10.5s-30 -16.5 -42 -28.5s-21.5 -26 -28.5 -42s-10.5 -33 -10.5 -51s3.5 -35.167 10.5 -51.5s16.5 -30.5 28.5 -42.5s26 -21.5 42 -28.5s33 -10.5 51 -10.5s35 3.5 51 10.5s30 16.5 42 28.5s21.5 26.167 28.5 42.5s10.5 33.5 10.5 51.5z "/>
    <glyph glyph-name="yen" unicode="" horiz-adv-x="584" d="M539 255c0 -8 -3.00195 -14.332 -9.00195 -18.999s-13 -7 -21 -7h-185v-201c0 -7.33301 -2.66699 -13.833 -8 -19.5s-11.666 -8.5 -18.999 -8.5h-10c-7.33301 0 -13.666 2.83301 -18.999 8.5s-8 12.167 -8 19.5v201h-187c-18.667 0 -28 8.66699 -28 26v8 c0 8 2.83301 14.167 8.5 18.5s12.834 6.5 21.501 6.5h185v19l-55 108h-132c-18.667 0 -28 8.33301 -28 25v8c0 8 2.83301 14.167 8.5 18.5s12.834 6.5 21.501 6.5h99l-111 222c-6.66699 13.333 -7.33398 23.5 -2.00098 30.5s13.666 10.5 24.999 10.5h12 c5.33301 0 10 -1 14 -3s7.66699 -6.66699 11 -14l170 -338l168 337c3.33301 7.33301 7 12.166 11 14.499s9 3.5 15 3.5h10c12 0 20.667 -3.5 26 -10.5s4.33301 -17.167 -3 -30.5l-112 -222h103c18.667 0 28 -8.33301 28 -25v-8c0 -8 -3 -14.167 -9 -18.5s-13 -6.5 -21 -6.5 h-130l-55 -109v-18h187c18.667 0 28 -8.33301 28 -25v-8z"/>
    <glyph glyph-name="brokenbar" unicode="" horiz-adv-x="244" d="M154 358c0 -7.33301 -2.66699 -13.833 -8 -19.5s-11.666 -8.5 -18.999 -8.5h-10c-7.33301 0 -13.666 2.83301 -18.999 8.5s-8 12.167 -8 19.5v335c0 7.33301 2.66699 13.833 8 19.5s11.666 8.5 18.999 8.5h10c7.33301 0 13.666 -2.83301 18.999 -8.5s8 -12.167 8 -19.5 v-335zM154 -175c0 -7.33301 -2.66699 -13.833 -8 -19.5s-11.666 -8.5 -18.999 -8.5h-10c-7.33301 0 -13.666 2.83301 -18.999 8.5s-8 12.167 -8 19.5v335c0 7.33301 2.66699 13.833 8 19.5s11.666 8.5 18.999 8.5h10c7.33301 0 13.666 -2.83301 18.999 -8.5 s8 -12.167 8 -19.5v-335z"/>
    <glyph glyph-name="section" unicode="" horiz-adv-x="527" d="M475 -18c0 -24 -3.00098 -47.334 -9.00098 -70.001s-17.5 -43 -34.5 -61s-40.833 -32.333 -71.5 -43s-70.334 -16 -119.001 -16c-32 0 -59.833 0.666992 -83.5 2s-45.167 3 -64.5 5c-12 1.33301 -19.5 4.5 -22.5 9.5s-4.5 11.167 -4.5 18.5v6c0 19.333 10.667 28 32 26 l69.5 -4.5c25.667 -1.66699 50.167 -2.5 73.5 -2.5c34 0 62.167 3 84.5 9s39.833 14.667 52.5 26s21.5 25 26.5 41s7.5 34 7.5 54c0 14.667 -1.83301 27.834 -5.5 39.501s-10.167 23 -19.5 34s-22.166 22.333 -38.499 34s-37.166 25.167 -62.499 40.5l-96 59 c-27.333 16.667 -50 31.834 -68 45.501s-32.167 27.5 -42.5 41.5s-17.5 28.667 -21.5 44s-6 32.666 -6 51.999c0 21.333 2.83301 40.5 8.5 57.5s13.167 32.167 22.5 45.5c-11.333 14 -19.333 29.167 -24 45.5s-7 34.5 -7 54.5c0 56.667 18 98.334 54 125.001 s95.667 40 179 40c10.667 0 23 -0.166992 37 -0.5s28.167 -0.833008 42.5 -1.5s27.5 -1.33398 39.5 -2.00098s21.333 -1.33398 28 -2.00098c8 -0.666992 14.333 -3.33398 19 -8.00098s7 -13 7 -25c0 -11.333 -2.5 -19 -7.5 -23s-13.167 -5.66699 -24.5 -5 c-23.333 1.33301 -46.333 3 -69 5s-46.667 3 -72 3c-60 0 -103.167 -8.5 -129.5 -25.5s-39.5 -43.833 -39.5 -80.5c0 -13.333 1.83301 -25.166 5.5 -35.499s9.66699 -20.5 18 -30.5s19.833 -20.333 34.5 -31s33 -22.667 55 -36l94 -57v1c32 -19.333 57.833 -37.333 77.5 -54 s35 -32.834 46 -48.501s18.5 -31.5 22.5 -47.5s6 -33.333 6 -52s-1.5 -37.167 -4.5 -55.5s-10.167 -35.5 -21.5 -51.5c11.333 -15.333 18.5 -30.666 21.5 -45.999s4.5 -31.666 4.5 -48.999zM411.999 183.999c0 15.333 -1.83594 28.8301 -5.50293 40.4971 s-10.167 23 -19.5 34s-22.166 22.333 -38.499 34s-37.166 25.167 -62.499 40.5l-96 58l-31 20c-10.667 6.66699 -20 13.334 -28 20.001c-10 -16 -15 -35.667 -15 -59c0 -13.333 1.83301 -25.166 5.5 -35.499s9.66699 -20.5 18 -30.5s19.833 -20.167 34.5 -30.5 s33 -22.166 55 -35.499l94 -58v1c17.333 -10 32.333 -19.5 45 -28.5s24.334 -18.167 35.001 -27.5c6 16.667 9 35.667 9 57z"/>
    <glyph glyph-name="dieresis" unicode="" horiz-adv-x="344" d="M276 647c0 -8.66699 -2.83301 -15.5 -8.5 -20.5s-12.5 -7.5 -20.5 -7.5h-6c-7.33301 0 -13.833 2.5 -19.5 7.5s-8.5 11.833 -8.5 20.5v71c0 7.33301 2.83301 13.833 8.5 19.5s12.167 8.5 19.5 8.5h6c8 0 14.833 -2.83301 20.5 -8.5s8.5 -12.167 8.5 -19.5v-71zM132 647 c0 -8.66699 -3 -15.5 -9 -20.5s-12.667 -7.5 -20 -7.5h-6c-8 0 -14.833 2.5 -20.5 7.5s-8.5 11.833 -8.5 20.5v71c0 7.33301 2.83301 13.833 8.5 19.5s12.5 8.5 20.5 8.5h6c7.33301 0 14 -2.83301 20 -8.5s9 -12.167 9 -19.5v-71z"/>
    <glyph glyph-name="copyright" unicode="" horiz-adv-x="729" d="M684 370c0 -44 -8.5 -85.333 -25.5 -124s-40 -72.167 -69 -100.5s-63 -50.833 -102 -67.5s-80.5 -25 -124.5 -25s-85.333 8.33301 -124 25s-72.334 39.167 -101.001 67.5s-51.334 61.833 -68.001 100.5s-25 80 -25 124s8.33301 85.333 25 124s39.334 72.5 68.001 101.5 s62.334 52 101.001 69s80 25.5 124 25.5s85.5 -8.5 124.5 -25.5s73 -40 102 -69s52 -62.833 69 -101.5s25.5 -80 25.5 -124zM625 370c0 36 -6.83301 70 -20.5 102s-32.334 60 -56.001 84s-51.5 42.833 -83.5 56.5s-66 20.5 -102 20.5s-69.833 -6.83301 -101.5 -20.5 s-59.334 -32.5 -83.001 -56.5s-42.334 -52 -56.001 -84s-20.5 -66 -20.5 -102s6.83301 -69.833 20.5 -101.5s32.334 -59.334 56.001 -83.001s51.334 -42.334 83.001 -56.001s65.5 -20.5 101.5 -20.5s70 6.83301 102 20.5s59.833 32.334 83.5 56.001 s42.334 51.334 56.001 83.001s20.5 65.5 20.5 101.5zM471 186c0 -8 -2.83398 -14.002 -8.50098 -18.002s-11.167 -6.33301 -16.5 -7c-7.33301 -1.33301 -18.5 -2.66602 -33.5 -3.99902s-35.167 -2 -60.5 -2c-19.333 0 -37.833 3 -55.5 9s-33.5 16.167 -47.5 30.5 s-25.167 33.166 -33.5 56.499s-12.5 52.333 -12.5 87v70c0 34.667 4.16699 63.667 12.5 87s19.5 42.166 33.5 56.499s29.833 24.5 47.5 30.5s36.167 9 55.5 9c25.333 0 45.5 -0.666992 60.5 -2s26.167 -2.66602 33.5 -3.99902 c5.33301 -0.666992 10.833 -2.83398 16.5 -6.50098s8.5 -9.5 8.5 -17.5v-8c0 -8.66699 -2.66699 -14.334 -8 -17.001s-10.666 -4 -15.999 -4h-4c-10 1.33301 -23.667 2.5 -41 3.5s-34 1.5 -50 1.5c-12.667 0 -24.5 -2.16699 -35.5 -6.5s-20.667 -11.666 -29 -21.999 s-14.833 -23.666 -19.5 -39.999s-7 -36.5 -7 -60.5v-70c0 -24 2.33301 -44.167 7 -60.5s11.167 -29.666 19.5 -39.999s18 -17.666 29 -21.999s22.833 -6.5 35.5 -6.5c16 0 32.667 0.5 50 1.5s31.333 2.16699 42 3.5c6 0 12 -1.5 18 -4.5s9 -9.16699 9 -18.5v-5z"/>
    <glyph glyph-name="ordfeminine" unicode="" horiz-adv-x="282" d="M244 462c0 -6.66699 -1.33398 -12 -4.00098 -16s-7.66699 -7 -15 -9c-12 -3.33301 -25 -6 -39 -8s-28 -3 -42 -3c-43.333 0 -73.5 7.83301 -90.5 23.5s-25.5 40.167 -25.5 73.5v6c0 32 10.333 55.667 31 71s56.334 23 107.001 23h25v4 c0 22.667 -3.33301 38.334 -10 47.001s-19.667 13 -39 13c-15.333 0 -28 -0.333008 -38 -1s-20.667 -1.66699 -32 -3c-6.66699 -1.33301 -13 -0.333008 -19 3s-9 10.666 -9 21.999c0 8 2.66699 13.5 8 16.5s11 5.16699 17 6.5c10 1.33301 20.5 2.5 31.5 3.5 s24.833 1.5 41.5 1.5c20 0 36.5 -2.83301 49.5 -8.5s23.5 -13.334 31.5 -23.001s13.5 -21.167 16.5 -34.5s4.5 -27.666 4.5 -42.999v-165zM190.999 574l-24.001 0.000976562c-34 0 -57 -3.33301 -69 -10s-18 -18.334 -18 -35.001v-6c0 -16 3.83301 -28.167 11.5 -36.5 s25.167 -12.5 52.5 -12.5c9.33301 0 17.833 0.333008 25.5 1s14.834 1.66699 21.501 3v96z"/>
    <glyph glyph-name="guillemotleft" unicode="" horiz-adv-x="540" d="M254 120c4.66699 -4.66699 7.99902 -10.332 9.99902 -16.999s-0.333008 -14 -7 -22l-6 -7c-6.66699 -8 -13 -11.333 -19 -10s-11 3.66602 -15 6.99902l-178 163c-11.333 11.333 -17 23 -17 35s5.66699 23.667 17 35l172 157c5.33301 4.66699 11.833 8.16699 19.5 10.5 s14.5 -0.166992 20.5 -7.5l6 -7c6.66699 -6.66699 9.33398 -13.5 8.00098 -20.5s-5 -13.167 -11 -18.5l-163 -149zM473.999 121.002c5.33301 -5.33301 9.33105 -11.499 11.998 -18.499s0.333984 -14.167 -6.99902 -21.5l-7 -7c-7.33301 -7.33301 -13.833 -10.5 -19.5 -9.5 s-10.167 3.16699 -13.5 6.5l-178 163c-11.333 11.333 -17 23 -17 35c0 13.333 5.33301 25 16 35l173 157c4.66699 4.66699 10.667 8 18 10s14.333 -0.333008 21 -7l7 -7c6.66699 -6.66699 9.33398 -13.334 8.00098 -20.001s-5.33301 -13 -12 -19l-163 -149z"/>
    <glyph glyph-name="logicalnot" unicode="" horiz-adv-x="587" d="M500 289c0 -8 -2 -14.832 -6 -20.499s-10.667 -8.5 -20 -8.5h-10c-9.33301 0 -16 2.83301 -20 8.5s-6 12.5 -6 20.5v164h-320c-8 0 -15 2 -21 6s-9 10.333 -9 19v10c0 8.66699 3 15 9 19s13 6 21 6h356c8 0 14.333 -2.83301 19 -8.5s7 -11.834 7 -18.501v-197z"/>
    <glyph glyph-name="uni00AD" unicode="" horiz-adv-x="356" d="M304 273c0 -8 -2.66699 -14.167 -8 -18.5s-12.333 -6.5 -21 -6.5h-194c-8.66699 0 -15.667 2.16699 -21 6.5s-8 10.5 -8 18.5v8c0 7.33301 2.66699 13.666 8 18.999s12.333 8 21 8h194c8.66699 0 15.667 -2.66699 21 -8s8 -11.666 8 -18.999v-8z"/>
    <glyph glyph-name="registered" unicode="" horiz-adv-x="619" d="M574 476c0 -36 -7 -70 -21 -102s-33 -59.833 -57 -83.5s-52 -42.334 -84 -56.001s-66.333 -20.5 -103 -20.5c-36 0 -70 6.83301 -102 20.5s-60 32.334 -84 56.001s-43 51.5 -57 83.5s-21 66 -21 102c0 36.667 7 71 21 103s33 59.833 57 83.5s52 42.334 84 56.001 s66 20.5 102 20.5c36.667 0 71 -6.83301 103 -20.5s60 -32.334 84 -56.001s43 -51.5 57 -83.5s21 -66.333 21 -103zM519 476c0 28.667 -5.5 55.834 -16.5 81.501s-26 48 -45 67s-41.333 34 -67 45s-52.834 16.5 -81.501 16.5s-55.667 -5.5 -81 -16.5s-47.333 -26 -66 -45 s-33.5 -41.333 -44.5 -67s-16.5 -52.834 -16.5 -81.501s5.5 -55.667 16.5 -81s25.833 -47.5 44.5 -66.5s40.667 -34 66 -45s52.333 -16.5 81 -16.5s55.834 5.5 81.501 16.5s48 26 67 45s34 41.167 45 66.5s16.5 52.333 16.5 81zM435 328 c0 -7.33301 -2.66797 -12.835 -8.00098 -16.502s-10.666 -5.5 -15.999 -5.5h-5c-4.66699 0 -9 1 -13 3s-6.66699 4.33301 -8 7l-86 131h-44v-116c0 -5.33301 -2.33301 -10.833 -7 -16.5s-11 -8.5 -19 -8.5h-3c-8 0 -14.167 2.83301 -18.5 8.5s-6.5 11.167 -6.5 16.5v297 c0 5.33301 2 10.5 6 15.5s9.66699 8.16699 17 9.5c7.33301 0.666992 18 1.16699 32 1.5s25.667 0.5 35 0.5c42 0 74.5 -7.5 97.5 -22.5s34.5 -42.833 34.5 -83.5c0 -26.667 -5.5 -47.167 -16.5 -61.5s-27.167 -25.166 -48.5 -32.499l72 -111 c3.33301 -5.33301 5 -10.666 5 -15.999zM368.999 550.998c0 19.333 -6.16797 32.833 -18.501 40.5s-32.166 11.5 -59.499 11.5h-36v-105c2 0 5.16699 -0.166992 9.5 -0.5s13.166 -0.5 26.499 -0.5c28.667 0 48.834 3.83301 60.501 11.5s17.5 21.167 17.5 40.5v2z"/>
    <glyph glyph-name="macron" unicode="" horiz-adv-x="340" d="M328 688c0 -8.66699 -2.83301 -15 -8.5 -19s-12.834 -6 -21.501 -6h-256c-8.66699 0 -15.834 2 -21.501 6s-8.5 10.333 -8.5 19v11c0 8.66699 2.83301 14.834 8.5 18.501s12.834 5.5 21.501 5.5h256c8.66699 0 15.834 -1.83301 21.501 -5.5s8.5 -9.83398 8.5 -18.501v-11 z"/>
    <glyph glyph-name="degree" unicode="" horiz-adv-x="343" d="M313 601c0 -19.333 -3.66699 -37.5 -11 -54.5s-17.5 -31.833 -30.5 -44.5s-28 -22.667 -45 -30s-35.167 -11 -54.5 -11s-37.5 3.66699 -54.5 11s-32 17.333 -45 30s-23.333 27.5 -31 44.5s-11.5 35.167 -11.5 54.5c0 18.667 3.83301 36.5 11.5 53.5s18 31.833 31 44.5 s28 22.667 45 30s35.167 11 54.5 11s37.5 -3.66699 54.5 -11s32 -17.333 45 -30s23.167 -27.5 30.5 -44.5s11 -34.833 11 -53.5zM255 601c0 23.333 -8.16699 43.166 -24.5 59.499s-35.833 24.5 -58.5 24.5c-23.333 0 -43 -8.16699 -59 -24.5s-24 -36.166 -24 -59.499 c0 -12 2.16699 -23 6.5 -33s10.333 -18.833 18 -26.5s16.5 -13.667 26.5 -18s20.667 -6.5 32 -6.5s22 2.16699 32 6.5s18.833 10.333 26.5 18s13.667 16.5 18 26.5s6.5 21 6.5 33z"/>
    <glyph glyph-name="plusminus" unicode="" horiz-adv-x="585" d="M518 382c0 -9.33301 -2.83301 -15.833 -8.5 -19.5s-12.834 -5.5 -21.501 -5.5h-164v-165c0 -8.66699 -2 -15.667 -6 -21s-10.667 -8 -20 -8h-10c-9.33301 0 -16 2.66699 -20 8s-6 12.333 -6 21v165h-164c-8 0 -15 1.83301 -21 5.5s-9 10.167 -9 19.5v9 c0 9.33301 3 15.833 9 19.5s13 5.5 21 5.5h164v166c0 8 2 14.833 6 20.5s10.667 8.5 20 8.5h10c9.33301 0 16 -2.83301 20 -8.5s6 -12.5 6 -20.5v-166h164c8.66699 0 15.834 -1.83301 21.501 -5.5s8.5 -10.167 8.5 -19.5v-9zM518 25c0 -8.66699 -2.83301 -15 -8.5 -19 s-12.834 -6 -21.501 -6h-390c-8 0 -15 2 -21 6s-9 10.333 -9 19v10c0 8.66699 3 15 9 19s13 6 21 6h390c8.66699 0 15.834 -2 21.501 -6s8.5 -10.333 8.5 -19v-10z"/>
    <glyph glyph-name="twosuperior" unicode="" horiz-adv-x="331" d="M154 900c-11.333 0 -23.667 -0.493164 -37 -1.49316s-26.666 -2.16699 -39.999 -3.5c-8.66699 -0.666992 -15.834 0 -21.501 2s-8.5 9.66699 -8.5 23c0 8.66699 1.66699 15 5 19s10.666 6.66699 21.999 8c12.667 1.33301 26.167 2.66602 40.5 3.99902s27.5 2 39.5 2 c44.667 0 78.834 -8 102.501 -24s35.5 -41 35.5 -75c0 -20.667 -5.16699 -40.834 -15.5 -60.501s-31.166 -39.834 -62.499 -60.501l-53 -36c-24 -16.667 -40.333 -33.834 -49 -51.501s-13 -35.5 -13 -53.5v-4h161c7.33301 0 13.833 -2.33301 19.5 -7s8.5 -10.667 8.5 -18v-6 c0 -9.33301 -2.83301 -15.833 -8.5 -19.5s-12.167 -5.5 -19.5 -5.5h-193c-9.33301 0 -16.333 2.83301 -21 8.5s-7 12.167 -7 19.5v32c0 13.333 1 26.166 3 38.499s6.16699 24.5 12.5 36.5s15.333 24.167 27 36.5s27.167 25.166 46.5 38.499l53 37 c17.333 12 30.166 23.167 38.499 33.5s12.5 24.166 12.5 41.499c0 14.667 -6 26 -18 34s-32 12 -60 12z"/>
    <glyph glyph-name="threesuperior" unicode="" horiz-adv-x="331" d="M144 582c29.333 0 51.001 5.33301 65.001 16s21 29.667 21 57v11c0 6 -0.666992 12.333 -2 19s-4 13 -8 19s-9.5 10.833 -16.5 14.5s-16.5 5.5 -28.5 5.5h-98c-18.667 0 -28 8.66699 -28 26v4c0 17.333 9.33301 26 28 26h98c12 0 21.5 2 28.5 6s12.5 8.83301 16.5 14.5 s6.66699 11.667 8 18s2 12.166 2 17.499v6c0 23.333 -7 38.833 -21 46.5s-35.667 11.5 -65 11.5c-11.333 0 -23 -0.666992 -35 -2s-24.667 -2.66602 -38 -3.99902c-8 -0.666992 -15 0 -21 2s-9 8.66699 -9 20v4c0 6.66699 1.16699 12.5 3.5 17.5s9.16602 8.16699 20.499 9.5 c10.667 1.33301 23.667 2.66602 39 3.99902s28.666 2 39.999 2c22.667 0 43.167 -1.66699 61.5 -5s33.666 -9.16602 45.999 -17.499s21.833 -19.666 28.5 -33.999s10 -32.5 10 -54.5v-6c0 -15.333 -2.83301 -30.5 -8.5 -45.5s-15.5 -28.167 -29.5 -39.5 c15.333 -11.333 25.5 -25 30.5 -41s7.5 -30.667 7.5 -44v-11c0 -46.667 -12.833 -79.334 -38.5 -98.001s-61.5 -28 -107.5 -28c-11.333 0 -24.666 0.833008 -39.999 2.5s-28.333 3.16699 -39 4.5c-11.333 2 -18.166 5.16699 -20.499 9.5s-3.5 10.166 -3.5 17.499v4 c0 11.333 3 18 9 20s13 2.33301 21 1c13.333 -1.33301 26 -2.66602 38 -3.99902s23.667 -2 35 -2z"/>
    <glyph glyph-name="acute" unicode="" horiz-adv-x="345" d="M297 753c0 -3.33301 -2.33301 -7.99707 -7 -13.9971l-106 -128c-4 -4.66699 -7.66699 -8.33398 -11 -11.001s-8.33301 -4 -15 -4h-21c-12.667 0 -19 5.33301 -19 16c0 5.33301 2 10.666 6 15.999l96 123c5.33301 7.33301 10 12.166 14 14.499s9.66699 3.5 17 3.5h25 c14 0 21 -5.33301 21 -16z"/>
    <glyph glyph-name="mu" unicode="" d="M458 46c0 -5.33301 -2.16602 -10.833 -6.49902 -16.5s-8.83301 -9.16699 -13.5 -10.5c-12 -4 -25 -7.5 -39 -10.5s-28.333 -5.5 -43 -7.5s-29.334 -3.66699 -44.001 -5s-28.667 -2 -42 -2c-31.333 0 -58 3.5 -80 10.5s-41 17.167 -57 30.5v-195 c0 -7.33301 -2.5 -13.833 -7.5 -19.5s-11.5 -8.5 -19.5 -8.5h-9c-8 0 -14.5 2.83301 -19.5 8.5s-7.5 12.167 -7.5 19.5v669c0 7.33301 2.66699 13.833 8 19.5s12 8.5 20 8.5h7c8 0 14.667 -2.83301 20 -8.5s8 -12.167 8 -19.5v-321c0 -91.333 45.667 -137 137 -137 c18.667 0 39.5 1.33301 62.5 4s43.5 6.66699 61.5 12v442c0 7.33301 3 13.833 9 19.5s12.667 8.5 20 8.5h6c8 0 14.833 -2.83301 20.5 -8.5s8.5 -12.167 8.5 -19.5v-463z"/>
    <glyph glyph-name="paragraph" unicode="" horiz-adv-x="603" d="M533 -160c0 -7.33301 -2.66895 -13.833 -8.00195 -19.5s-11.666 -8.5 -18.999 -8.5h-10c-7.33301 0 -13.666 2.83301 -18.999 8.5s-8 12.167 -8 19.5v837h-33v-837c0 -7.33301 -2.5 -13.833 -7.5 -19.5s-11.5 -8.5 -19.5 -8.5h-9c-8 0 -14.5 2.83301 -19.5 8.5 s-7.5 12.167 -7.5 19.5v425h-95c-35.333 0 -67.166 5 -95.499 15s-52.833 24.5 -73.5 43.5s-36.5 42.5 -47.5 70.5s-16.5 60 -16.5 96v21c0 36 5.5 68 16.5 96s26.833 51.5 47.5 70.5s45.167 33.5 73.5 43.5s60.166 15 95.499 15h229c17.333 0 26 -9.33301 26 -28v-868z"/>
    <glyph glyph-name="periodcentered" unicode="" horiz-adv-x="187" d="M125 357c0 -8.66699 -2.83301 -15.5 -8.5 -20.5s-12.5 -7.5 -20.5 -7.5h-5c-8 0 -14.833 2.5 -20.5 7.5s-8.5 11.833 -8.5 20.5v71c0 7.33301 2.83301 13.833 8.5 19.5s12.5 8.5 20.5 8.5h5c8 0 14.833 -2.83301 20.5 -8.5s8.5 -12.167 8.5 -19.5v-71z"/>
    <glyph glyph-name="cedilla" unicode="" horiz-adv-x="346" d="M211 -50c0 -3.33301 -2.33301 -7.99902 -7 -13.999l-91 -109c-4 -4.66699 -7.5 -8.33398 -10.5 -11.001s-8.16699 -4 -15.5 -4h-21c-12.667 0 -19 5.33301 -19 16c0 5.33301 2 10.666 6 15.999l81 104c5.33301 6.66699 9.83301 11.334 13.5 14.001s9.16699 4 16.5 4h26 c14 0 21 -5.33301 21 -16z"/>
    <glyph glyph-name="onesuperior" unicode="" horiz-adv-x="227" d="M89 893l-40.999 -6.00098c-11.333 -1.33301 -19.333 0.333984 -24 5.00098s-7 12 -7 22s2.66699 16.833 8 20.5s11.666 6.16699 18.999 7.5l66 9c6.66699 1.33301 13 2 19 2c8 0 13.333 -3.16699 16 -9.5s4 -12.833 4 -19.5v-365c0 -7.33301 -2 -13.666 -6 -18.999 s-10.667 -8 -20 -8h-8c-9.33301 0 -16 2.66699 -20 8s-6 11.666 -6 18.999v334z"/>
    <glyph glyph-name="ordmasculine" unicode="" horiz-adv-x="300" d="M270 563c0 -42.667 -10 -76.167 -30 -100.5s-50 -36.5 -90 -36.5s-70 12.167 -90 36.5s-30 57.833 -30 100.5v36c0 42 10 75.333 30 100s50 37 90 37s70 -12.333 90 -37s30 -58 30 -100v-36zM217 599c0 28 -5 49.667 -15 65s-27.333 23 -52 23 c-24 0 -41.167 -7.66699 -51.5 -23s-15.5 -37 -15.5 -65v-36c0 -28 5.16699 -49.833 15.5 -65.5s27.5 -23.5 51.5 -23.5c24.667 0 42 7.83301 52 23.5s15 37.5 15 65.5v36z"/>
    <glyph glyph-name="guillemotright" unicode="" horiz-adv-x="539" d="M448 269l-163.001 148.998c-6 5.33301 -9.66699 11.5 -11 18.5s1.33398 13.833 8.00098 20.5l6 7c6 7.33301 12.833 9.83301 20.5 7.5s14.167 -5.83301 19.5 -10.5l172 -157c11.333 -11.333 17 -23 17 -35s-5.66699 -23.667 -17 -35l-178 -163 c-4 -3.33301 -9 -5.66602 -15 -6.99902s-12.333 2 -19 10l-6 7c-6.66699 8 -9 15.333 -7 22s5.33301 12.334 10 17.001zM226.999 268.998l-163.002 148.999c-6.66699 6 -10.667 12.333 -12 19s1.33398 13.334 8.00098 20.001l7 7c6.66699 6.66699 13.667 9 21 7 s13.333 -5.33301 18 -10l173 -157c10.667 -10 16 -21.667 16 -35c0 -12 -5.66699 -23.667 -17 -35l-178 -163c-3.33301 -3.33301 -7.83301 -5.5 -13.5 -6.5s-12.167 2.16699 -19.5 9.5l-7 7c-7.33301 7.33301 -9.66602 14.5 -6.99902 21.5s6.66699 13.167 12 18.5z"/>
    <glyph glyph-name="onequarter" unicode="" horiz-adv-x="653" d="M514 736c9.33301 0 15.334 -2.33203 18.001 -6.99902s0.333984 -13.334 -6.99902 -26.001l-403 -686c-5.33301 -8.66699 -9.5 -14.667 -12.5 -18s-8.5 -5 -16.5 -5h-26c-12.667 0 -18.834 3.83301 -18.501 11.5s2.5 14.834 6.5 21.501l402 685 c5.33301 9.33301 9.66602 15.666 12.999 18.999s9 5 17 5h27zM112.001 693.001l-40.999 -6.00098c-11.333 -1.33301 -19.333 0.333984 -24 5.00098s-7 12 -7 22s2.66699 16.833 8 20.5s11.666 6.16699 18.999 7.5l66 9c6.66699 1.33301 13 2 19 2 c8 0 13.333 -3.16699 16 -9.5s4 -12.833 4 -19.5v-365c0 -7.33301 -2 -13.666 -6 -18.999s-10.667 -8 -20 -8h-8c-9.33301 0 -16 2.66699 -20 8s-6 11.666 -6 18.999v334zM560.002 27c0 -7.33301 -2 -13.666 -6 -18.999s-10.667 -8 -20 -8h-8c-9.33301 0 -16 2.66699 -20 8 s-6 11.666 -6 18.999v86h-125c-16 0 -28.5 3.83301 -37.5 11.5s-13.5 18.167 -13.5 31.5v5c1.33301 10 5.33301 20.333 12 31l142 206c7.33301 10 14.5 16.333 21.5 19s14.167 4 21.5 4h6c10 0 18 -3.33301 24 -10s9 -17 9 -31v-212h34c6.66699 0 13 -2 19 -6 s9 -10.333 9 -19v-4c0 -8.66699 -3 -15.167 -9 -19.5s-12.333 -6.5 -19 -6.5h-34v-86zM500.002 331l-110 -163h110v163z"/>
    <glyph glyph-name="onehalf" unicode="" horiz-adv-x="694" d="M514 736c9.33301 0 15.334 -2.33203 18.001 -6.99902s0.333984 -13.334 -6.99902 -26.001l-403 -686c-5.33301 -8.66699 -9.5 -14.667 -12.5 -18s-8.5 -5 -16.5 -5h-26c-12.667 0 -18.834 3.83301 -18.501 11.5s2.5 14.834 6.5 21.501l402 685 c5.33301 9.33301 9.66602 15.666 12.999 18.999s9 5 17 5h27zM112.001 693.001l-40.999 -6.00098c-11.333 -1.33301 -19.333 0.333984 -24 5.00098s-7 12 -7 22s2.66699 16.833 8 20.5s11.666 6.16699 18.999 7.5l66 9c6.66699 1.33301 13 2 19 2 c8 0 13.333 -3.16699 16 -9.5s4 -12.833 4 -19.5v-365c0 -7.33301 -2 -13.666 -6 -18.999s-10.667 -8 -20 -8h-8c-9.33301 0 -16 2.66699 -20 8s-6 11.666 -6 18.999v334zM517.002 368c-11.333 0 -23.667 -0.493164 -37 -1.49316s-26.666 -2.16699 -39.999 -3.5 c-8.66699 -0.666992 -15.834 0 -21.501 2s-8.5 9.66699 -8.5 23c0 8.66699 1.66699 15 5 19s10.666 6.66699 21.999 8c12.667 1.33301 26.167 2.66602 40.5 3.99902s27.5 2 39.5 2c44.667 0 78.834 -8 102.501 -24s35.5 -41 35.5 -75 c0 -20.667 -5.16699 -40.834 -15.5 -60.501s-31.166 -39.834 -62.499 -60.501l-53 -36c-24 -16.667 -40.333 -33.834 -49 -51.501s-13 -35.5 -13 -53.5v-4h161c7.33301 0 13.833 -2.33301 19.5 -7s8.5 -10.667 8.5 -18v-6c0 -9.33301 -2.83301 -15.833 -8.5 -19.5 s-12.167 -5.5 -19.5 -5.5h-193c-9.33301 0 -16.333 2.83301 -21 8.5s-7 12.167 -7 19.5v32c0 13.333 1 26.166 3 38.499s6.16699 24.5 12.5 36.5s15.333 24.167 27 36.5s27.167 25.166 46.5 38.499l53 37c17.333 12 30.166 23.167 38.499 33.5s12.5 24.166 12.5 41.499 c0 14.667 -6 26 -18 34s-32 12 -60 12z"/>
    <glyph glyph-name="threequarters" unicode="" horiz-adv-x="724" d="M586 736c9.33301 0 15.334 -2.33203 18.001 -6.99902s0.333984 -13.334 -6.99902 -26.001l-403 -686c-5.33301 -8.66699 -9.5 -14.667 -12.5 -18s-8.5 -5 -16.5 -5h-26c-12.667 0 -18.834 3.83301 -18.501 11.5s2.5 14.834 6.5 21.501l402 685 c5.33301 9.33301 9.66602 15.666 12.999 18.999s9 5 17 5h27zM134.001 382.001c29.333 0 51.001 5.33301 65.001 16s21 29.667 21 57v11c0 6 -0.666992 12.333 -2 19s-4 13 -8 19s-9.5 10.833 -16.5 14.5s-16.5 5.5 -28.5 5.5h-98c-18.667 0 -28 8.66699 -28 26v4 c0 17.333 9.33301 26 28 26h98c12 0 21.5 2 28.5 6s12.5 8.83301 16.5 14.5s6.66699 11.667 8 18s2 12.166 2 17.499v6c0 23.333 -7 38.833 -21 46.5s-35.667 11.5 -65 11.5c-11.333 0 -23 -0.666992 -35 -2s-24.667 -2.66602 -38 -3.99902c-8 -0.666992 -15 0 -21 2 s-9 8.66699 -9 20v4c0 6.66699 1.16699 12.5 3.5 17.5s9.16602 8.16699 20.499 9.5c10.667 1.33301 23.667 2.66602 39 3.99902s28.666 2 39.999 2c22.667 0 43.167 -1.66699 61.5 -5s33.666 -9.16602 45.999 -17.499s21.833 -19.666 28.5 -33.999s10 -32.5 10 -54.5v-6 c0 -15.333 -2.83301 -30.5 -8.5 -45.5s-15.5 -28.167 -29.5 -39.5c15.333 -11.333 25.5 -25 30.5 -41s7.5 -30.667 7.5 -44v-11c0 -46.667 -12.833 -79.334 -38.5 -98.001s-61.5 -28 -107.5 -28c-11.333 0 -24.666 0.833008 -39.999 2.5s-28.333 3.16699 -39 4.5 c-11.333 2 -18.166 5.16699 -20.499 9.5s-3.5 10.166 -3.5 17.499v4c0 11.333 3 18 9 20s13 2.33301 21 1c13.333 -1.33301 26 -2.66602 38 -3.99902s23.667 -2 35 -2zM632.002 27.001c0 -7.33301 -2 -13.666 -6 -18.999s-10.667 -8 -20 -8h-8c-9.33301 0 -16 2.66699 -20 8 s-6 11.666 -6 18.999v86h-125c-16 0 -28.5 3.83301 -37.5 11.5s-13.5 18.167 -13.5 31.5v5c1.33301 10 5.33301 20.333 12 31l142 206c7.33301 10 14.5 16.333 21.5 19s14.167 4 21.5 4h6c10 0 18 -3.33301 24 -10s9 -17 9 -31v-212h34c6.66699 0 13 -2 19 -6 s9 -10.333 9 -19v-4c0 -8.66699 -3 -15.167 -9 -19.5s-12.333 -6.5 -19 -6.5h-34v-86zM572.002 331.001l-110 -163h110v163z"/>
    <glyph glyph-name="questiondown" unicode="" horiz-adv-x="434" d="M318 442c0 -7.33301 -3 -13.666 -9 -18.999s-12.667 -8 -20 -8h-6c-7.33301 0 -14 2.66699 -20 8s-9 11.666 -9 18.999v72c0 8 3 14.667 9 20s12.667 8 20 8h6c7.33301 0 14 -2.66699 20 -8s9 -12 9 -20v-72zM399 -170c0 -6 -1.66504 -11.834 -4.99805 -17.501 s-10.333 -9.16699 -21 -10.5c-20 -2.66699 -39.5 -4.33398 -58.5 -5.00098s-38.167 -1 -57.5 -1c-25.333 0 -49.666 2.33301 -72.999 7s-44.333 12.834 -63 24.501s-33.5 27 -44.5 46s-16.5 42.833 -16.5 71.5v8c0 14.667 1.66699 28.834 5 42.501s9.16602 27.667 17.499 42 s19.5 30 33.5 47s31.667 36.167 53 57.5l29 29c11.333 11.333 20.5 21.166 27.5 29.499s12.5 16.5 16.5 24.5s6.83301 16.5 8.5 25.5s2.5 19.833 2.5 32.5v58c0 8.66699 3 15.5 9 20.5s12.667 7.5 20 7.5h6c7.33301 0 14 -2.5 20 -7.5s9 -11.833 9 -20.5v-58 c0 -16 -1.16699 -30.5 -3.5 -43.5s-6.33301 -25.5 -12 -37.5s-13.334 -24 -23.001 -36s-21.834 -25.333 -36.501 -40l-27 -27c-18 -18 -32.667 -33.667 -44 -47s-20.166 -25.5 -26.499 -36.5s-10.666 -21.5 -12.999 -31.5s-3.5 -20.333 -3.5 -31v-8 c0 -33.333 10.5 -57 31.5 -71s53.5 -21 97.5 -21c19.333 0 36.166 0.333008 50.499 1s30.166 1.66699 47.499 3c18 1.33301 29.833 0.333008 35.5 -3s8.5 -8.66602 8.5 -15.999v-8z"/>
    <glyph glyph-name="Agrave" unicode="" horiz-adv-x="627" d="M190 274l-79.001 -257c-1.33301 -4.66699 -4.66602 -9.16699 -9.99902 -13.5s-10.666 -6.5 -15.999 -6.5h-12c-11.333 0 -19.166 3.66699 -23.499 11s-4.83301 16 -1.5 26l200 659c5.33301 16 14.166 29.167 26.499 39.5s28.166 15.5 47.499 15.5c18 0 33.333 -5 46 -15 s21.667 -23 27 -39l200 -660c3.33301 -10 3 -18.667 -1 -26s-12 -11 -24 -11h-11c-6.66699 0 -12.5 2 -17.5 6s-8.16699 8.66699 -9.5 14l-80 257h-262zM333.999 677c-1.33301 2.66699 -2.83398 5.33301 -4.50098 8s-4.16699 4 -7.5 4c-4 0 -6.66699 -1 -8 -3 s-2.66602 -4.66699 -3.99902 -8l-103 -342h229zM389.998 787.999c0 -10.667 -6.33496 -15.999 -19.002 -15.999h-13c-9.33301 0 -16.666 1.5 -21.999 4.5s-11.666 9.16699 -18.999 18.5l-99 119c-4.66699 4.66699 -7 9.66699 -7 15c0 10.667 7 16 21 16h25 c7.33301 0 13 -1.33301 17 -4s8.66699 -7.33398 14 -14.001l97 -123c3.33301 -4 5 -9.33301 5 -16z"/>
    <glyph glyph-name="Aacute" unicode="" horiz-adv-x="627" d="M182 274l-79.001 -257c-1.33301 -4.66699 -4.66602 -9.16699 -9.99902 -13.5s-10.666 -6.5 -15.999 -6.5h-12c-11.333 0 -19.166 3.66699 -23.499 11s-4.83301 16 -1.5 26l200 659c5.33301 16 14.166 29.167 26.499 39.5s28.166 15.5 47.499 15.5c18 0 33.333 -5 46 -15 s21.667 -23 27 -39l200 -660c3.33301 -10 3 -18.667 -1 -26s-12 -11 -24 -11h-11c-6.66699 0 -12.5 2 -17.5 6s-8.16699 8.66699 -9.5 14l-80 257h-262zM325.999 677c-1.33301 2.66699 -2.83398 5.33301 -4.50098 8s-4.16699 4 -7.5 4c-4 0 -6.66699 -1 -8 -3 s-2.66602 -4.66699 -3.99902 -8l-103 -342h229zM429.998 927.999c0 -3.33301 -2.33301 -7.99707 -7 -13.9971l-106 -128c-4 -4.66699 -7.66699 -8.33398 -11 -11.001s-8.33301 -4 -15 -4h-21c-12.667 0 -19 5.33301 -19 16c0 5.33301 2 10.666 6 15.999l96 123 c5.33301 7.33301 10 12.166 14 14.499s9.66699 3.5 17 3.5h25c14 0 21 -5.33301 21 -16z"/>
    <glyph glyph-name="Acircumflex" unicode="" horiz-adv-x="627" d="M182 274l-79.001 -257c-1.33301 -4.66699 -4.66602 -9.16699 -9.99902 -13.5s-10.666 -6.5 -15.999 -6.5h-12c-11.333 0 -19.166 3.66699 -23.499 11s-4.83301 16 -1.5 26l200 659c5.33301 16 14.166 29.167 26.499 39.5s28.166 15.5 47.499 15.5c18 0 33.333 -5 46 -15 s21.667 -23 27 -39l200 -660c3.33301 -10 3 -18.667 -1 -26s-12 -11 -24 -11h-11c-6.66699 0 -12.5 2 -17.5 6s-8.16699 8.66699 -9.5 14l-80 257h-262zM325.999 677c-1.33301 2.66699 -2.83398 5.33301 -4.50098 8s-4.16699 4 -7.5 4c-4 0 -6.66699 -1 -8 -3 s-2.66602 -4.66699 -3.99902 -8l-103 -342h229zM465.998 787.999c0 -10.667 -6.33301 -15.999 -19 -15.999h-21c-7.33301 0 -12 1.16699 -14 3.5s-5 5.5 -9 9.5l-89 107l-86 -105c-4 -4.66699 -7.5 -8.33398 -10.5 -11.001s-8.16699 -4 -15.5 -4h-21 c-12.667 0 -19 5.33301 -19 16c0 6.66699 1.66699 12 5 16l97 123c5.33301 6.66699 10 11.334 14 14.001s9.66699 4 17 4h38c7.33301 0 13 -1.33301 17 -4s8.66699 -7.33398 14 -14.001l97 -123c3.33301 -4 5 -9.33301 5 -16z"/>
    <glyph glyph-name="Atilde" unicode="" horiz-adv-x="627" d="M182 274l-79.001 -257c-1.33301 -4.66699 -4.66602 -9.16699 -9.99902 -13.5s-10.666 -6.5 -15.999 -6.5h-12c-11.333 0 -19.166 3.66699 -23.499 11s-4.83301 16 -1.5 26l200 659c5.33301 16 14.166 29.167 26.499 39.5s28.166 15.5 47.499 15.5c18 0 33.333 -5 46 -15 s21.667 -23 27 -39l200 -660c3.33301 -10 3 -18.667 -1 -26s-12 -11 -24 -11h-11c-6.66699 0 -12.5 2 -17.5 6s-8.16699 8.66699 -9.5 14l-80 257h-262zM325.999 677c-1.33301 2.66699 -2.83398 5.33301 -4.50098 8s-4.16699 4 -7.5 4c-4 0 -6.66699 -1 -8 -3 s-2.66602 -4.66699 -3.99902 -8l-103 -342h229zM478.998 862.999c0 -33.333 -7.66699 -58 -23 -74s-36.333 -24 -63 -24c-14 0 -27.333 2.33301 -40 7s-23.667 11.667 -33 21l-46 46c-6.66699 6.66699 -12.834 12.334 -18.501 17.001s-12.167 7 -19.5 7 c-9.33301 0 -16.5 -2.83301 -21.5 -8.5s-7.5 -16.834 -7.5 -33.501v-25c0 -8.66699 -1.16699 -15 -3.5 -19s-8.16602 -6 -17.499 -6h-16c-8.66699 0 -14.334 2 -17.001 6s-4 10.333 -4 19v25c0 33.333 7.83301 58 23.5 74s36.834 24 63.501 24 c14.667 0 27.667 -2.16699 39 -6.5s22 -11.5 32 -21.5l46 -46c7.33301 -6.66699 14.333 -12.334 21 -17.001s13 -7 19 -7c8 0 14.667 2.83301 20 8.5s8 16.834 8 33.501v25c0 8.66699 1 15 3 19s7.66699 6 17 6h16c9.33301 0 15.333 -2 18 -6s4 -10.333 4 -19v-25z"/>
    <glyph glyph-name="Adieresis" unicode="" horiz-adv-x="627" d="M182 274l-79.001 -257c-1.33301 -4.66699 -4.66602 -9.16699 -9.99902 -13.5s-10.666 -6.5 -15.999 -6.5h-12c-11.333 0 -19.166 3.66699 -23.499 11s-4.83301 16 -1.5 26l200 659c5.33301 16 14.166 29.167 26.499 39.5s28.166 15.5 47.499 15.5c18 0 33.333 -5 46 -15 s21.667 -23 27 -39l200 -660c3.33301 -10 3 -18.667 -1 -26s-12 -11 -24 -11h-11c-6.66699 0 -12.5 2 -17.5 6s-8.16699 8.66699 -9.5 14l-80 257h-262zM325.999 677c-1.33301 2.66699 -2.83398 5.33301 -4.50098 8s-4.16699 4 -7.5 4c-4 0 -6.66699 -1 -8 -3 s-2.66602 -4.66699 -3.99902 -8l-103 -342h229zM419.998 818.999c0 -8.66699 -2.83301 -15.5 -8.5 -20.5s-12.5 -7.5 -20.5 -7.5h-6c-7.33301 0 -13.833 2.5 -19.5 7.5s-8.5 11.833 -8.5 20.5v71c0 7.33301 2.83301 13.833 8.5 19.5s12.167 8.5 19.5 8.5h6 c8 0 14.833 -2.83301 20.5 -8.5s8.5 -12.167 8.5 -19.5v-71zM275.998 818.999c0 -8.66699 -3 -15.5 -9 -20.5s-12.667 -7.5 -20 -7.5h-6c-8 0 -14.833 2.5 -20.5 7.5s-8.5 11.833 -8.5 20.5v71c0 7.33301 2.83301 13.833 8.5 19.5s12.5 8.5 20.5 8.5h6 c7.33301 0 14 -2.83301 20 -8.5s9 -12.167 9 -19.5v-71z"/>
    <glyph glyph-name="Aring" unicode="" horiz-adv-x="627" d="M190 274l-79.001 -257c-1.33301 -4.66699 -4.66602 -9.16699 -9.99902 -13.5s-10.666 -6.5 -15.999 -6.5h-12c-11.333 0 -19.166 3.66699 -23.499 11s-4.83301 16 -1.5 26l200 659c5.33301 16 14.166 29.167 26.499 39.5s28.166 15.5 47.499 15.5c18 0 33.333 -5 46 -15 s21.667 -23 27 -39l200 -660c3.33301 -10 3 -18.667 -1 -26s-12 -11 -24 -11h-11c-6.66699 0 -12.5 2 -17.5 6s-8.16699 8.66699 -9.5 14l-80 257h-262zM333.999 677c-1.33301 2.66699 -2.83398 5.33301 -4.50098 8s-4.16699 4 -7.5 4c-4 0 -6.66699 -1 -8 -3 s-2.66602 -4.66699 -3.99902 -8l-103 -342h229zM423.998 871.999c0 -13.333 -2.66699 -26.166 -8 -38.499s-12.5 -23 -21.5 -32s-19.5 -16.167 -31.5 -21.5s-25 -8 -39 -8s-27 2.66699 -39 8s-22.5 12.5 -31.5 21.5s-16.167 19.667 -21.5 32s-8 25.166 -8 38.499 s2.66699 26 8 38s12.5 22.5 21.5 31.5s19.5 16.167 31.5 21.5s25 8 39 8s27 -2.66699 39 -8s22.5 -12.5 31.5 -21.5s16.167 -19.5 21.5 -31.5s8 -24.667 8 -38zM368.998 871.999c0 12.667 -4.33301 23.5 -13 32.5s-19.334 13.5 -32.001 13.5s-23.167 -4.5 -31.5 -13.5 s-12.5 -19.833 -12.5 -32.5c0 -13.333 4.16699 -24.5 12.5 -33.5s18.833 -13.5 31.5 -13.5s23.334 4.5 32.001 13.5s13 20.167 13 33.5z"/>
    <glyph glyph-name="AE" unicode="" horiz-adv-x="880" d="M823 26c0 -7.33301 -2.83008 -13.5 -8.49707 -18.5s-12.5 -7.5 -20.5 -7.5h-289c-32 0 -55.167 7 -69.5 21s-21.5 36.667 -21.5 68v185h-242l-79 -257c-1.33301 -4.66699 -4.5 -9.16699 -9.5 -13.5s-10.167 -6.5 -15.5 -6.5h-13c-10.667 0 -18.167 3.66699 -22.5 11 s-4.83301 16 -1.5 26l200 654c5.33301 16.667 14.166 30 26.499 40s28.166 15 47.499 15h489c8 0 14.833 -2.5 20.5 -7.5s8.5 -11.167 8.5 -18.5v-8c0 -8 -2.83301 -14.167 -8.5 -18.5s-12.5 -6.5 -20.5 -6.5h-316v-264h316c8 0 14.833 -2.33301 20.5 -7s8.5 -11 8.5 -19v-9 c0 -8 -2.83301 -14.5 -8.5 -19.5s-12.5 -7.5 -20.5 -7.5h-316v-269c0 -10 1.66699 -17.5 5 -22.5s10.666 -7.5 21.999 -7.5h289c8 0 14.833 -2.16699 20.5 -6.5s8.5 -10.5 8.5 -18.5v-8zM414.003 684h-109c-6 0 -10 -4 -12 -12l-103 -336h224v348z"/>
    <glyph glyph-name="Ccedilla" unicode="" horiz-adv-x="547" d="M507 30c0 -7.33301 -2.83301 -13.168 -8.5 -17.501s-12.167 -7.16602 -19.5 -8.49902c-15.333 -2 -36.666 -4.16699 -63.999 -6.5s-62.333 -3.5 -105 -3.5c-32 0 -63 5 -93 15s-56.667 27 -80 51s-42 56.167 -56 96.5s-21 90.5 -21 150.5v128c0 60 7 110.167 21 150.5 s32.667 72.5 56 96.5s50 41 80 51s61 15 93 15c42 0 76.5 -1.16699 103.5 -3.5s48.833 -4.5 65.5 -6.5c7.33301 -1.33301 13.833 -4.16602 19.5 -8.49902s8.5 -10.166 8.5 -17.499v-12c0 -10 -2.66699 -16.333 -8 -19s-12.666 -3.33398 -21.999 -2.00098l-33.5 2.5 c-13 1 -27 2 -42 3s-30.333 1.66699 -46 2s-30.834 0.5 -45.501 0.5c-26 0 -50.333 -4.5 -73 -13.5s-42.167 -23.5 -58.5 -43.5s-29.333 -46 -39 -78s-14.5 -71 -14.5 -117v-128c0 -46 4.83301 -85 14.5 -117s22.667 -58 39 -78s35.833 -34.5 58.5 -43.5s47 -13.5 73 -13.5 c14.667 0 30 0.166992 46 0.5s31.5 1 46.5 2s29 1.83301 42 2.5s23.833 1.66699 32.5 3c9.33301 1.33301 16.666 0.666016 21.999 -2.00098s8 -9 8 -19v-12zM356 -50.002c0 -3.33301 -2.33301 -7.99902 -7 -13.999l-91 -109c-4 -4.66699 -7.5 -8.33398 -10.5 -11.001 s-8.16699 -4 -15.5 -4h-21c-12.667 0 -19 5.33301 -19 16c0 5.33301 2 10.666 6 15.999l81 104c5.33301 6.66699 9.83301 11.334 13.5 14.001s9.16699 4 16.5 4h26c14 0 21 -5.33301 21 -16z"/>
    <glyph glyph-name="Egrave" unicode="" horiz-adv-x="544" d="M498 26c0 -7.33301 -2.83301 -13.5 -8.5 -18.5s-12.5 -7.5 -20.5 -7.5h-252c-20 0 -38 2 -54 6s-29.5 10.667 -40.5 20s-19.333 21.5 -25 36.5s-8.5 33.833 -8.5 56.5v505c0 44.667 11.333 75.667 34 93s54 26 94 26h252c8 0 14.833 -2.5 20.5 -7.5 s8.5 -11.167 8.5 -18.5v-8c0 -8 -2.83301 -14.167 -8.5 -18.5s-12.5 -6.5 -20.5 -6.5h-252c-20 0 -35.667 -3.5 -47 -10.5s-17 -23.5 -17 -49.5v-204h316c8 0 14.833 -2.33301 20.5 -7s8.5 -11 8.5 -19v-9c0 -8 -2.83301 -14.5 -8.5 -19.5s-12.5 -7.5 -20.5 -7.5h-316v-239 c0 -26 5.66699 -42.5 17 -49.5s27 -10.5 47 -10.5h252c8 0 14.833 -2.16699 20.5 -6.5s8.5 -10.5 8.5 -18.5v-8zM359 788c0 -10.667 -6.33496 -15.999 -19.002 -15.999h-13c-9.33301 0 -16.666 1.5 -21.999 4.5s-11.666 9.16699 -18.999 18.5l-99 119 c-4.66699 4.66699 -7 9.66699 -7 15c0 10.667 7 16 21 16h25c7.33301 0 13 -1.33301 17 -4s8.66699 -7.33398 14 -14.001l97 -123c3.33301 -4 5 -9.33301 5 -16z"/>
    <glyph glyph-name="Eacute" unicode="" horiz-adv-x="544" d="M498 26c0 -7.33301 -2.83301 -13.5 -8.5 -18.5s-12.5 -7.5 -20.5 -7.5h-252c-20 0 -38 2 -54 6s-29.5 10.667 -40.5 20s-19.333 21.5 -25 36.5s-8.5 33.833 -8.5 56.5v505c0 44.667 11.333 75.667 34 93s54 26 94 26h252c8 0 14.833 -2.5 20.5 -7.5 s8.5 -11.167 8.5 -18.5v-8c0 -8 -2.83301 -14.167 -8.5 -18.5s-12.5 -6.5 -20.5 -6.5h-252c-20 0 -35.667 -3.5 -47 -10.5s-17 -23.5 -17 -49.5v-204h316c8 0 14.833 -2.33301 20.5 -7s8.5 -11 8.5 -19v-9c0 -8 -2.83301 -14.5 -8.5 -19.5s-12.5 -7.5 -20.5 -7.5h-316v-239 c0 -26 5.66699 -42.5 17 -49.5s27 -10.5 47 -10.5h252c8 0 14.833 -2.16699 20.5 -6.5s8.5 -10.5 8.5 -18.5v-8zM429 929c0 -3.33301 -2.33301 -7.99707 -7 -13.9971l-106 -128c-4 -4.66699 -7.66699 -8.33398 -11 -11.001s-8.33301 -4 -15 -4h-21 c-12.667 0 -19 5.33301 -19 16c0 5.33301 2 10.666 6 15.999l96 123c5.33301 7.33301 10 12.166 14 14.499s9.66699 3.5 17 3.5h25c14 0 21 -5.33301 21 -16z"/>
    <glyph glyph-name="Ecircumflex" unicode="" horiz-adv-x="544" d="M498 26c0 -7.33301 -2.83301 -13.5 -8.5 -18.5s-12.5 -7.5 -20.5 -7.5h-252c-20 0 -38 2 -54 6s-29.5 10.667 -40.5 20s-19.333 21.5 -25 36.5s-8.5 33.833 -8.5 56.5v505c0 44.667 11.333 75.667 34 93s54 26 94 26h252c8 0 14.833 -2.5 20.5 -7.5 s8.5 -11.167 8.5 -18.5v-8c0 -8 -2.83301 -14.167 -8.5 -18.5s-12.5 -6.5 -20.5 -6.5h-252c-20 0 -35.667 -3.5 -47 -10.5s-17 -23.5 -17 -49.5v-204h316c8 0 14.833 -2.33301 20.5 -7s8.5 -11 8.5 -19v-9c0 -8 -2.83301 -14.5 -8.5 -19.5s-12.5 -7.5 -20.5 -7.5h-316v-239 c0 -26 5.66699 -42.5 17 -49.5s27 -10.5 47 -10.5h252c8 0 14.833 -2.16699 20.5 -6.5s8.5 -10.5 8.5 -18.5v-8zM444 788c0 -10.667 -6.33301 -15.999 -19 -15.999h-21c-7.33301 0 -12 1.16699 -14 3.5s-5 5.5 -9 9.5l-89 107l-86 -105 c-4 -4.66699 -7.5 -8.33398 -10.5 -11.001s-8.16699 -4 -15.5 -4h-21c-12.667 0 -19 5.33301 -19 16c0 6.66699 1.66699 12 5 16l97 123c5.33301 6.66699 10 11.334 14 14.001s9.66699 4 17 4h38c7.33301 0 13 -1.33301 17 -4s8.66699 -7.33398 14 -14.001l97 -123 c3.33301 -4 5 -9.33301 5 -16z"/>
    <glyph glyph-name="Edieresis" unicode="" horiz-adv-x="544" d="M498 26c0 -7.33301 -2.83301 -13.5 -8.5 -18.5s-12.5 -7.5 -20.5 -7.5h-252c-20 0 -38 2 -54 6s-29.5 10.667 -40.5 20s-19.333 21.5 -25 36.5s-8.5 33.833 -8.5 56.5v505c0 44.667 11.333 75.667 34 93s54 26 94 26h252c8 0 14.833 -2.5 20.5 -7.5 s8.5 -11.167 8.5 -18.5v-8c0 -8 -2.83301 -14.167 -8.5 -18.5s-12.5 -6.5 -20.5 -6.5h-252c-20 0 -35.667 -3.5 -47 -10.5s-17 -23.5 -17 -49.5v-204h316c8 0 14.833 -2.33301 20.5 -7s8.5 -11 8.5 -19v-9c0 -8 -2.83301 -14.5 -8.5 -19.5s-12.5 -7.5 -20.5 -7.5h-316v-239 c0 -26 5.66699 -42.5 17 -49.5s27 -10.5 47 -10.5h252c8 0 14.833 -2.16699 20.5 -6.5s8.5 -10.5 8.5 -18.5v-8zM404 819c0 -8.66699 -2.83301 -15.5 -8.5 -20.5s-12.5 -7.5 -20.5 -7.5h-6c-7.33301 0 -13.833 2.5 -19.5 7.5s-8.5 11.833 -8.5 20.5v71 c0 7.33301 2.83301 13.833 8.5 19.5s12.167 8.5 19.5 8.5h6c8 0 14.833 -2.83301 20.5 -8.5s8.5 -12.167 8.5 -19.5v-71zM260 819c0 -8.66699 -3 -15.5 -9 -20.5s-12.667 -7.5 -20 -7.5h-6c-8 0 -14.833 2.5 -20.5 7.5s-8.5 11.833 -8.5 20.5v71 c0 7.33301 2.83301 13.833 8.5 19.5s12.5 8.5 20.5 8.5h6c7.33301 0 14 -2.83301 20 -8.5s9 -12.167 9 -19.5v-71z"/>
    <glyph glyph-name="Igrave" unicode="" horiz-adv-x="239" d="M155 28c0 -7.33301 -2.66699 -13.833 -8 -19.5s-12 -8.5 -20 -8.5h-9c-8 -0 -14.667 2.83301 -20 8.5s-8 12.167 -8 19.5v687c0 7.33301 2.66699 13.833 8 19.5s12 8.5 20 8.5h9c8 0 14.667 -2.83301 20 -8.5s8 -12.167 8 -19.5v-687zM192 788 c0 -10.667 -6.33496 -15.999 -19.002 -15.999h-13c-9.33301 0 -16.666 1.5 -21.999 4.5s-11.666 9.16699 -18.999 18.5l-99 119c-4.66699 4.66699 -7 9.66699 -7 15c0 10.667 7 16 21 16h25c7.33301 0 13 -1.33301 17 -4s8.66699 -7.33398 14 -14.001l97 -123 c3.33301 -4 5 -9.33301 5 -16z"/>
    <glyph glyph-name="Iacute" unicode="" horiz-adv-x="239" d="M155 28c0 -7.33301 -2.66699 -13.833 -8 -19.5s-12 -8.5 -20 -8.5h-9c-8 -0 -14.667 2.83301 -20 8.5s-8 12.167 -8 19.5v687c0 7.33301 2.66699 13.833 8 19.5s12 8.5 20 8.5h9c8 0 14.667 -2.83301 20 -8.5s8 -12.167 8 -19.5v-687zM230 929 c0 -3.33301 -2.33301 -7.99707 -7 -13.9971l-106 -128c-4 -4.66699 -7.66699 -8.33398 -11 -11.001s-8.33301 -4 -15 -4h-21c-12.667 0 -19 5.33301 -19 16c0 5.33301 2 10.666 6 15.999l96 123c5.33301 7.33301 10 12.166 14 14.499s9.66699 3.5 17 3.5h25 c14 0 21 -5.33301 21 -16z"/>
    <glyph glyph-name="Icircumflex" unicode="" horiz-adv-x="234" d="M163 28c0 -7.33301 -2.66699 -13.833 -8 -19.5s-12 -8.5 -20 -8.5h-9c-8 -0 -14.667 2.83301 -20 8.5s-8 12.167 -8 19.5v687c0 7.33301 2.66699 13.833 8 19.5s12 8.5 20 8.5h9c8 0 14.667 -2.83301 20 -8.5s8 -12.167 8 -19.5v-687zM278 788 c0 -10.667 -6.33301 -15.999 -19 -15.999h-21c-7.33301 0 -12 1.16699 -14 3.5s-5 5.5 -9 9.5l-89 107l-86 -105c-4 -4.66699 -7.5 -8.33398 -10.5 -11.001s-8.16699 -4 -15.5 -4h-21c-12.667 0 -19 5.33301 -19 16c0 6.66699 1.66699 12 5 16l97 123 c5.33301 6.66699 10 11.334 14 14.001s9.66699 4 17 4h38c7.33301 0 13 -1.33301 17 -4s8.66699 -7.33398 14 -14.001l97 -123c3.33301 -4 5 -9.33301 5 -16z"/>
    <glyph glyph-name="Idieresis" unicode="" horiz-adv-x="238" d="M165 28c0 -7.33301 -2.66699 -13.833 -8 -19.5s-12 -8.5 -20 -8.5h-9c-8 -0 -14.667 2.83301 -20 8.5s-8 12.167 -8 19.5v687c0 7.33301 2.66699 13.833 8 19.5s12 8.5 20 8.5h9c8 0 14.667 -2.83301 20 -8.5s8 -12.167 8 -19.5v-687zM234 819 c0 -8.66699 -2.83301 -15.5 -8.5 -20.5s-12.5 -7.5 -20.5 -7.5h-6c-7.33301 0 -13.833 2.5 -19.5 7.5s-8.5 11.833 -8.5 20.5v71c0 7.33301 2.83301 13.833 8.5 19.5s12.167 8.5 19.5 8.5h6c8 0 14.833 -2.83301 20.5 -8.5s8.5 -12.167 8.5 -19.5v-71zM90 819 c0 -8.66699 -3 -15.5 -9 -20.5s-12.667 -7.5 -20 -7.5h-6c-8 0 -14.833 2.5 -20.5 7.5s-8.5 11.833 -8.5 20.5v71c0 7.33301 2.83301 13.833 8.5 19.5s12.5 8.5 20.5 8.5h6c7.33301 0 14 -2.83301 20 -8.5s9 -12.167 9 -19.5v-71z"/>
    <glyph glyph-name="Eth" unicode="" horiz-adv-x="620" d="M560 311c0 -58 -7.33301 -106.999 -22 -146.999s-35.167 -72.667 -61.5 -98s-57.5 -43.666 -93.5 -54.999s-75.333 -17 -118 -17c-40 0 -73.5 0.666992 -100.5 2s-47.5 3.33301 -61.5 6c-7.33301 1.33301 -13.333 4.66602 -18 9.99902s-7 11.333 -7 18v328h-59 c-8 0 -14.833 2.5 -20.5 7.5s-8.5 11.5 -8.5 19.5v9c0 8 2.83301 14.333 8.5 19s12.5 7 20.5 7h59v292c0 6.66699 2.33301 12.667 7 18s10.667 8.66602 18 9.99902c14 2.66699 34.5 4.66699 61.5 6s60.5 2 100.5 2c42.667 0 82 -5.5 118 -16.5s67.167 -29 93.5 -54 s46.833 -57.667 61.5 -98s22 -89.833 22 -148.5v-120zM495 431.001c0 50 -5.83301 91.668 -17.5 125.001s-27.834 59.833 -48.501 79.5s-45 33.667 -73 42s-58.333 12.5 -91 12.5c-24.667 0 -46 -0.333008 -64 -1s-37.667 -1.66699 -59 -3v-266h72 c8.66699 0 15.667 -2.33301 21 -7s8 -11 8 -19v-9c0 -8 -2.66699 -14.5 -8 -19.5s-12.333 -7.5 -21 -7.5h-72v-303c34.667 -2 75.667 -3 123 -3c32.667 0 63 4.16699 91 12.5s52.333 22.5 73 42.5s36.834 46.667 48.501 80s17.5 74.666 17.5 123.999v120z"/>
    <glyph glyph-name="Ntilde" unicode="" horiz-adv-x="660" d="M589 54c0 -18.667 -5.33496 -33.333 -16.002 -44s-23.667 -16 -39 -16h-5c-16.667 0 -28.5 3 -35.5 9s-13.5 14.667 -19.5 26l-320 642v-643c0 -7.33301 -2.66699 -13.833 -8 -19.5s-12 -8.5 -20 -8.5h-9c-8 -0 -14.667 2.83301 -20 8.5s-8 12.167 -8 19.5v662 c0 16.667 5 30.167 15 40.5s22.667 16.166 38 17.499h6c16.667 0 28.834 -3.16699 36.501 -9.5s14.167 -15.166 19.5 -26.499l320 -641v644c0 7.33301 2.16699 13.833 6.5 19.5s10.833 8.5 19.5 8.5h12c8.66699 0 15.334 -2.83301 20.001 -8.5s7 -12.167 7 -19.5v-661z M503.998 863.001c0 -33.333 -7.66699 -58 -23 -74s-36.333 -24 -63 -24c-14 0 -27.333 2.33301 -40 7s-23.667 11.667 -33 21l-46 46c-6.66699 6.66699 -12.834 12.334 -18.501 17.001s-12.167 7 -19.5 7c-9.33301 0 -16.5 -2.83301 -21.5 -8.5s-7.5 -16.834 -7.5 -33.501 v-25c0 -8.66699 -1.16699 -15 -3.5 -19s-8.16602 -6 -17.499 -6h-16c-8.66699 0 -14.334 2 -17.001 6s-4 10.333 -4 19v25c0 33.333 7.83301 58 23.5 74s36.834 24 63.501 24c14.667 0 27.667 -2.16699 39 -6.5s22 -11.5 32 -21.5l46 -46 c7.33301 -6.66699 14.333 -12.334 21 -17.001s13 -7 19 -7c8 0 14.667 2.83301 20 8.5s8 16.834 8 33.501v25c0 8.66699 1 15 3 19s7.66699 6 17 6h16c9.33301 0 15.333 -2 18 -6s4 -10.333 4 -19v-25z"/>
    <glyph glyph-name="Ograve" unicode="" horiz-adv-x="640" d="M580 311c0 -56 -6.5 -104 -19.5 -144s-31 -72.833 -54 -98.5s-50.333 -44.5 -82 -56.5s-66.5 -18 -104.5 -18s-72.833 6 -104.5 18s-59 30.833 -82 56.5s-41 58.5 -54 98.5s-19.5 88 -19.5 144v120c0 56 6.5 104 19.5 144s31 72.833 54 98.5s50.333 44.5 82 56.5 s66.5 18 104.5 18s72.833 -6 104.5 -18s59 -30.833 82 -56.5s41 -58.5 54 -98.5s19.5 -88 19.5 -144v-120zM516 431c0 48 -5 88.333 -15 121s-23.667 59 -41 79s-38 34.333 -62 43s-50 13 -78 13s-54 -4.33301 -78 -13s-44.667 -23 -62 -43s-31 -46.333 -41 -79 s-15 -73 -15 -121v-120c0 -48 5 -88.333 15 -121s23.667 -59 41 -79s38 -34.333 62 -43s50 -13 78 -13s54 4.33301 78 13s44.667 23 62 43s31 46.333 41 79s15 73 15 121v120zM385 788c0 -10.667 -6.33496 -15.999 -19.002 -15.999h-13c-9.33301 0 -16.666 1.5 -21.999 4.5 s-11.666 9.16699 -18.999 18.5l-99 119c-4.66699 4.66699 -7 9.66699 -7 15c0 10.667 7 16 21 16h25c7.33301 0 13 -1.33301 17 -4s8.66699 -7.33398 14 -14.001l97 -123c3.33301 -4 5 -9.33301 5 -16z"/>
    <glyph glyph-name="Oacute" unicode="" horiz-adv-x="640" d="M588 311c0 -56 -6.5 -104 -19.5 -144s-31 -72.833 -54 -98.5s-50.333 -44.5 -82 -56.5s-66.5 -18 -104.5 -18s-72.833 6 -104.5 18s-59 30.833 -82 56.5s-41 58.5 -54 98.5s-19.5 88 -19.5 144v120c0 56 6.5 104 19.5 144s31 72.833 54 98.5s50.333 44.5 82 56.5 s66.5 18 104.5 18s72.833 -6 104.5 -18s59 -30.833 82 -56.5s41 -58.5 54 -98.5s19.5 -88 19.5 -144v-120zM524 431c0 48 -5 88.333 -15 121s-23.667 59 -41 79s-38 34.333 -62 43s-50 13 -78 13s-54 -4.33301 -78 -13s-44.667 -23 -62 -43s-31 -46.333 -41 -79 s-15 -73 -15 -121v-120c0 -48 5 -88.333 15 -121s23.667 -59 41 -79s38 -34.333 62 -43s50 -13 78 -13s54 4.33301 78 13s44.667 23 62 43s31 46.333 41 79s15 73 15 121v120zM440 929c0 -3.33301 -2.33301 -7.99707 -7 -13.9971l-106 -128 c-4 -4.66699 -7.66699 -8.33398 -11 -11.001s-8.33301 -4 -15 -4h-21c-12.667 0 -19 5.33301 -19 16c0 5.33301 2 10.666 6 15.999l96 123c5.33301 7.33301 10 12.166 14 14.499s9.66699 3.5 17 3.5h25c14 0 21 -5.33301 21 -16z"/>
    <glyph glyph-name="Ocircumflex" unicode="" horiz-adv-x="640" d="M588 311c0 -56 -6.5 -104 -19.5 -144s-31 -72.833 -54 -98.5s-50.333 -44.5 -82 -56.5s-66.5 -18 -104.5 -18s-72.833 6 -104.5 18s-59 30.833 -82 56.5s-41 58.5 -54 98.5s-19.5 88 -19.5 144v120c0 56 6.5 104 19.5 144s31 72.833 54 98.5s50.333 44.5 82 56.5 s66.5 18 104.5 18s72.833 -6 104.5 -18s59 -30.833 82 -56.5s41 -58.5 54 -98.5s19.5 -88 19.5 -144v-120zM524 431c0 48 -5 88.333 -15 121s-23.667 59 -41 79s-38 34.333 -62 43s-50 13 -78 13s-54 -4.33301 -78 -13s-44.667 -23 -62 -43s-31 -46.333 -41 -79 s-15 -73 -15 -121v-120c0 -48 5 -88.333 15 -121s23.667 -59 41 -79s38 -34.333 62 -43s50 -13 78 -13s54 4.33301 78 13s44.667 23 62 43s31 46.333 41 79s15 73 15 121v120zM481 788c0 -10.667 -6.33301 -15.999 -19 -15.999h-21c-7.33301 0 -12 1.16699 -14 3.5 s-5 5.5 -9 9.5l-89 107l-86 -105c-4 -4.66699 -7.5 -8.33398 -10.5 -11.001s-8.16699 -4 -15.5 -4h-21c-12.667 0 -19 5.33301 -19 16c0 6.66699 1.66699 12 5 16l97 123c5.33301 6.66699 10 11.334 14 14.001s9.66699 4 17 4h38c7.33301 0 13 -1.33301 17 -4 s8.66699 -7.33398 14 -14.001l97 -123c3.33301 -4 5 -9.33301 5 -16z"/>
    <glyph glyph-name="Otilde" unicode="" horiz-adv-x="640" d="M588 311c0 -56 -6.5 -104 -19.5 -144s-31 -72.833 -54 -98.5s-50.333 -44.5 -82 -56.5s-66.5 -18 -104.5 -18s-72.833 6 -104.5 18s-59 30.833 -82 56.5s-41 58.5 -54 98.5s-19.5 88 -19.5 144v120c0 56 6.5 104 19.5 144s31 72.833 54 98.5s50.333 44.5 82 56.5 s66.5 18 104.5 18s72.833 -6 104.5 -18s59 -30.833 82 -56.5s41 -58.5 54 -98.5s19.5 -88 19.5 -144v-120zM524 431c0 48 -5 88.333 -15 121s-23.667 59 -41 79s-38 34.333 -62 43s-50 13 -78 13s-54 -4.33301 -78 -13s-44.667 -23 -62 -43s-31 -46.333 -41 -79 s-15 -73 -15 -121v-120c0 -48 5 -88.333 15 -121s23.667 -59 41 -79s38 -34.333 62 -43s50 -13 78 -13s54 4.33301 78 13s44.667 23 62 43s31 46.333 41 79s15 73 15 121v120zM494 863c0 -33.333 -7.66699 -58 -23 -74s-36.333 -24 -63 -24c-14 0 -27.333 2.33301 -40 7 s-23.667 11.667 -33 21l-46 46c-6.66699 6.66699 -12.834 12.334 -18.501 17.001s-12.167 7 -19.5 7c-9.33301 0 -16.5 -2.83301 -21.5 -8.5s-7.5 -16.834 -7.5 -33.501v-25c0 -8.66699 -1.16699 -15 -3.5 -19s-8.16602 -6 -17.499 -6h-16c-8.66699 0 -14.334 2 -17.001 6 s-4 10.333 -4 19v25c0 33.333 7.83301 58 23.5 74s36.834 24 63.501 24c14.667 0 27.667 -2.16699 39 -6.5s22 -11.5 32 -21.5l46 -46c7.33301 -6.66699 14.333 -12.334 21 -17.001s13 -7 19 -7c8 0 14.667 2.83301 20 8.5s8 16.834 8 33.501v25c0 8.66699 1 15 3 19 s7.66699 6 17 6h16c9.33301 0 15.333 -2 18 -6s4 -10.333 4 -19v-25z"/>
    <glyph glyph-name="Odieresis" unicode="" horiz-adv-x="640" d="M588 311c0 -56 -6.5 -104 -19.5 -144s-31 -72.833 -54 -98.5s-50.333 -44.5 -82 -56.5s-66.5 -18 -104.5 -18s-72.833 6 -104.5 18s-59 30.833 -82 56.5s-41 58.5 -54 98.5s-19.5 88 -19.5 144v120c0 56 6.5 104 19.5 144s31 72.833 54 98.5s50.333 44.5 82 56.5 s66.5 18 104.5 18s72.833 -6 104.5 -18s59 -30.833 82 -56.5s41 -58.5 54 -98.5s19.5 -88 19.5 -144v-120zM524 431c0 48 -5 88.333 -15 121s-23.667 59 -41 79s-38 34.333 -62 43s-50 13 -78 13s-54 -4.33301 -78 -13s-44.667 -23 -62 -43s-31 -46.333 -41 -79 s-15 -73 -15 -121v-120c0 -48 5 -88.333 15 -121s23.667 -59 41 -79s38 -34.333 62 -43s50 -13 78 -13s54 4.33301 78 13s44.667 23 62 43s31 46.333 41 79s15 73 15 121v120zM435 819c0 -8.66699 -2.83301 -15.5 -8.5 -20.5s-12.5 -7.5 -20.5 -7.5h-6 c-7.33301 0 -13.833 2.5 -19.5 7.5s-8.5 11.833 -8.5 20.5v71c0 7.33301 2.83301 13.833 8.5 19.5s12.167 8.5 19.5 8.5h6c8 0 14.833 -2.83301 20.5 -8.5s8.5 -12.167 8.5 -19.5v-71zM291 819c0 -8.66699 -3 -15.5 -9 -20.5s-12.667 -7.5 -20 -7.5h-6 c-8 0 -14.833 2.5 -20.5 7.5s-8.5 11.833 -8.5 20.5v71c0 7.33301 2.83301 13.833 8.5 19.5s12.5 8.5 20.5 8.5h6c7.33301 0 14 -2.83301 20 -8.5s9 -12.167 9 -19.5v-71z"/>
    <glyph glyph-name="multiply" unicode="" horiz-adv-x="590" d="M468 255c5.33301 -4.66699 9 -10.332 11 -16.999s-0.666992 -13.667 -8 -21l-7 -7c-6 -6 -12.667 -8.5 -20 -7.5s-14 4.5 -20 10.5l-129 130l-129 -129c-5.33301 -5.33301 -11.5 -9 -18.5 -11s-14.5 0.666992 -22.5 8l-7 7c-6 6 -8.33301 12.5 -7 19.5 s4.66602 13.167 9.99902 18.5l130 131l-130 130c-5.33301 4.66699 -9 10.167 -11 16.5s0.666992 13.166 8 20.499l7 7c6.66699 6.66699 13.667 9.5 21 8.5s14 -4.83301 20 -11.5l129 -129l129 130c5.33301 5.33301 11.5 9 18.5 11s14.167 -0.666992 21.5 -8l7 -7 c6.66699 -6 9.33398 -12.5 8.00098 -19.5s-5 -13.167 -11 -18.5l-131 -130z"/>
    <glyph glyph-name="Oslash" unicode="" horiz-adv-x="639" d="M577 743c9.33301 0 16.668 -3.5 22.001 -10.5s5 -14.833 -1 -23.5l-59 -82c13.333 -24 23.5 -52.167 30.5 -84.5s10.5 -69.5 10.5 -111.5v-120c0 -56 -6.5 -104 -19.5 -144s-31 -72.833 -54 -98.5s-50.333 -44.5 -82 -56.5s-66.5 -18 -104.5 -18 c-36 0 -69.5 5.83301 -100.5 17.5s-58.167 29.5 -81.5 53.5l-36 -48c-3.33301 -5.33301 -8 -10.5 -14 -15.5s-13.667 -7.5 -23 -7.5h-5c-7.33301 0 -13.166 1.83301 -17.499 5.5s-6.5 8.16699 -6.5 13.5c0 4.66699 1.66699 9.66699 5 15l61 85 c-13.333 24.667 -23.666 53.667 -30.999 87s-11 70.333 -11 111v120c0 56 6.5 104 19.5 144s31 72.833 54 98.5s50.333 44.5 82 56.5s66.5 18 104.5 18s72.667 -5.83301 104 -17.5s58.666 -30.167 81.999 -55.5l32 46c3.33301 4.66699 7.66602 9.5 12.999 14.5 s12.666 7.5 21.999 7.5h4zM467.002 622c-17.333 23.333 -38.667 40 -64 50s-53 15 -83 15c-28 0 -54 -4.33301 -78 -13s-44.667 -23 -62 -43s-31 -46.333 -41 -79s-15 -73 -15 -121v-120c0 -30.667 1.5 -57.167 4.5 -79.5s8.16699 -42.5 15.5 -60.5zM516.001 431 c0 26.667 -1.83105 51.499 -5.49805 74.499s-8.5 43.167 -14.5 60.5l-161 -224l-161 -224c17.333 -21.333 38.666 -37.166 63.999 -47.499s52.666 -15.5 81.999 -15.5c28 0 54 4.33301 78 13s44.667 23 62 43s31 46.333 41 79s15 73 15 121v120z"/>
    <glyph glyph-name="Ugrave" unicode="" horiz-adv-x="642" d="M571 267c0 -85.333 -19.332 -152.166 -57.999 -200.499s-99.334 -72.5 -182.001 -72.5c-83.333 0 -144.5 24.167 -183.5 72.5s-58.5 115.166 -58.5 200.499v448c0 7.33301 2.66699 13.833 8 19.5s12 8.5 20 8.5h9c8 0 14.667 -2.83301 20 -8.5s8 -12.167 8 -19.5v-448 c0 -68 13.333 -120.5 40 -157.5s72.334 -55.5 137.001 -55.5c64 0 109.333 18.5 136 55.5s40 89.5 40 157.5v448c0 7.33301 2.66699 13.833 8 19.5s11.666 8.5 18.999 8.5h10c8 0 14.5 -2.83301 19.5 -8.5s7.5 -12.167 7.5 -19.5v-448zM392.001 788 c0 -10.667 -6.33496 -15.999 -19.002 -15.999h-13c-9.33301 0 -16.666 1.5 -21.999 4.5s-11.666 9.16699 -18.999 18.5l-99 119c-4.66699 4.66699 -7 9.66699 -7 15c0 10.667 7 16 21 16h25c7.33301 0 13 -1.33301 17 -4s8.66699 -7.33398 14 -14.001l97 -123 c3.33301 -4 5 -9.33301 5 -16z"/>
    <glyph glyph-name="Uacute" unicode="" horiz-adv-x="642" d="M571 267c0 -85.333 -19.332 -152.166 -57.999 -200.499s-99.334 -72.5 -182.001 -72.5c-83.333 0 -144.5 24.167 -183.5 72.5s-58.5 115.166 -58.5 200.499v448c0 7.33301 2.66699 13.833 8 19.5s12 8.5 20 8.5h9c8 0 14.667 -2.83301 20 -8.5s8 -12.167 8 -19.5v-448 c0 -68 13.333 -120.5 40 -157.5s72.334 -55.5 137.001 -55.5c64 0 109.333 18.5 136 55.5s40 89.5 40 157.5v448c0 7.33301 2.66699 13.833 8 19.5s11.666 8.5 18.999 8.5h10c8 0 14.5 -2.83301 19.5 -8.5s7.5 -12.167 7.5 -19.5v-448zM452.001 929 c0 -3.33301 -2.33301 -7.99707 -7 -13.9971l-106 -128c-4 -4.66699 -7.66699 -8.33398 -11 -11.001s-8.33301 -4 -15 -4h-21c-12.667 0 -19 5.33301 -19 16c0 5.33301 2 10.666 6 15.999l96 123c5.33301 7.33301 10 12.166 14 14.499s9.66699 3.5 17 3.5h25 c14 0 21 -5.33301 21 -16z"/>
    <glyph glyph-name="Ucircumflex" unicode="" horiz-adv-x="642" d="M571 267c0 -85.333 -19.332 -152.166 -57.999 -200.499s-99.334 -72.5 -182.001 -72.5c-83.333 0 -144.5 24.167 -183.5 72.5s-58.5 115.166 -58.5 200.499v448c0 7.33301 2.66699 13.833 8 19.5s12 8.5 20 8.5h9c8 0 14.667 -2.83301 20 -8.5s8 -12.167 8 -19.5v-448 c0 -68 13.333 -120.5 40 -157.5s72.334 -55.5 137.001 -55.5c64 0 109.333 18.5 136 55.5s40 89.5 40 157.5v448c0 7.33301 2.66699 13.833 8 19.5s11.666 8.5 18.999 8.5h10c8 0 14.5 -2.83301 19.5 -8.5s7.5 -12.167 7.5 -19.5v-448zM482.001 788 c0 -10.667 -6.33301 -15.999 -19 -15.999h-21c-7.33301 0 -12 1.16699 -14 3.5s-5 5.5 -9 9.5l-89 107l-86 -105c-4 -4.66699 -7.5 -8.33398 -10.5 -11.001s-8.16699 -4 -15.5 -4h-21c-12.667 0 -19 5.33301 -19 16c0 6.66699 1.66699 12 5 16l97 123 c5.33301 6.66699 10 11.334 14 14.001s9.66699 4 17 4h38c7.33301 0 13 -1.33301 17 -4s8.66699 -7.33398 14 -14.001l97 -123c3.33301 -4 5 -9.33301 5 -16z"/>
    <glyph glyph-name="Udieresis" unicode="" horiz-adv-x="642" d="M571 267c0 -85.333 -19.332 -152.166 -57.999 -200.499s-99.334 -72.5 -182.001 -72.5c-83.333 0 -144.5 24.167 -183.5 72.5s-58.5 115.166 -58.5 200.499v448c0 7.33301 2.66699 13.833 8 19.5s12 8.5 20 8.5h9c8 0 14.667 -2.83301 20 -8.5s8 -12.167 8 -19.5v-448 c0 -68 13.333 -120.5 40 -157.5s72.334 -55.5 137.001 -55.5c64 0 109.333 18.5 136 55.5s40 89.5 40 157.5v448c0 7.33301 2.66699 13.833 8 19.5s11.666 8.5 18.999 8.5h10c8 0 14.5 -2.83301 19.5 -8.5s7.5 -12.167 7.5 -19.5v-448zM436.001 819 c0 -8.66699 -2.83301 -15.5 -8.5 -20.5s-12.5 -7.5 -20.5 -7.5h-6c-7.33301 0 -13.833 2.5 -19.5 7.5s-8.5 11.833 -8.5 20.5v71c0 7.33301 2.83301 13.833 8.5 19.5s12.167 8.5 19.5 8.5h6c8 0 14.833 -2.83301 20.5 -8.5s8.5 -12.167 8.5 -19.5v-71zM292.001 819 c0 -8.66699 -3 -15.5 -9 -20.5s-12.667 -7.5 -20 -7.5h-6c-8 0 -14.833 2.5 -20.5 7.5s-8.5 11.833 -8.5 20.5v71c0 7.33301 2.83301 13.833 8.5 19.5s12.5 8.5 20.5 8.5h6c7.33301 0 14 -2.83301 20 -8.5s9 -12.167 9 -19.5v-71z"/>
    <glyph glyph-name="Yacute" unicode="" horiz-adv-x="560" d="M364 363c-7.33301 -16.667 -14.6631 -29.501 -21.9961 -38.501s-14.666 -15.5 -21.999 -19.5v-277c0 -7.33301 -2.66699 -13.833 -8 -19.5s-12 -8.5 -20 -8.5h-9c-8 0 -14.667 2.83301 -20 8.5s-8 12.167 -8 19.5v277c-7.33301 4 -14.833 10.333 -22.5 19 s-15.167 21.667 -22.5 39l-153 340c-4.66699 9.33301 -4.5 18.333 0.5 27s13.167 13 24.5 13h10c10 0 17.667 -6 23 -18l153 -340c5.33301 -12 9.16602 -19.833 11.499 -23.5s4.83301 -5.5 7.5 -5.5c3.33301 0 6.16602 1.83301 8.49902 5.5s6.16602 11.5 11.499 23.5 l153 340c2 4.66699 5.33301 8.83398 10 12.501s9.66699 5.5 15 5.5h10c11.333 0 19.166 -4.16699 23.499 -12.5s4.16602 -17.5 -0.500977 -27.5zM414.003 928.999c0 -3.33301 -2.33301 -7.99707 -7 -13.9971l-106 -128c-4 -4.66699 -7.66699 -8.33398 -11 -11.001 s-8.33301 -4 -15 -4h-21c-12.667 0 -19 5.33301 -19 16c0 5.33301 2 10.666 6 15.999l96 123c5.33301 7.33301 10 12.166 14 14.499s9.66699 3.5 17 3.5h25c14 0 21 -5.33301 21 -16z"/>
    <glyph glyph-name="Thorn" unicode="" horiz-adv-x="550" d="M515 430c0 -40 -6.33496 -73.833 -19.002 -101.5s-30.667 -50.167 -54 -67.5s-52.166 -29.833 -86.499 -37.5s-72.833 -11.5 -115.5 -11.5c-19.333 0 -36.666 0.166992 -51.999 0.5s-30 1.16602 -44 2.49902v-187c0 -7.33301 -2.5 -13.833 -7.5 -19.5 s-11.5 -8.5 -19.5 -8.5h-10c-7.33301 0 -13.666 2.83301 -18.999 8.5s-8 12.167 -8 19.5v687c0 7.33301 2.66699 13.833 8 19.5s11.666 8.5 18.999 8.5h10c8 0 14.5 -2.83301 19.5 -8.5s7.5 -12.167 7.5 -19.5v-63c15.333 1.33301 31.5 2 48.5 2h47.5 c86 0 153.333 -16.167 202 -48.5s73 -85.166 73 -158.499v-17zM450.998 447c0 56.667 -18 95.832 -54 117.499s-88.333 32.5 -157 32.5h-52.5c-14.333 0 -28.833 -0.666992 -43.5 -2v-322c14 -1.33301 30 -2.16602 48 -2.49902s34 -0.5 48 -0.5 c72 0 125.167 12.167 159.5 36.5s51.5 65.5 51.5 123.5v17z"/>
    <glyph glyph-name="germandbls" unicode="" horiz-adv-x="549" d="M278 740c28.667 0 55.334 -4.00195 80.001 -12.002s45.667 -19.667 63 -35s31 -34.833 41 -58.5s15 -50.834 15 -81.501v-6c0 -18 -2.66699 -35.167 -8 -51.5s-12.5 -31.166 -21.5 -44.499s-19.5 -25.333 -31.5 -36s-24.333 -19.334 -37 -26.001 c32.667 -14.667 60 -37 82 -67s33 -64.333 33 -103v-8c0 -40 -6.5 -73.667 -19.5 -101s-30.167 -49.666 -51.5 -66.999s-46.333 -29.833 -75 -37.5s-58.334 -11.5 -89.001 -11.5c-10.667 0 -20.167 0.333008 -28.5 1s-14.833 1.66699 -19.5 3 c-14 4.66699 -21 13.334 -21 26.001v8c0 8.66699 3 14.334 9 17.001s13 4 21 4c5.33301 0 9.83301 -0.166992 13.5 -0.5s6.5 -0.5 8.5 -0.5c3.33301 0 6.16602 -0.166992 8.49902 -0.5s5.16602 -0.5 8.49902 -0.5c54.667 0 96.834 12.5 126.501 37.5s44.5 65.833 44.5 122.5 v8c0 19.333 -3.66699 37.333 -11 54s-18 31.334 -32 44.001s-31.167 22.5 -51.5 29.5s-43.833 10.5 -70.5 10.5h-40c-8 0 -15 1.83301 -21 5.5s-9 10.167 -9 19.5v8c0 9.33301 3 15.833 9 19.5s13 5.5 21 5.5h40c26 0 48.333 3.66699 67 11s34 17.166 46 29.499 s20.833 26.333 26.5 42s8.5 32.167 8.5 49.5v6c0 40.667 -10.667 72.5 -32 95.5s-55.666 34.5 -102.999 34.5c-18.667 0 -36.334 -2.83301 -53.001 -8.5s-31.5 -15.334 -44.5 -29.001s-23.333 -32 -31 -55s-11.5 -51.5 -11.5 -85.5v-476c0 -8 -2.16699 -14.833 -6.5 -20.5 s-11.166 -8.5 -20.499 -8.5h-11c-9.33301 0 -15.833 2.83301 -19.5 8.5s-5.5 12.5 -5.5 20.5v475c0 40 5.16699 74.833 15.5 104.5s24.5 54.334 42.5 74.001s39.333 34.167 64 43.5s51.667 14 81 14z"/>
    <glyph glyph-name="agrave" unicode="" horiz-adv-x="496" d="M426 29c0 -8 -3.00586 -14.835 -9.00586 -20.502s-13 -8.5 -21 -8.5h-5c-8 0 -15 2.83301 -21 8.5s-9 12.5 -9 20.5v7c-22 -11.333 -46 -21.166 -72 -29.499s-53 -12.5 -81 -12.5c-19.333 0 -38.333 2.66699 -57 8s-35.5 14.166 -50.5 26.499 s-27.167 29.166 -36.5 50.499s-14 48 -14 80v13c0 26.667 4.33301 49.834 13 69.501s22.834 36 42.501 49s45.334 22.833 77.001 29.5s70.5 10 116.5 10h63v25c0 23.333 -1.83301 43.166 -5.5 59.499s-9.66699 29.833 -18 40.5s-19.666 18.334 -33.999 23.001 s-32.166 7 -53.499 7c-14 0 -26.5 -0.166992 -37.5 -0.5s-21.667 -0.833008 -32 -1.5s-20.833 -1.5 -31.5 -2.5s-22.334 -2.5 -35.001 -4.5c-7.33301 -1.33301 -14.666 -0.666016 -21.999 2.00098s-11 10 -11 22v6c0 10 2.5 16.667 7.5 20s12.833 5.66602 23.5 6.99902 c20.667 2.66699 40.834 4.83398 60.501 6.50098s45.5 2.5 77.5 2.5c34.667 0 63.334 -4.66699 86.001 -14s40.5 -22.166 53.5 -38.499s22.167 -36 27.5 -59s8 -48.167 8 -75.5v-326zM361.994 272.998l-62.9961 0.000976562c-34.667 0 -63.834 -1.66699 -87.501 -5 s-42.834 -9 -57.501 -17s-25.167 -18.5 -31.5 -31.5s-9.5 -28.833 -9.5 -47.5v-13c0 -20.667 2.5 -37.834 7.5 -51.501s11.833 -24.667 20.5 -33s18.667 -14.333 30 -18s23.666 -5.5 36.999 -5.5c24.667 0 49.167 3.83301 73.5 11.5s51.166 18.5 80.499 32.5v178z M306.998 611.999c0 -10.667 -6.33496 -15.999 -19.002 -15.999h-13c-9.33301 0 -16.666 1.5 -21.999 4.5s-11.666 9.16699 -18.999 18.5l-99 119c-4.66699 4.66699 -7 9.66699 -7 15c0 10.667 7 16 21 16h25c7.33301 0 13 -1.33301 17 -4s8.66699 -7.33398 14 -14.001 l97 -123c3.33301 -4 5 -9.33301 5 -16z"/>
    <glyph glyph-name="aacute" unicode="" horiz-adv-x="496" d="M426 29c0 -8 -3.00586 -14.835 -9.00586 -20.502s-13 -8.5 -21 -8.5h-5c-8 0 -15 2.83301 -21 8.5s-9 12.5 -9 20.5v7c-22 -11.333 -46 -21.166 -72 -29.499s-53 -12.5 -81 -12.5c-19.333 0 -38.333 2.66699 -57 8s-35.5 14.166 -50.5 26.499 s-27.167 29.166 -36.5 50.499s-14 48 -14 80v13c0 26.667 4.33301 49.834 13 69.501s22.834 36 42.501 49s45.334 22.833 77.001 29.5s70.5 10 116.5 10h63v25c0 23.333 -1.83301 43.166 -5.5 59.499s-9.66699 29.833 -18 40.5s-19.666 18.334 -33.999 23.001 s-32.166 7 -53.499 7c-14 0 -26.5 -0.166992 -37.5 -0.5s-21.667 -0.833008 -32 -1.5s-20.833 -1.5 -31.5 -2.5s-22.334 -2.5 -35.001 -4.5c-7.33301 -1.33301 -14.666 -0.666016 -21.999 2.00098s-11 10 -11 22v6c0 10 2.5 16.667 7.5 20s12.833 5.66602 23.5 6.99902 c20.667 2.66699 40.834 4.83398 60.501 6.50098s45.5 2.5 77.5 2.5c34.667 0 63.334 -4.66699 86.001 -14s40.5 -22.166 53.5 -38.499s22.167 -36 27.5 -59s8 -48.167 8 -75.5v-326zM361.994 272.998l-62.9961 0.000976562c-34.667 0 -63.834 -1.66699 -87.501 -5 s-42.834 -9 -57.501 -17s-25.167 -18.5 -31.5 -31.5s-9.5 -28.833 -9.5 -47.5v-13c0 -20.667 2.5 -37.834 7.5 -51.501s11.833 -24.667 20.5 -33s18.667 -14.333 30 -18s23.666 -5.5 36.999 -5.5c24.667 0 49.167 3.83301 73.5 11.5s51.166 18.5 80.499 32.5v178z M376.998 752.999c0 -3.33301 -2.33301 -7.99707 -7 -13.9971l-106 -128c-4 -4.66699 -7.66699 -8.33398 -11 -11.001s-8.33301 -4 -15 -4h-21c-12.667 0 -19 5.33301 -19 16c0 5.33301 2 10.666 6 15.999l96 123c5.33301 7.33301 10 12.166 14 14.499s9.66699 3.5 17 3.5h25 c14 0 21 -5.33301 21 -16z"/>
    <glyph glyph-name="acircumflex" unicode="" horiz-adv-x="496" d="M434 29c0 -8 -3.00586 -14.835 -9.00586 -20.502s-13 -8.5 -21 -8.5h-5c-8 0 -15 2.83301 -21 8.5s-9 12.5 -9 20.5v7c-22 -11.333 -46 -21.166 -72 -29.499s-53 -12.5 -81 -12.5c-19.333 0 -38.333 2.66699 -57 8s-35.5 14.166 -50.5 26.499 s-27.167 29.166 -36.5 50.499s-14 48 -14 80v13c0 26.667 4.33301 49.834 13 69.501s22.834 36 42.501 49s45.334 22.833 77.001 29.5s70.5 10 116.5 10h63v25c0 23.333 -1.83301 43.166 -5.5 59.499s-9.66699 29.833 -18 40.5s-19.666 18.334 -33.999 23.001 s-32.166 7 -53.499 7c-14 0 -26.5 -0.166992 -37.5 -0.5s-21.667 -0.833008 -32 -1.5s-20.833 -1.5 -31.5 -2.5s-22.334 -2.5 -35.001 -4.5c-7.33301 -1.33301 -14.666 -0.666016 -21.999 2.00098s-11 10 -11 22v6c0 10 2.5 16.667 7.5 20s12.833 5.66602 23.5 6.99902 c20.667 2.66699 40.834 4.83398 60.501 6.50098s45.5 2.5 77.5 2.5c34.667 0 63.334 -4.66699 86.001 -14s40.5 -22.166 53.5 -38.499s22.167 -36 27.5 -59s8 -48.167 8 -75.5v-326zM369.994 272.998l-62.9961 0.000976562c-34.667 0 -63.834 -1.66699 -87.501 -5 s-42.834 -9 -57.501 -17s-25.167 -18.5 -31.5 -31.5s-9.5 -28.833 -9.5 -47.5v-13c0 -20.667 2.5 -37.834 7.5 -51.501s11.833 -24.667 20.5 -33s18.667 -14.333 30 -18s23.666 -5.5 36.999 -5.5c24.667 0 49.167 3.83301 73.5 11.5s51.166 18.5 80.499 32.5v178z M408.998 611.999c0 -10.667 -6.33301 -15.999 -19 -15.999h-21c-7.33301 0 -12 1.16699 -14 3.5s-5 5.5 -9 9.5l-89 107l-86 -105c-4 -4.66699 -7.5 -8.33398 -10.5 -11.001s-8.16699 -4 -15.5 -4h-21c-12.667 0 -19 5.33301 -19 16c0 6.66699 1.66699 12 5 16l97 123 c5.33301 6.66699 10 11.334 14 14.001s9.66699 4 17 4h38c7.33301 0 13 -1.33301 17 -4s8.66699 -7.33398 14 -14.001l97 -123c3.33301 -4 5 -9.33301 5 -16z"/>
    <glyph glyph-name="atilde" unicode="" horiz-adv-x="496" d="M426 29c0 -8 -3.00586 -14.835 -9.00586 -20.502s-13 -8.5 -21 -8.5h-5c-8 0 -15 2.83301 -21 8.5s-9 12.5 -9 20.5v7c-22 -11.333 -46 -21.166 -72 -29.499s-53 -12.5 -81 -12.5c-19.333 0 -38.333 2.66699 -57 8s-35.5 14.166 -50.5 26.499 s-27.167 29.166 -36.5 50.499s-14 48 -14 80v13c0 26.667 4.33301 49.834 13 69.501s22.834 36 42.501 49s45.334 22.833 77.001 29.5s70.5 10 116.5 10h63v25c0 23.333 -1.83301 43.166 -5.5 59.499s-9.66699 29.833 -18 40.5s-19.666 18.334 -33.999 23.001 s-32.166 7 -53.499 7c-14 0 -26.5 -0.166992 -37.5 -0.5s-21.667 -0.833008 -32 -1.5s-20.833 -1.5 -31.5 -2.5s-22.334 -2.5 -35.001 -4.5c-7.33301 -1.33301 -14.666 -0.666016 -21.999 2.00098s-11 10 -11 22v6c0 10 2.5 16.667 7.5 20s12.833 5.66602 23.5 6.99902 c20.667 2.66699 40.834 4.83398 60.501 6.50098s45.5 2.5 77.5 2.5c34.667 0 63.334 -4.66699 86.001 -14s40.5 -22.166 53.5 -38.499s22.167 -36 27.5 -59s8 -48.167 8 -75.5v-326zM361.994 272.998l-62.9961 0.000976562c-34.667 0 -63.834 -1.66699 -87.501 -5 s-42.834 -9 -57.501 -17s-25.167 -18.5 -31.5 -31.5s-9.5 -28.833 -9.5 -47.5v-13c0 -20.667 2.5 -37.834 7.5 -51.501s11.833 -24.667 20.5 -33s18.667 -14.333 30 -18s23.666 -5.5 36.999 -5.5c24.667 0 49.167 3.83301 73.5 11.5s51.166 18.5 80.499 32.5v178z M413.998 702.999c0 -33.333 -7.66699 -58 -23 -74s-36.333 -24 -63 -24c-14 0 -27.333 2.33301 -40 7s-23.667 11.667 -33 21l-46 46c-6.66699 6.66699 -12.834 12.334 -18.501 17.001s-12.167 7 -19.5 7c-9.33301 0 -16.5 -2.83301 -21.5 -8.5s-7.5 -16.834 -7.5 -33.501 v-25c0 -8.66699 -1.16699 -15 -3.5 -19s-8.16602 -6 -17.499 -6h-16c-8.66699 0 -14.334 2 -17.001 6s-4 10.333 -4 19v25c0 33.333 7.83301 58 23.5 74s36.834 24 63.501 24c14.667 0 27.667 -2.16699 39 -6.5s22 -11.5 32 -21.5l46 -46 c7.33301 -6.66699 14.333 -12.334 21 -17.001s13 -7 19 -7c8 0 14.667 2.83301 20 8.5s8 16.834 8 33.501v25c0 8.66699 1 15 3 19s7.66699 6 17 6h16c9.33301 0 15.333 -2 18 -6s4 -10.333 4 -19v-25z"/>
    <glyph glyph-name="adieresis" unicode="" horiz-adv-x="496" d="M426 29c0 -8 -3.00586 -14.835 -9.00586 -20.502s-13 -8.5 -21 -8.5h-5c-8 0 -15 2.83301 -21 8.5s-9 12.5 -9 20.5v7c-22 -11.333 -46 -21.166 -72 -29.499s-53 -12.5 -81 -12.5c-19.333 0 -38.333 2.66699 -57 8s-35.5 14.166 -50.5 26.499 s-27.167 29.166 -36.5 50.499s-14 48 -14 80v13c0 26.667 4.33301 49.834 13 69.501s22.834 36 42.501 49s45.334 22.833 77.001 29.5s70.5 10 116.5 10h63v25c0 23.333 -1.83301 43.166 -5.5 59.499s-9.66699 29.833 -18 40.5s-19.666 18.334 -33.999 23.001 s-32.166 7 -53.499 7c-14 0 -26.5 -0.166992 -37.5 -0.5s-21.667 -0.833008 -32 -1.5s-20.833 -1.5 -31.5 -2.5s-22.334 -2.5 -35.001 -4.5c-7.33301 -1.33301 -14.666 -0.666016 -21.999 2.00098s-11 10 -11 22v6c0 10 2.5 16.667 7.5 20s12.833 5.66602 23.5 6.99902 c20.667 2.66699 40.834 4.83398 60.501 6.50098s45.5 2.5 77.5 2.5c34.667 0 63.334 -4.66699 86.001 -14s40.5 -22.166 53.5 -38.499s22.167 -36 27.5 -59s8 -48.167 8 -75.5v-326zM361.994 272.998l-62.9961 0.000976562c-34.667 0 -63.834 -1.66699 -87.501 -5 s-42.834 -9 -57.501 -17s-25.167 -18.5 -31.5 -31.5s-9.5 -28.833 -9.5 -47.5v-13c0 -20.667 2.5 -37.834 7.5 -51.501s11.833 -24.667 20.5 -33s18.667 -14.333 30 -18s23.666 -5.5 36.999 -5.5c24.667 0 49.167 3.83301 73.5 11.5s51.166 18.5 80.499 32.5v178z M354.998 646.999c0 -8.66699 -2.83301 -15.5 -8.5 -20.5s-12.5 -7.5 -20.5 -7.5h-6c-7.33301 0 -13.833 2.5 -19.5 7.5s-8.5 11.833 -8.5 20.5v71c0 7.33301 2.83301 13.833 8.5 19.5s12.167 8.5 19.5 8.5h6c8 0 14.833 -2.83301 20.5 -8.5s8.5 -12.167 8.5 -19.5v-71z M210.998 646.999c0 -8.66699 -3 -15.5 -9 -20.5s-12.667 -7.5 -20 -7.5h-6c-8 0 -14.833 2.5 -20.5 7.5s-8.5 11.833 -8.5 20.5v71c0 7.33301 2.83301 13.833 8.5 19.5s12.5 8.5 20.5 8.5h6c7.33301 0 14 -2.83301 20 -8.5s9 -12.167 9 -19.5v-71z"/>
    <glyph glyph-name="aring" unicode="" horiz-adv-x="496" d="M434 29c0 -8 -3.00586 -14.835 -9.00586 -20.502s-13 -8.5 -21 -8.5h-5c-8 0 -15 2.83301 -21 8.5s-9 12.5 -9 20.5v7c-22 -11.333 -46 -21.166 -72 -29.499s-53 -12.5 -81 -12.5c-19.333 0 -38.333 2.66699 -57 8s-35.5 14.166 -50.5 26.499 s-27.167 29.166 -36.5 50.499s-14 48 -14 80v13c0 26.667 4.33301 49.834 13 69.501s22.834 36 42.501 49s45.334 22.833 77.001 29.5s70.5 10 116.5 10h63v25c0 23.333 -1.83301 43.166 -5.5 59.499s-9.66699 29.833 -18 40.5s-19.666 18.334 -33.999 23.001 s-32.166 7 -53.499 7c-14 0 -26.5 -0.166992 -37.5 -0.5s-21.667 -0.833008 -32 -1.5s-20.833 -1.5 -31.5 -2.5s-22.334 -2.5 -35.001 -4.5c-7.33301 -1.33301 -14.666 -0.666016 -21.999 2.00098s-11 10 -11 22v6c0 10 2.5 16.667 7.5 20s12.833 5.66602 23.5 6.99902 c20.667 2.66699 40.834 4.83398 60.501 6.50098s45.5 2.5 77.5 2.5c34.667 0 63.334 -4.66699 86.001 -14s40.5 -22.166 53.5 -38.499s22.167 -36 27.5 -59s8 -48.167 8 -75.5v-326zM369.994 272.998l-62.9961 0.000976562c-34.667 0 -63.834 -1.66699 -87.501 -5 s-42.834 -9 -57.501 -17s-25.167 -18.5 -31.5 -31.5s-9.5 -28.833 -9.5 -47.5v-13c0 -20.667 2.5 -37.834 7.5 -51.501s11.833 -24.667 20.5 -33s18.667 -14.333 30 -18s23.666 -5.5 36.999 -5.5c24.667 0 49.167 3.83301 73.5 11.5s51.166 18.5 80.499 32.5v178z M358.998 682.999c0 -13.333 -2.66699 -26.166 -8 -38.499s-12.5 -23 -21.5 -32s-19.5 -16.167 -31.5 -21.5s-25 -8 -39 -8s-27 2.66699 -39 8s-22.5 12.5 -31.5 21.5s-16.167 19.667 -21.5 32s-8 25.166 -8 38.499s2.66699 26 8 38s12.5 22.5 21.5 31.5 s19.5 16.167 31.5 21.5s25 8 39 8s27 -2.66699 39 -8s22.5 -12.5 31.5 -21.5s16.167 -19.5 21.5 -31.5s8 -24.667 8 -38zM303.998 682.999c0 12.667 -4.33301 23.5 -13 32.5s-19.334 13.5 -32.001 13.5s-23.167 -4.5 -31.5 -13.5s-12.5 -19.833 -12.5 -32.5 c0 -13.333 4.16699 -24.5 12.5 -33.5s18.833 -13.5 31.5 -13.5s23.334 4.5 32.001 13.5s13 20.167 13 33.5z"/>
    <glyph glyph-name="ae" unicode="" horiz-adv-x="825" d="M426 206c0 -30 2.8291 -55.0059 8.49609 -75.0059s15 -36 28 -48s30 -20.333 51 -25s46.5 -7 76.5 -7c20.667 0 43 1.5 67 4.5s48.667 6.83301 74 11.5c7.33301 1.33301 14.5 0.833008 21.5 -1.5s10.5 -9.16602 10.5 -20.499v-6c0 -8 -2 -14 -6 -18s-11 -7.33301 -21 -10 c-23.333 -5.33301 -48.166 -9.5 -74.499 -12.5s-50.166 -4.5 -71.499 -4.5c-18 0 -36.333 1.16699 -55 3.5s-36.834 6.33301 -54.501 12s-34.334 13.5 -50.001 23.5s-28.834 22.667 -39.501 38c-8 -9.33301 -17 -18.666 -27 -27.999s-22.333 -17.666 -37 -24.999 s-31.667 -13.166 -51 -17.499s-42 -6.5 -68 -6.5c-19.333 0 -38.333 2.66699 -57 8s-35.5 14.166 -50.5 26.499s-27.167 29.166 -36.5 50.499s-14 48 -14 80v13c0 26.667 4.33301 49.834 13 69.501s22.834 36 42.501 49s45.334 22.833 77.001 29.5s70.5 10 116.5 10h63v25 c0 23.333 -1.83301 43.166 -5.5 59.499s-9.66699 29.833 -18 40.5s-19.666 18.334 -33.999 23.001s-32.166 7 -53.499 7c-13.333 0 -25.5 -0.166992 -36.5 -0.5s-21.333 -0.833008 -31 -1.5s-19 -1.5 -28 -2.5s-18.5 -2.16699 -28.5 -3.5 c-12.667 -1.33301 -23.334 -1.16602 -32.001 0.500977s-13 9.16699 -13 22.5v6c0 15.333 10.667 24.333 32 27c20 2.66699 39.833 4.83398 59.5 6.50098s45.5 2.5 77.5 2.5c44.667 0 78.834 -6.66699 102.501 -20s41.167 -32.666 52.5 -57.999 c17.333 25.333 39.333 44.666 66 57.999s58.667 20 96 20c34.667 0 64.834 -5.83301 90.501 -17.5s46.667 -28 63 -49s28.5 -46.167 36.5 -75.5s12 -61.666 12 -96.999v-26c0 -8.66699 -2.83301 -15.5 -8.5 -20.5s-12.5 -7.5 -20.5 -7.5h-315v-43zM567.996 484.994 c-24.667 0 -46 -4.33301 -64 -13s-32.667 -20.667 -44 -36s-19.833 -34 -25.5 -56s-8.5 -46.333 -8.5 -73h281c-0.666992 56.667 -11.5 100.5 -32.5 131.5s-56.5 46.5 -106.5 46.5zM361.996 271.994l-62.998 0.00195312c-34.667 0 -63.834 -1.66699 -87.501 -5 s-42.667 -9 -57 -17s-24.666 -18.333 -30.999 -31s-9.5 -28.334 -9.5 -47.001v-13c0 -20.667 2.5 -37.834 7.5 -51.501s11.667 -24.667 20 -33s18.166 -14.333 29.499 -18s23.666 -5.5 36.999 -5.5c52.667 0 91.5 11.833 116.5 35.5s37.5 63.5 37.5 119.5v66z"/>
    <glyph glyph-name="ccedilla" unicode="" horiz-adv-x="446" d="M411 30c0 -8.66699 -1.66699 -14.9932 -5 -18.9932s-10.666 -6.66699 -21.999 -8c-20.667 -2.66699 -41.5 -4.83398 -62.5 -6.50098s-39.5 -2.5 -55.5 -2.5c-36.667 0 -67.834 6.5 -93.501 19.5s-46.5 30.667 -62.5 53s-27.667 48.166 -35 77.499s-11 60.333 -11 93v65 c0 33.333 3.66699 64.666 11 93.999s19 54.833 35 76.5s36.833 38.667 62.5 51s56.834 18.5 93.501 18.5c16 0 34.5 -0.833008 55.5 -2.5s41.833 -3.83398 62.5 -6.50098c11.333 -1.33301 18.666 -4 21.999 -8s5 -10.333 5 -19v-7c0 -8.66699 -3 -15 -9 -19 s-13.333 -5.33301 -22 -4c-23.333 3.33301 -44.333 5.66602 -63 6.99902s-35.667 2 -51 2c-25.333 0 -46.833 -4.33301 -64.5 -13s-32 -21 -43 -37s-18.833 -35.167 -23.5 -57.5s-7 -47.5 -7 -75.5v-65c0 -28 2.33301 -53.333 7 -76s12.5 -42.167 23.5 -58.5 s25.333 -29 43 -38s39.167 -13.5 64.5 -13.5c15.333 0 32.333 0.666992 51 2s39.667 3.66602 63 6.99902c8.66699 1.33301 16 0.166016 22 -3.50098s9 -10.167 9 -19.5v-7zM317 -49.9932c0 -3.33301 -2.33301 -7.99902 -7 -13.999l-91 -109 c-4 -4.66699 -7.5 -8.33398 -10.5 -11.001s-8.16699 -4 -15.5 -4h-21c-12.667 0 -19 5.33301 -19 16c0 5.33301 2 10.666 6 15.999l81 104c5.33301 6.66699 9.83301 11.334 13.5 14.001s9.16699 4 16.5 4h26c14 0 21 -5.33301 21 -16z"/>
    <glyph glyph-name="egrave" unicode="" horiz-adv-x="518" d="M471 277c0 -8.66699 -3.00293 -15.501 -9.00293 -20.501s-12.667 -7.5 -20 -7.5h-315v-11c0 -38.667 4.33301 -70.167 13 -94.5s20.334 -43.333 35.001 -57s32 -23 52 -28s41.333 -7.5 64 -7.5c20.667 0 43.334 1.5 68.001 4.5s48.667 6.83301 72 11.5 c8 1.33301 15.5 0.833008 22.5 -1.5s10.5 -9.16602 10.5 -20.499v-6c0 -14.667 -9 -24 -27 -28c-23.333 -5.33301 -48.166 -9.5 -74.499 -12.5s-50.166 -4.5 -71.499 -4.5c-31.333 0 -60.833 3.83301 -88.5 11.5s-51.834 20.834 -72.501 39.501s-37 43.667 -49 75 s-18 70.666 -18 117.999v64c0 34.667 4.33301 66.667 13 96s21.667 54.666 39 75.999s38.833 38 64.5 50s55.167 18 88.5 18c35.333 0 65.833 -5.83301 91.5 -17.5s46.667 -28 63 -49s28.5 -46.167 36.5 -75.5s12 -61.666 12 -96.999v-26zM267.997 484.999 c-24.667 0 -45.8311 -4.33008 -63.498 -12.9971s-32.167 -20.834 -43.5 -36.501s-19.833 -34.334 -25.5 -56.001s-8.5 -45.834 -8.5 -72.501h280c-0.666992 56.667 -11.334 100.5 -32.001 131.5s-56.334 46.5 -107.001 46.5zM325 612.002 c0 -10.667 -6.33496 -15.999 -19.002 -15.999h-13c-9.33301 0 -16.666 1.5 -21.999 4.5s-11.666 9.16699 -18.999 18.5l-99 119c-4.66699 4.66699 -7 9.66699 -7 15c0 10.667 7 16 21 16h25c7.33301 0 13 -1.33301 17 -4s8.66699 -7.33398 14 -14.001l97 -123 c3.33301 -4 5 -9.33301 5 -16z"/>
    <glyph glyph-name="eacute" unicode="" horiz-adv-x="518" d="M471 277c0 -8.66699 -3.00293 -15.501 -9.00293 -20.501s-12.667 -7.5 -20 -7.5h-315v-11c0 -38.667 4.33301 -70.167 13 -94.5s20.334 -43.333 35.001 -57s32 -23 52 -28s41.333 -7.5 64 -7.5c20.667 0 43.334 1.5 68.001 4.5s48.667 6.83301 72 11.5 c8 1.33301 15.5 0.833008 22.5 -1.5s10.5 -9.16602 10.5 -20.499v-6c0 -14.667 -9 -24 -27 -28c-23.333 -5.33301 -48.166 -9.5 -74.499 -12.5s-50.166 -4.5 -71.499 -4.5c-31.333 0 -60.833 3.83301 -88.5 11.5s-51.834 20.834 -72.501 39.501s-37 43.667 -49 75 s-18 70.666 -18 117.999v64c0 34.667 4.33301 66.667 13 96s21.667 54.666 39 75.999s38.833 38 64.5 50s55.167 18 88.5 18c35.333 0 65.833 -5.83301 91.5 -17.5s46.667 -28 63 -49s28.5 -46.167 36.5 -75.5s12 -61.666 12 -96.999v-26zM267.997 484.999 c-24.667 0 -45.8311 -4.33008 -63.498 -12.9971s-32.167 -20.834 -43.5 -36.501s-19.833 -34.334 -25.5 -56.001s-8.5 -45.834 -8.5 -72.501h280c-0.666992 56.667 -11.334 100.5 -32.001 131.5s-56.334 46.5 -107.001 46.5zM396 753.002 c0 -3.33301 -2.33301 -7.99707 -7 -13.9971l-106 -128c-4 -4.66699 -7.66699 -8.33398 -11 -11.001s-8.33301 -4 -15 -4h-21c-12.667 0 -19 5.33301 -19 16c0 5.33301 2 10.666 6 15.999l96 123c5.33301 7.33301 10 12.166 14 14.499s9.66699 3.5 17 3.5h25 c14 0 21 -5.33301 21 -16z"/>
    <glyph glyph-name="ecircumflex" unicode="" horiz-adv-x="518" d="M471 277c0 -8.66699 -3.00293 -15.501 -9.00293 -20.501s-12.667 -7.5 -20 -7.5h-315v-11c0 -38.667 4.33301 -70.167 13 -94.5s20.334 -43.333 35.001 -57s32 -23 52 -28s41.333 -7.5 64 -7.5c20.667 0 43.334 1.5 68.001 4.5s48.667 6.83301 72 11.5 c8 1.33301 15.5 0.833008 22.5 -1.5s10.5 -9.16602 10.5 -20.499v-6c0 -14.667 -9 -24 -27 -28c-23.333 -5.33301 -48.166 -9.5 -74.499 -12.5s-50.166 -4.5 -71.499 -4.5c-31.333 0 -60.833 3.83301 -88.5 11.5s-51.834 20.834 -72.501 39.501s-37 43.667 -49 75 s-18 70.666 -18 117.999v64c0 34.667 4.33301 66.667 13 96s21.667 54.666 39 75.999s38.833 38 64.5 50s55.167 18 88.5 18c35.333 0 65.833 -5.83301 91.5 -17.5s46.667 -28 63 -49s28.5 -46.167 36.5 -75.5s12 -61.666 12 -96.999v-26zM267.997 484.999 c-24.667 0 -45.8311 -4.33008 -63.498 -12.9971s-32.167 -20.834 -43.5 -36.501s-19.833 -34.334 -25.5 -56.001s-8.5 -45.834 -8.5 -72.501h280c-0.666992 56.667 -11.334 100.5 -32.001 131.5s-56.334 46.5 -107.001 46.5zM420 612.002 c0 -10.667 -6.33301 -15.999 -19 -15.999h-21c-7.33301 0 -12 1.16699 -14 3.5s-5 5.5 -9 9.5l-89 107l-86 -105c-4 -4.66699 -7.5 -8.33398 -10.5 -11.001s-8.16699 -4 -15.5 -4h-21c-12.667 0 -19 5.33301 -19 16c0 6.66699 1.66699 12 5 16l97 123 c5.33301 6.66699 10 11.334 14 14.001s9.66699 4 17 4h38c7.33301 0 13 -1.33301 17 -4s8.66699 -7.33398 14 -14.001l97 -123c3.33301 -4 5 -9.33301 5 -16z"/>
    <glyph glyph-name="edieresis" unicode="" horiz-adv-x="518" d="M471 277c0 -8.66699 -3.00293 -15.501 -9.00293 -20.501s-12.667 -7.5 -20 -7.5h-315v-11c0 -38.667 4.33301 -70.167 13 -94.5s20.334 -43.333 35.001 -57s32 -23 52 -28s41.333 -7.5 64 -7.5c20.667 0 43.334 1.5 68.001 4.5s48.667 6.83301 72 11.5 c8 1.33301 15.5 0.833008 22.5 -1.5s10.5 -9.16602 10.5 -20.499v-6c0 -14.667 -9 -24 -27 -28c-23.333 -5.33301 -48.166 -9.5 -74.499 -12.5s-50.166 -4.5 -71.499 -4.5c-31.333 0 -60.833 3.83301 -88.5 11.5s-51.834 20.834 -72.501 39.501s-37 43.667 -49 75 s-18 70.666 -18 117.999v64c0 34.667 4.33301 66.667 13 96s21.667 54.666 39 75.999s38.833 38 64.5 50s55.167 18 88.5 18c35.333 0 65.833 -5.83301 91.5 -17.5s46.667 -28 63 -49s28.5 -46.167 36.5 -75.5s12 -61.666 12 -96.999v-26zM267.997 484.999 c-24.667 0 -45.8311 -4.33008 -63.498 -12.9971s-32.167 -20.834 -43.5 -36.501s-19.833 -34.334 -25.5 -56.001s-8.5 -45.834 -8.5 -72.501h280c-0.666992 56.667 -11.334 100.5 -32.001 131.5s-56.334 46.5 -107.001 46.5zM374 647.002 c0 -8.66699 -2.83301 -15.5 -8.5 -20.5s-12.5 -7.5 -20.5 -7.5h-6c-7.33301 0 -13.833 2.5 -19.5 7.5s-8.5 11.833 -8.5 20.5v71c0 7.33301 2.83301 13.833 8.5 19.5s12.167 8.5 19.5 8.5h6c8 0 14.833 -2.83301 20.5 -8.5s8.5 -12.167 8.5 -19.5v-71zM230 647.002 c0 -8.66699 -3 -15.5 -9 -20.5s-12.667 -7.5 -20 -7.5h-6c-8 0 -14.833 2.5 -20.5 7.5s-8.5 11.833 -8.5 20.5v71c0 7.33301 2.83301 13.833 8.5 19.5s12.5 8.5 20.5 8.5h6c7.33301 0 14 -2.83301 20 -8.5s9 -12.167 9 -19.5v-71z"/>
    <glyph glyph-name="igrave" unicode="" horiz-adv-x="219" d="M144 28c0 -7.33301 -3 -13.833 -9 -19.5s-12.667 -8.5 -20 -8.5h-6c-7.33301 -0 -14 2.83301 -20 8.5s-9 12.167 -9 19.5v481c0 7.33301 3 13.833 9 19.5s12.667 8.5 20 8.5h6c7.33301 0 14 -2.83301 20 -8.5s9 -12.167 9 -19.5v-481zM177 612 c0 -10.667 -6.33496 -15.999 -19.002 -15.999h-13c-9.33301 0 -16.666 1.5 -21.999 4.5s-11.666 9.16699 -18.999 18.5l-99 119c-4.66699 4.66699 -7 9.66699 -7 15c0 10.667 7 16 21 16h25c7.33301 0 13 -1.33301 17 -4s8.66699 -7.33398 14 -14.001l97 -123 c3.33301 -4 5 -9.33301 5 -16z"/>
    <glyph glyph-name="iacute" unicode="" horiz-adv-x="219" d="M155 28c0 -7.33301 -3 -13.833 -9 -19.5s-12.667 -8.5 -20 -8.5h-6c-7.33301 -0 -14 2.83301 -20 8.5s-9 12.167 -9 19.5v481c0 7.33301 3 13.833 9 19.5s12.667 8.5 20 8.5h6c7.33301 0 14 -2.83301 20 -8.5s9 -12.167 9 -19.5v-481zM234 753 c0 -3.33301 -2.33301 -7.99707 -7 -13.9971l-106 -128c-4 -4.66699 -7.66699 -8.33398 -11 -11.001s-8.33301 -4 -15 -4h-21c-12.667 0 -19 5.33301 -19 16c0 5.33301 2 10.666 6 15.999l96 123c5.33301 7.33301 10 12.166 14 14.499s9.66699 3.5 17 3.5h25 c14 0 21 -5.33301 21 -16z"/>
    <glyph glyph-name="icircumflex" unicode="" horiz-adv-x="214" d="M144 28c0 -7.33301 -3 -13.833 -9 -19.5s-12.667 -8.5 -20 -8.5h-6c-7.33301 -0 -14 2.83301 -20 8.5s-9 12.167 -9 19.5v481c0 7.33301 3 13.833 9 19.5s12.667 8.5 20 8.5h6c7.33301 0 14 -2.83301 20 -8.5s9 -12.167 9 -19.5v-481zM260 612 c0 -10.667 -6.33301 -15.999 -19 -15.999h-21c-7.33301 0 -12 1.16699 -14 3.5s-5 5.5 -9 9.5l-89 107l-86 -105c-4 -4.66699 -7.5 -8.33398 -10.5 -11.001s-8.16699 -4 -15.5 -4h-21c-12.667 0 -19 5.33301 -19 16c0 6.66699 1.66699 12 5 16l97 123 c5.33301 6.66699 10 11.334 14 14.001s9.66699 4 17 4h38c7.33301 0 13 -1.33301 17 -4s8.66699 -7.33398 14 -14.001l97 -123c3.33301 -4 5 -9.33301 5 -16z"/>
    <glyph glyph-name="idieresis" unicode="" horiz-adv-x="218" d="M154 28c0 -7.33301 -3 -13.833 -9 -19.5s-12.667 -8.5 -20 -8.5h-6c-7.33301 -0 -14 2.83301 -20 8.5s-9 12.167 -9 19.5v481c0 7.33301 3 13.833 9 19.5s12.667 8.5 20 8.5h6c7.33301 0 14 -2.83301 20 -8.5s9 -12.167 9 -19.5v-481zM224 647 c0 -8.66699 -2.83301 -15.5 -8.5 -20.5s-12.5 -7.5 -20.5 -7.5h-6c-7.33301 0 -13.833 2.5 -19.5 7.5s-8.5 11.833 -8.5 20.5v71c0 7.33301 2.83301 13.833 8.5 19.5s12.167 8.5 19.5 8.5h6c8 0 14.833 -2.83301 20.5 -8.5s8.5 -12.167 8.5 -19.5v-71zM80 647 c0 -8.66699 -3 -15.5 -9 -20.5s-12.667 -7.5 -20 -7.5h-6c-8 0 -14.833 2.5 -20.5 7.5s-8.5 11.833 -8.5 20.5v71c0 7.33301 2.83301 13.833 8.5 19.5s12.5 8.5 20.5 8.5h6c7.33301 0 14 -2.83301 20 -8.5s9 -12.167 9 -19.5v-71z"/>
    <glyph glyph-name="eth" unicode="" horiz-adv-x="527" d="M264 -6c-70 0 -122.332 20.9951 -156.999 62.9951s-52 101 -52 177v68c0 76 17.333 135 52 177s87 63 157 63c25.333 0 47.666 -2.5 66.999 -7.5s37.333 -13.167 54 -24.5c-11.333 25.333 -27.166 48.333 -47.499 69s-49.5 39.334 -87.5 56.001l-89 -66 c-7.33301 -5.33301 -14.833 -7.16602 -22.5 -5.49902s-13.667 5.16699 -18 10.5s-6.5 11.666 -6.5 18.999s4 14 12 20l61 47c-12 4 -25.167 7.83301 -39.5 11.5s-29.5 7.16699 -45.5 10.5c-7.33301 1.33301 -13.333 4.33301 -18 9s-6 12 -4 22l2 10 c2 10.667 6.33301 16.334 13 17.001s13.667 0.333984 21 -0.999023c47.333 -10.667 89.666 -22.667 126.999 -36l94 71c6 4.66699 12.5 6.83398 19.5 6.50098s13.167 -3.16602 18.5 -8.49902l6 -6c11.333 -10.667 9 -22.334 -7 -35.001l-71 -54 c40 -22.667 71.333 -47.667 94 -75s39.667 -55.666 51 -84.999s18.333 -59.5 21 -90.5s4 -61.5 4 -91.5v-101c0 -76 -17.333 -135 -52 -177s-87 -63 -157 -63zM264.001 50.9951c52.667 0 90.167 16.333 112.5 49s33.5 77.334 33.5 134.001v68 c0 56.667 -11.167 101.334 -33.5 134.001s-59.833 49 -112.5 49s-90 -16.333 -112 -49s-33 -77.334 -33 -134.001v-68c0 -56.667 11 -101.334 33 -134.001s59.333 -49 112 -49z"/>
    <glyph glyph-name="ntilde" unicode="" d="M466 28c0 -7.33301 -2.66797 -13.8359 -8.00098 -19.5029s-12.333 -8.5 -21 -8.5h-7c-7.33301 0 -13.833 2.83301 -19.5 8.5s-8.5 12.167 -8.5 19.5v320c0 25.333 -3.16699 46.833 -9.5 64.5s-14.833 31.834 -25.5 42.501s-23.167 18.334 -37.5 23.001s-29.833 7 -46.5 7 c-23.333 0 -47 -3.16699 -71 -9.5s-47.667 -15.166 -71 -26.499v-421c0 -7.33301 -2.83301 -13.833 -8.5 -19.5s-12.5 -8.5 -20.5 -8.5h-6c-7.33301 -0 -13.833 2.83301 -19.5 8.5s-8.5 12.167 -8.5 19.5v480c0 7.33301 2.33301 14 7 20s11.667 9 21 9h7 c9.33301 0 16.333 -3 21 -9s7 -12.667 7 -20c23.333 10.667 47.5 19 72.5 25s49.167 9 72.5 9c24.667 0 47.834 -3.5 69.501 -10.5s40.667 -18.167 57 -33.5s29.333 -35.333 39 -60s14.5 -54.667 14.5 -90v-320zM437.999 688.997c0 -33.333 -7.66699 -58 -23 -74 s-36.333 -24 -63 -24c-14 0 -27.333 2.33301 -40 7s-23.667 11.667 -33 21l-46 46c-6.66699 6.66699 -12.834 12.334 -18.501 17.001s-12.167 7 -19.5 7c-9.33301 0 -16.5 -2.83301 -21.5 -8.5s-7.5 -16.834 -7.5 -33.501v-25c0 -8.66699 -1.16699 -15 -3.5 -19 s-8.16602 -6 -17.499 -6h-16c-8.66699 0 -14.334 2 -17.001 6s-4 10.333 -4 19v25c0 33.333 7.83301 58 23.5 74s36.834 24 63.501 24c14.667 0 27.667 -2.16699 39 -6.5s22 -11.5 32 -21.5l46 -46c7.33301 -6.66699 14.333 -12.334 21 -17.001s13 -7 19 -7 c8 0 14.667 2.83301 20 8.5s8 16.834 8 33.501v25c0 8.66699 1 15 3 19s7.66699 6 17 6h16c9.33301 0 15.333 -2 18 -6s4 -10.333 4 -19v-25z"/>
    <glyph glyph-name="ograve" unicode="" d="M473 234c0 -76 -17.333 -135 -52 -177s-87 -63 -157 -63s-122.333 21 -157 63s-52 101 -52 177v68c0 76 17.333 135 52 177s87 63 157 63s122.333 -21 157 -63s52 -101 52 -177v-68zM410 302c0 56.667 -11.167 101.334 -33.5 134.001s-59.833 49 -112.5 49 s-90 -16.333 -112 -49s-33 -77.334 -33 -134.001v-68c0 -56.667 11 -101.334 33 -134.001s59.333 -49 112 -49s90.167 16.333 112.5 49s33.5 77.334 33.5 134.001v68zM336 612c0 -10.667 -6.33496 -15.999 -19.002 -15.999h-13c-9.33301 0 -16.666 1.5 -21.999 4.5 s-11.666 9.16699 -18.999 18.5l-99 119c-4.66699 4.66699 -7 9.66699 -7 15c0 10.667 7 16 21 16h25c7.33301 0 13 -1.33301 17 -4s8.66699 -7.33398 14 -14.001l97 -123c3.33301 -4 5 -9.33301 5 -16z"/>
    <glyph glyph-name="oacute" unicode="" d="M473 234c0 -76 -17.333 -135 -52 -177s-87 -63 -157 -63s-122.333 21 -157 63s-52 101 -52 177v68c0 76 17.333 135 52 177s87 63 157 63s122.333 -21 157 -63s52 -101 52 -177v-68zM410 302c0 56.667 -11.167 101.334 -33.5 134.001s-59.833 49 -112.5 49 s-90 -16.333 -112 -49s-33 -77.334 -33 -134.001v-68c0 -56.667 11 -101.334 33 -134.001s59.333 -49 112 -49s90.167 16.333 112.5 49s33.5 77.334 33.5 134.001v68zM393 753c0 -3.33301 -2.33301 -7.99707 -7 -13.9971l-106 -128 c-4 -4.66699 -7.66699 -8.33398 -11 -11.001s-8.33301 -4 -15 -4h-21c-12.667 0 -19 5.33301 -19 16c0 5.33301 2 10.666 6 15.999l96 123c5.33301 7.33301 10 12.166 14 14.499s9.66699 3.5 17 3.5h25c14 0 21 -5.33301 21 -16z"/>
    <glyph glyph-name="ocircumflex" unicode="" d="M481 234c0 -76 -17.333 -135 -52 -177s-87 -63 -157 -63s-122.333 21 -157 63s-52 101 -52 177v68c0 76 17.333 135 52 177s87 63 157 63s122.333 -21 157 -63s52 -101 52 -177v-68zM418 302c0 56.667 -11.167 101.334 -33.5 134.001s-59.833 49 -112.5 49 s-90 -16.333 -112 -49s-33 -77.334 -33 -134.001v-68c0 -56.667 11 -101.334 33 -134.001s59.333 -49 112 -49s90.167 16.333 112.5 49s33.5 77.334 33.5 134.001v68zM426 612c0 -10.667 -6.33301 -15.999 -19 -15.999h-21c-7.33301 0 -12 1.16699 -14 3.5s-5 5.5 -9 9.5 l-89 107l-86 -105c-4 -4.66699 -7.5 -8.33398 -10.5 -11.001s-8.16699 -4 -15.5 -4h-21c-12.667 0 -19 5.33301 -19 16c0 6.66699 1.66699 12 5 16l97 123c5.33301 6.66699 10 11.334 14 14.001s9.66699 4 17 4h38c7.33301 0 13 -1.33301 17 -4s8.66699 -7.33398 14 -14.001 l97 -123c3.33301 -4 5 -9.33301 5 -16z"/>
    <glyph glyph-name="otilde" unicode="" d="M473 234c0 -76 -17.333 -135 -52 -177s-87 -63 -157 -63s-122.333 21 -157 63s-52 101 -52 177v68c0 76 17.333 135 52 177s87 63 157 63s122.333 -21 157 -63s52 -101 52 -177v-68zM410 302c0 56.667 -11.167 101.334 -33.5 134.001s-59.833 49 -112.5 49 s-90 -16.333 -112 -49s-33 -77.334 -33 -134.001v-68c0 -56.667 11 -101.334 33 -134.001s59.333 -49 112 -49s90.167 16.333 112.5 49s33.5 77.334 33.5 134.001v68zM431 688c0 -33.333 -7.66699 -58 -23 -74s-36.333 -24 -63 -24c-14 0 -27.333 2.33301 -40 7 s-23.667 11.667 -33 21l-46 46c-6.66699 6.66699 -12.834 12.334 -18.501 17.001s-12.167 7 -19.5 7c-9.33301 0 -16.5 -2.83301 -21.5 -8.5s-7.5 -16.834 -7.5 -33.501v-25c0 -8.66699 -1.16699 -15 -3.5 -19s-8.16602 -6 -17.499 -6h-16c-8.66699 0 -14.334 2 -17.001 6 s-4 10.333 -4 19v25c0 33.333 7.83301 58 23.5 74s36.834 24 63.501 24c14.667 0 27.667 -2.16699 39 -6.5s22 -11.5 32 -21.5l46 -46c7.33301 -6.66699 14.333 -12.334 21 -17.001s13 -7 19 -7c8 0 14.667 2.83301 20 8.5s8 16.834 8 33.501v25c0 8.66699 1 15 3 19 s7.66699 6 17 6h16c9.33301 0 15.333 -2 18 -6s4 -10.333 4 -19v-25z"/>
    <glyph glyph-name="odieresis" unicode="" d="M473 234c0 -76 -17.333 -135 -52 -177s-87 -63 -157 -63s-122.333 21 -157 63s-52 101 -52 177v68c0 76 17.333 135 52 177s87 63 157 63s122.333 -21 157 -63s52 -101 52 -177v-68zM410 302c0 56.667 -11.167 101.334 -33.5 134.001s-59.833 49 -112.5 49 s-90 -16.333 -112 -49s-33 -77.334 -33 -134.001v-68c0 -56.667 11 -101.334 33 -134.001s59.333 -49 112 -49s90.167 16.333 112.5 49s33.5 77.334 33.5 134.001v68zM372 647c0 -8.66699 -2.83301 -15.5 -8.5 -20.5s-12.5 -7.5 -20.5 -7.5h-6 c-7.33301 0 -13.833 2.5 -19.5 7.5s-8.5 11.833 -8.5 20.5v71c0 7.33301 2.83301 13.833 8.5 19.5s12.167 8.5 19.5 8.5h6c8 0 14.833 -2.83301 20.5 -8.5s8.5 -12.167 8.5 -19.5v-71zM228 647c0 -8.66699 -3 -15.5 -9 -20.5s-12.667 -7.5 -20 -7.5h-6 c-8 0 -14.833 2.5 -20.5 7.5s-8.5 11.833 -8.5 20.5v71c0 7.33301 2.83301 13.833 8.5 19.5s12.5 8.5 20.5 8.5h6c7.33301 0 14 -2.83301 20 -8.5s9 -12.167 9 -19.5v-71z"/>
    <glyph glyph-name="divide" unicode="" horiz-adv-x="587" d="M326 502c0 -8 -3 -14.667 -9 -20s-12.667 -8 -20 -8h-6c-8 0 -14.833 2.66699 -20.5 8s-8.5 12 -8.5 20v72c0 7.33301 2.83301 13.833 8.5 19.5s12.5 8.5 20.5 8.5h6c7.33301 0 14 -2.83301 20 -8.5s9 -12.167 9 -19.5v-72zM500 382 c0 -9.33301 -2.83301 -15.833 -8.5 -19.5s-12.834 -5.5 -21.501 -5.5h-352c-8 0 -15 1.83301 -21 5.5s-9 10.167 -9 19.5v9c0 9.33301 3 15.833 9 19.5s13 5.5 21 5.5h352c8.66699 0 15.834 -1.83301 21.501 -5.5s8.5 -10.167 8.5 -19.5v-9zM326 200 c0 -8.66699 -3 -15.5 -9 -20.5s-12.667 -7.5 -20 -7.5h-6c-8 0 -14.833 2.5 -20.5 7.5s-8.5 11.833 -8.5 20.5v71c0 7.33301 2.83301 13.833 8.5 19.5s12.5 8.5 20.5 8.5h6c7.33301 0 14 -2.83301 20 -8.5s9 -12.167 9 -19.5v-71z"/>
    <glyph glyph-name="oslash" unicode="" horiz-adv-x="525" d="M262 -6c-57.333 0 -102.333 14 -135 42c-6.66699 -10 -13.5 -19.5 -20.5 -28.5l-20.5 -27.5c-5.33301 -6 -9.5 -9.83301 -12.5 -11.5s-6.83301 -2.5 -11.5 -2.5h-19c-9.33301 0 -15.166 3.83301 -17.499 11.5s-0.833008 15.167 4.5 22.5l60 81 c-11.333 20 -20.333 43 -27 69s-10 54 -10 84v68c0 76 17.333 135 52 177s87 63 157 63c56 0 101.333 -14.667 136 -44l41 55c4.66699 6 8.5 9.83301 11.5 11.5s7.16699 2.5 12.5 2.5h19c11.333 0 17.166 -4.33301 17.499 -13s-1.16699 -15.667 -4.5 -21l-59 -79 c12.667 -20 21.667 -42.667 27 -68s8 -53.333 8 -84v-68c0 -76 -17.333 -135 -52 -177s-87 -63 -157 -63zM262 485c-52.667 0 -89.999 -16.332 -111.999 -48.999s-33 -77.334 -33 -134.001v-68c0 -18 1.16699 -35.333 3.5 -52s5.5 -31.667 9.5 -45l116 156l117 157 c-12.667 10.667 -27.334 19.167 -44.001 25.5s-35.667 9.5 -57 9.5zM262.001 51.001c52.667 0 90.167 16.332 112.5 48.999s33.5 77.334 33.5 134.001v68c0 35.333 -4.66699 67 -14 95l-231 -312c11.333 -11.333 24.833 -19.833 40.5 -25.5s35.167 -8.5 58.5 -8.5z"/>
    <glyph glyph-name="ugrave" unicode="" d="M466 29c0 -8 -2.50293 -14.832 -7.50293 -20.499s-11.833 -8.5 -20.5 -8.5h-8c-8.66699 0 -15.5 2.66699 -20.5 8s-7.5 12 -7.5 20c-23.333 -10 -47.333 -18 -72 -24s-48.667 -9 -72 -9c-24.667 0 -48 3.5 -70 10.5s-41.167 18.333 -57.5 34s-29.166 35.667 -38.499 60 s-14 54.166 -14 89.499v320c0 7.33301 2.66699 13.833 8 19.5s12 8.5 20 8.5h7c8 0 14.667 -2.83301 20 -8.5s8 -12.167 8 -19.5v-320c0 -26 3.16699 -47.667 9.5 -65s14.833 -31.333 25.5 -42s23.334 -18.334 38.001 -23.001s30.334 -7 47.001 -7 c22.667 0 46.167 3.33301 70.5 10s47.833 15.334 70.5 26.001v421c0 7.33301 3 13.833 9 19.5s12.667 8.5 20 8.5h6c8 0 14.833 -2.83301 20.5 -8.5s8.5 -12.167 8.5 -19.5v-480zM327.997 612.001c0 -10.667 -6.33496 -15.999 -19.002 -15.999h-13 c-9.33301 0 -16.666 1.5 -21.999 4.5s-11.666 9.16699 -18.999 18.5l-99 119c-4.66699 4.66699 -7 9.66699 -7 15c0 10.667 7 16 21 16h25c7.33301 0 13 -1.33301 17 -4s8.66699 -7.33398 14 -14.001l97 -123c3.33301 -4 5 -9.33301 5 -16z"/>
    <glyph glyph-name="uacute" unicode="" d="M466 29c0 -8 -2.50293 -14.832 -7.50293 -20.499s-11.833 -8.5 -20.5 -8.5h-8c-8.66699 0 -15.5 2.66699 -20.5 8s-7.5 12 -7.5 20c-23.333 -10 -47.333 -18 -72 -24s-48.667 -9 -72 -9c-24.667 0 -48 3.5 -70 10.5s-41.167 18.333 -57.5 34s-29.166 35.667 -38.499 60 s-14 54.166 -14 89.499v320c0 7.33301 2.66699 13.833 8 19.5s12 8.5 20 8.5h7c8 0 14.667 -2.83301 20 -8.5s8 -12.167 8 -19.5v-320c0 -26 3.16699 -47.667 9.5 -65s14.833 -31.333 25.5 -42s23.334 -18.334 38.001 -23.001s30.334 -7 47.001 -7 c22.667 0 46.167 3.33301 70.5 10s47.833 15.334 70.5 26.001v421c0 7.33301 3 13.833 9 19.5s12.667 8.5 20 8.5h6c8 0 14.833 -2.83301 20.5 -8.5s8.5 -12.167 8.5 -19.5v-480zM407.997 753.001c0 -3.33301 -2.33301 -7.99707 -7 -13.9971l-106 -128 c-4 -4.66699 -7.66699 -8.33398 -11 -11.001s-8.33301 -4 -15 -4h-21c-12.667 0 -19 5.33301 -19 16c0 5.33301 2 10.666 6 15.999l96 123c5.33301 7.33301 10 12.166 14 14.499s9.66699 3.5 17 3.5h25c14 0 21 -5.33301 21 -16z"/>
    <glyph glyph-name="ucircumflex" unicode="" d="M466 29c0 -8 -2.50293 -14.832 -7.50293 -20.499s-11.833 -8.5 -20.5 -8.5h-8c-8.66699 0 -15.5 2.66699 -20.5 8s-7.5 12 -7.5 20c-23.333 -10 -47.333 -18 -72 -24s-48.667 -9 -72 -9c-24.667 0 -48 3.5 -70 10.5s-41.167 18.333 -57.5 34s-29.166 35.667 -38.499 60 s-14 54.166 -14 89.499v320c0 7.33301 2.66699 13.833 8 19.5s12 8.5 20 8.5h7c8 0 14.667 -2.83301 20 -8.5s8 -12.167 8 -19.5v-320c0 -26 3.16699 -47.667 9.5 -65s14.833 -31.333 25.5 -42s23.334 -18.334 38.001 -23.001s30.334 -7 47.001 -7 c22.667 0 46.167 3.33301 70.5 10s47.833 15.334 70.5 26.001v421c0 7.33301 3 13.833 9 19.5s12.667 8.5 20 8.5h6c8 0 14.833 -2.83301 20.5 -8.5s8.5 -12.167 8.5 -19.5v-480zM424.997 612.001c0 -10.667 -6.33301 -15.999 -19 -15.999h-21 c-7.33301 0 -12 1.16699 -14 3.5s-5 5.5 -9 9.5l-89 107l-86 -105c-4 -4.66699 -7.5 -8.33398 -10.5 -11.001s-8.16699 -4 -15.5 -4h-21c-12.667 0 -19 5.33301 -19 16c0 6.66699 1.66699 12 5 16l97 123c5.33301 6.66699 10 11.334 14 14.001s9.66699 4 17 4h38 c7.33301 0 13 -1.33301 17 -4s8.66699 -7.33398 14 -14.001l97 -123c3.33301 -4 5 -9.33301 5 -16z"/>
    <glyph glyph-name="udieresis" unicode="" d="M466 29c0 -8 -2.50293 -14.832 -7.50293 -20.499s-11.833 -8.5 -20.5 -8.5h-8c-8.66699 0 -15.5 2.66699 -20.5 8s-7.5 12 -7.5 20c-23.333 -10 -47.333 -18 -72 -24s-48.667 -9 -72 -9c-24.667 0 -48 3.5 -70 10.5s-41.167 18.333 -57.5 34s-29.166 35.667 -38.499 60 s-14 54.166 -14 89.499v320c0 7.33301 2.66699 13.833 8 19.5s12 8.5 20 8.5h7c8 0 14.667 -2.83301 20 -8.5s8 -12.167 8 -19.5v-320c0 -26 3.16699 -47.667 9.5 -65s14.833 -31.333 25.5 -42s23.334 -18.334 38.001 -23.001s30.334 -7 47.001 -7 c22.667 0 46.167 3.33301 70.5 10s47.833 15.334 70.5 26.001v421c0 7.33301 3 13.833 9 19.5s12.667 8.5 20 8.5h6c8 0 14.833 -2.83301 20.5 -8.5s8.5 -12.167 8.5 -19.5v-480zM378.997 647.001c0 -8.66699 -2.83301 -15.5 -8.5 -20.5s-12.5 -7.5 -20.5 -7.5h-6 c-7.33301 0 -13.833 2.5 -19.5 7.5s-8.5 11.833 -8.5 20.5v71c0 7.33301 2.83301 13.833 8.5 19.5s12.167 8.5 19.5 8.5h6c8 0 14.833 -2.83301 20.5 -8.5s8.5 -12.167 8.5 -19.5v-71zM234.997 647.001c0 -8.66699 -3 -15.5 -9 -20.5s-12.667 -7.5 -20 -7.5h-6 c-8 0 -14.833 2.5 -20.5 7.5s-8.5 11.833 -8.5 20.5v71c0 7.33301 2.83301 13.833 8.5 19.5s12.5 8.5 20.5 8.5h6c7.33301 0 14 -2.83301 20 -8.5s9 -12.167 9 -19.5v-71z"/>
    <glyph glyph-name="yacute" unicode="" horiz-adv-x="494" d="M295 -47c-8 -27.333 -16.668 -50.001 -26.001 -68.001s-20.5 -32.333 -33.5 -43s-28.167 -18.334 -45.5 -23.001s-38 -7 -62 -7c-12 0 -23 0.666992 -33 2l-29 4c-8 1.33301 -14.667 3.5 -20 6.5s-8 8.5 -8 16.5v11c0 9.33301 2.33301 15.833 7 19.5 s13 4.83398 25 3.50098c7.33301 -1.33301 17.666 -2.66602 30.999 -3.99902s23.666 -2 30.999 -2c16 0 29.333 1.5 40 4.5s19.834 8.16699 27.501 15.5s14.334 17.333 20.001 30s11.167 28.667 16.5 48l9 33c-17.333 0 -31.333 4.16699 -42 12.5s-19.667 24.5 -27 48.5 l-130 440c-3.33301 10 -3 18.5 1 25.5s12.333 10.5 25 10.5h9c8.66699 0 14.834 -2.16699 18.501 -6.5s6.16699 -8.83301 7.5 -13.5l130 -444c2 -6.66699 4 -10.667 6 -12s4 -2 6 -2h13l130 459c1.33301 5.33301 3.83301 9.83301 7.5 13.5s10.5 5.5 20.5 5.5h9 c13.333 0 21.5 -3.66699 24.5 -11s2.83301 -16 -0.5 -26zM383.999 752.999c0 -3.33301 -2.33301 -7.99707 -7 -13.9971l-106 -128c-4 -4.66699 -7.66699 -8.33398 -11 -11.001s-8.33301 -4 -15 -4h-21c-12.667 0 -19 5.33301 -19 16c0 5.33301 2 10.666 6 15.999l96 123 c5.33301 7.33301 10 12.166 14 14.499s9.66699 3.5 17 3.5h25c14 0 21 -5.33301 21 -16z"/>
    <glyph glyph-name="thorn" unicode="" horiz-adv-x="511" d="M456 234c0 -160 -66.334 -240 -199.001 -240c-18.667 0 -39.167 1 -61.5 3s-43.166 5 -62.499 9v-166c0 -7.33301 -2.5 -13.833 -7.5 -19.5s-11.5 -8.5 -19.5 -8.5h-9c-8 0 -14.5 2.83301 -19.5 8.5s-7.5 12.167 -7.5 19.5v868c0 7.33301 2.5 13.833 7.5 19.5 s11.5 8.5 19.5 8.5h9c8 0 14.5 -2.83301 19.5 -8.5s7.5 -12.167 7.5 -19.5v-177c19.333 3.33301 39.5 6 60.5 8s42.167 3 63.5 3c34.667 0 64.667 -6 90 -18s46 -28.667 62 -50s27.833 -47 35.5 -77s11.5 -63 11.5 -99v-64zM391.999 298 c0 59.333 -10.002 105.332 -30.002 137.999s-55 49 -105 49c-20.667 0 -42.167 -1 -64.5 -3s-42.166 -4.66699 -59.499 -8v-412c18.667 -3.33301 39.834 -6 63.501 -8s43.834 -3 60.501 -3c49.333 0 84.166 15.333 104.499 46s30.5 76.334 30.5 137.001v64z"/>
    <glyph glyph-name="ydieresis" unicode="" horiz-adv-x="494" d="M303 -47c-8 -27.333 -16.668 -50.001 -26.001 -68.001s-20.5 -32.333 -33.5 -43s-28.167 -18.334 -45.5 -23.001s-38 -7 -62 -7c-12 0 -23 0.666992 -33 2l-29 4c-8 1.33301 -14.667 3.5 -20 6.5s-8 8.5 -8 16.5v11c0 9.33301 2.33301 15.833 7 19.5 s13 4.83398 25 3.50098c7.33301 -1.33301 17.666 -2.66602 30.999 -3.99902s23.666 -2 30.999 -2c16 0 29.333 1.5 40 4.5s19.834 8.16699 27.501 15.5s14.334 17.333 20.001 30s11.167 28.667 16.5 48l9 33c-17.333 0 -31.333 4.16699 -42 12.5s-19.667 24.5 -27 48.5 l-130 440c-3.33301 10 -3 18.5 1 25.5s12.333 10.5 25 10.5h9c8.66699 0 14.834 -2.16699 18.501 -6.5s6.16699 -8.83301 7.5 -13.5l130 -444c2 -6.66699 4 -10.667 6 -12s4 -2 6 -2h13l130 459c1.33301 5.33301 3.83301 9.83301 7.5 13.5s10.5 5.5 20.5 5.5h9 c13.333 0 21.5 -3.66699 24.5 -11s2.83301 -16 -0.5 -26zM361.999 653.999c0 -8.66699 -2.83301 -15.5 -8.5 -20.5s-12.5 -7.5 -20.5 -7.5h-6c-7.33301 0 -13.833 2.5 -19.5 7.5s-8.5 11.833 -8.5 20.5v71c0 7.33301 2.83301 13.833 8.5 19.5s12.167 8.5 19.5 8.5h6 c8 0 14.833 -2.83301 20.5 -8.5s8.5 -12.167 8.5 -19.5v-71zM217.999 653.999c0 -8.66699 -3 -15.5 -9 -20.5s-12.667 -7.5 -20 -7.5h-6c-8 0 -14.833 2.5 -20.5 7.5s-8.5 11.833 -8.5 20.5v71c0 7.33301 2.83301 13.833 8.5 19.5s12.5 8.5 20.5 8.5h6 c7.33301 0 14 -2.83301 20 -8.5s9 -12.167 9 -19.5v-71z"/>
    <glyph glyph-name="Amacron" unicode="" horiz-adv-x="627" d="M182 274l-79.001 -257c-1.33301 -4.66699 -4.66602 -9.16699 -9.99902 -13.5s-10.666 -6.5 -15.999 -6.5h-12c-11.333 0 -19.166 3.66699 -23.499 11s-4.83301 16 -1.5 26l200 659c5.33301 16 14.166 29.167 26.499 39.5s28.166 15.5 47.499 15.5c18 0 33.333 -5 46 -15 s21.667 -23 27 -39l200 -660c3.33301 -10 3 -18.667 -1 -26s-12 -11 -24 -11h-11c-6.66699 0 -12.5 2 -17.5 6s-8.16699 8.66699 -9.5 14l-80 257h-262zM325.999 677c-1.33301 2.66699 -2.83398 5.33301 -4.50098 8s-4.16699 4 -7.5 4c-4 0 -6.66699 -1 -8 -3 s-2.66602 -4.66699 -3.99902 -8l-103 -342h229zM469.998 839.999c0 -8.66699 -2.83301 -15 -8.5 -19s-12.834 -6 -21.501 -6h-256c-8.66699 0 -15.834 2 -21.501 6s-8.5 10.333 -8.5 19v11c0 8.66699 2.83301 14.834 8.5 18.501s12.834 5.5 21.501 5.5h256 c8.66699 0 15.834 -1.83301 21.501 -5.5s8.5 -9.83398 8.5 -18.501v-11z"/>
    <glyph glyph-name="amacron" unicode="" horiz-adv-x="496" d="M434 29c0 -8 -3.00586 -14.835 -9.00586 -20.502s-13 -8.5 -21 -8.5h-5c-8 0 -15 2.83301 -21 8.5s-9 12.5 -9 20.5v7c-22 -11.333 -46 -21.166 -72 -29.499s-53 -12.5 -81 -12.5c-19.333 0 -38.333 2.66699 -57 8s-35.5 14.166 -50.5 26.499 s-27.167 29.166 -36.5 50.499s-14 48 -14 80v13c0 26.667 4.33301 49.834 13 69.501s22.834 36 42.501 49s45.334 22.833 77.001 29.5s70.5 10 116.5 10h63v25c0 23.333 -1.83301 43.166 -5.5 59.499s-9.66699 29.833 -18 40.5s-19.666 18.334 -33.999 23.001 s-32.166 7 -53.499 7c-14 0 -26.5 -0.166992 -37.5 -0.5s-21.667 -0.833008 -32 -1.5s-20.833 -1.5 -31.5 -2.5s-22.334 -2.5 -35.001 -4.5c-7.33301 -1.33301 -14.666 -0.666016 -21.999 2.00098s-11 10 -11 22v6c0 10 2.5 16.667 7.5 20s12.833 5.66602 23.5 6.99902 c20.667 2.66699 40.834 4.83398 60.501 6.50098s45.5 2.5 77.5 2.5c34.667 0 63.334 -4.66699 86.001 -14s40.5 -22.166 53.5 -38.499s22.167 -36 27.5 -59s8 -48.167 8 -75.5v-326zM369.994 272.998l-62.9961 0.000976562c-34.667 0 -63.834 -1.66699 -87.501 -5 s-42.834 -9 -57.501 -17s-25.167 -18.5 -31.5 -31.5s-9.5 -28.833 -9.5 -47.5v-13c0 -20.667 2.5 -37.834 7.5 -51.501s11.833 -24.667 20.5 -33s18.667 -14.333 30 -18s23.666 -5.5 36.999 -5.5c24.667 0 49.167 3.83301 73.5 11.5s51.166 18.5 80.499 32.5v178z M414.998 686.999c0 -8.66699 -2.83301 -15 -8.5 -19s-12.834 -6 -21.501 -6h-256c-8.66699 0 -15.834 2 -21.501 6s-8.5 10.333 -8.5 19v11c0 8.66699 2.83301 14.834 8.5 18.501s12.834 5.5 21.501 5.5h256c8.66699 0 15.834 -1.83301 21.501 -5.5 s8.5 -9.83398 8.5 -18.501v-11z"/>
    <glyph glyph-name="Abreve" unicode="" horiz-adv-x="627" d="M190 274l-79.001 -257c-1.33301 -4.66699 -4.66602 -9.16699 -9.99902 -13.5s-10.666 -6.5 -15.999 -6.5h-12c-11.333 0 -19.166 3.66699 -23.499 11s-4.83301 16 -1.5 26l200 659c5.33301 16 14.166 29.167 26.499 39.5s28.166 15.5 47.499 15.5c18 0 33.333 -5 46 -15 s21.667 -23 27 -39l200 -660c3.33301 -10 3 -18.667 -1 -26s-12 -11 -24 -11h-11c-6.66699 0 -12.5 2 -17.5 6s-8.16699 8.66699 -9.5 14l-80 257h-262zM333.999 677c-1.33301 2.66699 -2.83398 5.33301 -4.50098 8s-4.16699 4 -7.5 4c-4 0 -6.66699 -1 -8 -3 s-2.66602 -4.66699 -3.99902 -8l-103 -342h229zM319.998 827.999c10.667 0 21.1699 1.33301 31.5029 4s19.666 7.66699 27.999 15s15.166 17.333 20.499 30s8 28.667 8 48c0 7.33301 1 12.333 3 15s7 4 15 4h21c8.66699 0 14.334 -1.33301 17.001 -4s4 -7.66699 4 -15 c0 -49.333 -13.667 -87.333 -41 -114s-63 -40 -107 -40s-79.5 13.333 -106.5 40s-40.5 64.667 -40.5 114c0 7.33301 1.16699 12.333 3.5 15s7.83301 4 16.5 4h21c8 0 13 -1.33301 15 -4s3 -7.66699 3 -15c0 -19.333 2.66699 -35.333 8 -48s12.166 -22.667 20.499 -30 s17.666 -12.333 27.999 -15s20.833 -4 31.5 -4z"/>
    <glyph glyph-name="abreve" unicode="" horiz-adv-x="496" d="M426 29c0 -8 -3.00586 -14.835 -9.00586 -20.502s-13 -8.5 -21 -8.5h-5c-8 0 -15 2.83301 -21 8.5s-9 12.5 -9 20.5v7c-22 -11.333 -46 -21.166 -72 -29.499s-53 -12.5 -81 -12.5c-19.333 0 -38.333 2.66699 -57 8s-35.5 14.166 -50.5 26.499 s-27.167 29.166 -36.5 50.499s-14 48 -14 80v13c0 26.667 4.33301 49.834 13 69.501s22.834 36 42.501 49s45.334 22.833 77.001 29.5s70.5 10 116.5 10h63v25c0 23.333 -1.83301 43.166 -5.5 59.499s-9.66699 29.833 -18 40.5s-19.666 18.334 -33.999 23.001 s-32.166 7 -53.499 7c-14 0 -26.5 -0.166992 -37.5 -0.5s-21.667 -0.833008 -32 -1.5s-20.833 -1.5 -31.5 -2.5s-22.334 -2.5 -35.001 -4.5c-7.33301 -1.33301 -14.666 -0.666016 -21.999 2.00098s-11 10 -11 22v6c0 10 2.5 16.667 7.5 20s12.833 5.66602 23.5 6.99902 c20.667 2.66699 40.834 4.83398 60.501 6.50098s45.5 2.5 77.5 2.5c34.667 0 63.334 -4.66699 86.001 -14s40.5 -22.166 53.5 -38.499s22.167 -36 27.5 -59s8 -48.167 8 -75.5v-326zM361.994 272.998l-62.9961 0.000976562c-34.667 0 -63.834 -1.66699 -87.501 -5 s-42.834 -9 -57.501 -17s-25.167 -18.5 -31.5 -31.5s-9.5 -28.833 -9.5 -47.5v-13c0 -20.667 2.5 -37.834 7.5 -51.501s11.833 -24.667 20.5 -33s18.667 -14.333 30 -18s23.666 -5.5 36.999 -5.5c24.667 0 49.167 3.83301 73.5 11.5s51.166 18.5 80.499 32.5v178z M248.998 652.999c10.667 0 21.1699 1.33301 31.5029 4s19.666 7.66699 27.999 15s15.166 17.333 20.499 30s8 28.667 8 48c0 7.33301 1 12.333 3 15s7 4 15 4h21c8.66699 0 14.334 -1.33301 17.001 -4s4 -7.66699 4 -15c0 -49.333 -13.667 -87.333 -41 -114 s-63 -40 -107 -40s-79.5 13.333 -106.5 40s-40.5 64.667 -40.5 114c0 7.33301 1.16699 12.333 3.5 15s7.83301 4 16.5 4h21c8 0 13 -1.33301 15 -4s3 -7.66699 3 -15c0 -19.333 2.66699 -35.333 8 -48s12.166 -22.667 20.499 -30s17.666 -12.333 27.999 -15 s20.833 -4 31.5 -4z"/>
    <glyph glyph-name="Aogonek" unicode="" horiz-adv-x="626" d="M182 277l-78.9951 -258.001c-1.33301 -5.33301 -4.66602 -9.83301 -9.99902 -13.5s-10.666 -5.5 -15.999 -5.5h-12c-8.66699 0 -15.334 2.33301 -20.001 7s-7 10.667 -7 18v4.5c0 1.66699 0.666992 4.16699 2 7.5l200 659c5.33301 16 14.166 29.167 26.499 39.5 s28.166 15.5 47.499 15.5c18 0 33.333 -5 46 -15s21.667 -23 27 -39l200 -660c2 -6.66699 2.5 -13.167 1.5 -19.5s-5.16699 -11.166 -12.5 -14.499l-51 -25c-28 -13.333 -49.167 -25.666 -63.5 -36.999s-21.5 -24 -21.5 -38c0 -12.667 4.33301 -21.5 13 -26.5 s22 -7.5 40 -7.5c11.333 0 23.166 0.833008 35.499 2.5s23.833 4.16699 34.5 7.5c7.33301 2 13.666 2.16699 18.999 0.5s8 -6.16699 8 -13.5v-19c0 -6 -1.16699 -10.333 -3.5 -13s-7.16602 -5 -14.499 -7c-6.66699 -2 -17.334 -4.83301 -32.001 -8.5s-30.667 -5.5 -48 -5.5 c-26 0 -46.5 3 -61.5 9s-26.333 13.5 -34 22.5s-12.667 18.667 -15 29s-3.5 20.166 -3.5 29.499c0 14.667 2.66699 27.667 8 39s12.666 21.333 21.999 30s20.166 16.5 32.499 23.5s25.833 13.833 40.5 20.5l39 18l-76 243h-262zM326.005 679.999c-2 8 -6 12 -12 12 c-3.33301 0 -5.83301 -1.33301 -7.5 -4s-3.16699 -5.66699 -4.5 -9l-103 -340h229z"/>
    <glyph glyph-name="aogonek" unicode="" horiz-adv-x="496" d="M221 -98c0 24 7.32617 42.6699 21.9932 56.0029s36.334 27.666 65.001 42.999l54 28v11c-30.667 -17.333 -58.667 -29.333 -84 -36s-48.666 -10 -69.999 -10c-19.333 0 -38.333 2.66699 -57 8s-35.5 14.166 -50.5 26.499s-27.167 29.166 -36.5 50.499s-14 48 -14 80v13 c0 26.667 4.33301 49.834 13 69.501s22.834 36 42.501 49s45.334 22.833 77.001 29.5s70.5 10 116.5 10h63v25c0 23.333 -1.83301 43.166 -5.5 59.499s-9.66699 29.833 -18 40.5s-19.666 18.334 -33.999 23.001s-32.166 7 -53.499 7c-28 0 -50.667 -0.666992 -68 -2 s-35.333 -3 -54 -5c-18 -1.33301 -30.333 -0.333008 -37 3s-10 9.66602 -10 18.999v6c0 15.333 10.333 24.333 31 27s40.834 4.83398 60.501 6.50098s45.5 2.5 77.5 2.5c34.667 0 63.334 -4.66699 86.001 -14s40.5 -22.166 53.5 -38.499s22.167 -36 27.5 -59 s8 -48.167 8 -75.5v-320c0 -8.66699 -1.5 -15.167 -4.5 -19.5s-8.83301 -9.16602 -17.5 -14.499l-52 -30c-14 -8 -25.5 -14.833 -34.5 -20.5s-16.167 -10.834 -21.5 -15.501s-9 -9.66699 -11 -15s-3 -11.333 -3 -18c0 -12.667 4 -21.667 12 -27s18.667 -8 32 -8 c11.333 0 23.833 1.5 37.5 4.5l33.5 7.5h5c6 2 11 2.5 15 1.5s6 -6.5 6 -16.5v-18c0 -10.667 -6 -17.334 -18 -20.001c-6.66699 -1.33301 -17.334 -4 -32.001 -8s-30.334 -6 -47.001 -6c-23.333 0 -41.833 3 -55.5 9s-24.167 13.5 -31.5 22.5s-12.166 18.667 -14.499 29 s-3.5 20.166 -3.5 29.499zM361.993 273.003l-62.9961 0.000976562c-34.667 0 -63.834 -1.66699 -87.501 -5s-42.834 -9 -57.501 -17s-25.167 -18.5 -31.5 -31.5s-9.5 -28.833 -9.5 -47.5v-13c0 -20.667 2.5 -37.834 7.5 -51.501s11.833 -24.667 20.5 -33 s18.667 -14.333 30 -18s23.666 -5.5 36.999 -5.5c24.667 0 49.167 3.83301 73.5 11.5s51.166 18.5 80.499 32.5v178z"/>
    <glyph glyph-name="Cacute" unicode="" horiz-adv-x="547" d="M516 30c0 -7.33301 -2.83301 -13.168 -8.5 -17.501s-12.167 -7.16602 -19.5 -8.49902c-15.333 -2 -36.666 -4.16699 -63.999 -6.5s-62.333 -3.5 -105 -3.5c-32 0 -63 5 -93 15s-56.667 27 -80 51s-42 56.167 -56 96.5s-21 90.5 -21 150.5v128c0 60 7 110.167 21 150.5 s32.667 72.5 56 96.5s50 41 80 51s61 15 93 15c42 0 76.5 -1.16699 103.5 -3.5s48.833 -4.5 65.5 -6.5c7.33301 -1.33301 13.833 -4.16602 19.5 -8.49902s8.5 -10.166 8.5 -17.499v-12c0 -10 -2.66699 -16.333 -8 -19s-12.666 -3.33398 -21.999 -2.00098l-33.5 2.5 c-13 1 -27 2 -42 3s-30.333 1.66699 -46 2s-30.834 0.5 -45.501 0.5c-26 0 -50.333 -4.5 -73 -13.5s-42.167 -23.5 -58.5 -43.5s-29.333 -46 -39 -78s-14.5 -71 -14.5 -117v-128c0 -46 4.83301 -85 14.5 -117s22.667 -58 39 -78s35.833 -34.5 58.5 -43.5s47 -13.5 73 -13.5 c14.667 0 30 0.166992 46 0.5s31.5 1 46.5 2s29 1.83301 42 2.5s23.833 1.66699 32.5 3c9.33301 1.33301 16.666 0.666016 21.999 -2.00098s8 -9 8 -19v-12zM444 927.998c0 -3.33301 -2.33301 -7.99707 -7 -13.9971l-106 -128c-4 -4.66699 -7.66699 -8.33398 -11 -11.001 s-8.33301 -4 -15 -4h-21c-12.667 0 -19 5.33301 -19 16c0 5.33301 2 10.666 6 15.999l96 123c5.33301 7.33301 10 12.166 14 14.499s9.66699 3.5 17 3.5h25c14 0 21 -5.33301 21 -16z"/>
    <glyph glyph-name="cacute" unicode="" horiz-adv-x="446" d="M411 30c0 -8.66699 -1.66699 -14.9932 -5 -18.9932s-10.666 -6.66699 -21.999 -8c-20.667 -2.66699 -41.5 -4.83398 -62.5 -6.50098s-39.5 -2.5 -55.5 -2.5c-36.667 0 -67.834 6.5 -93.501 19.5s-46.5 30.667 -62.5 53s-27.667 48.166 -35 77.499s-11 60.333 -11 93v65 c0 33.333 3.66699 64.666 11 93.999s19 54.833 35 76.5s36.833 38.667 62.5 51s56.834 18.5 93.501 18.5c16 0 34.5 -0.833008 55.5 -2.5s41.833 -3.83398 62.5 -6.50098c11.333 -1.33301 18.666 -4 21.999 -8s5 -10.333 5 -19v-7c0 -8.66699 -3 -15 -9 -19 s-13.333 -5.33301 -22 -4c-23.333 3.33301 -44.333 5.66602 -63 6.99902s-35.667 2 -51 2c-25.333 0 -46.833 -4.33301 -64.5 -13s-32 -21 -43 -37s-18.833 -35.167 -23.5 -57.5s-7 -47.5 -7 -75.5v-65c0 -28 2.33301 -53.333 7 -76s12.5 -42.167 23.5 -58.5 s25.333 -29 43 -38s39.167 -13.5 64.5 -13.5c15.333 0 32.333 0.666992 51 2s39.667 3.66602 63 6.99902c8.66699 1.33301 16 0.166016 22 -3.50098s9 -10.167 9 -19.5v-7zM382 753.007c0 -3.33301 -2.33301 -7.99707 -7 -13.9971l-106 -128 c-4 -4.66699 -7.66699 -8.33398 -11 -11.001s-8.33301 -4 -15 -4h-21c-12.667 0 -19 5.33301 -19 16c0 5.33301 2 10.666 6 15.999l96 123c5.33301 7.33301 10 12.166 14 14.499s9.66699 3.5 17 3.5h25c14 0 21 -5.33301 21 -16z"/>
    <glyph glyph-name="Ccircumflex" unicode="" horiz-adv-x="547" d="M507 30c0 -7.33301 -2.83301 -13.168 -8.5 -17.501s-12.167 -7.16602 -19.5 -8.49902c-15.333 -2 -36.666 -4.16699 -63.999 -6.5s-62.333 -3.5 -105 -3.5c-32 0 -63 5 -93 15s-56.667 27 -80 51s-42 56.167 -56 96.5s-21 90.5 -21 150.5v128c0 60 7 110.167 21 150.5 s32.667 72.5 56 96.5s50 41 80 51s61 15 93 15c42 0 76.5 -1.16699 103.5 -3.5s48.833 -4.5 65.5 -6.5c7.33301 -1.33301 13.833 -4.16602 19.5 -8.49902s8.5 -10.166 8.5 -17.499v-12c0 -10 -2.66699 -16.333 -8 -19s-12.666 -3.33398 -21.999 -2.00098l-33.5 2.5 c-13 1 -27 2 -42 3s-30.333 1.66699 -46 2s-30.834 0.5 -45.501 0.5c-26 0 -50.333 -4.5 -73 -13.5s-42.167 -23.5 -58.5 -43.5s-29.333 -46 -39 -78s-14.5 -71 -14.5 -117v-128c0 -46 4.83301 -85 14.5 -117s22.667 -58 39 -78s35.833 -34.5 58.5 -43.5s47 -13.5 73 -13.5 c14.667 0 30 0.166992 46 0.5s31.5 1 46.5 2s29 1.83301 42 2.5s23.833 1.66699 32.5 3c9.33301 1.33301 16.666 0.666016 21.999 -2.00098s8 -9 8 -19v-12zM446 787.998c0 -10.667 -6.33301 -15.999 -19 -15.999h-21c-7.33301 0 -12 1.16699 -14 3.5s-5 5.5 -9 9.5l-89 107 l-86 -105c-4 -4.66699 -7.5 -8.33398 -10.5 -11.001s-8.16699 -4 -15.5 -4h-21c-12.667 0 -19 5.33301 -19 16c0 6.66699 1.66699 12 5 16l97 123c5.33301 6.66699 10 11.334 14 14.001s9.66699 4 17 4h38c7.33301 0 13 -1.33301 17 -4s8.66699 -7.33398 14 -14.001l97 -123 c3.33301 -4 5 -9.33301 5 -16z"/>
    <glyph glyph-name="ccircumflex" unicode="" horiz-adv-x="447" d="M411 30c0 -8.66699 -1.66699 -14.9932 -5 -18.9932s-10.666 -6.66699 -21.999 -8c-20.667 -2.66699 -41.5 -4.83398 -62.5 -6.50098s-39.5 -2.5 -55.5 -2.5c-36.667 0 -67.834 6.5 -93.501 19.5s-46.5 30.667 -62.5 53s-27.667 48.166 -35 77.499s-11 60.333 -11 93v65 c0 33.333 3.66699 64.666 11 93.999s19 54.833 35 76.5s36.833 38.667 62.5 51s56.834 18.5 93.501 18.5c16 0 34.5 -0.833008 55.5 -2.5s41.833 -3.83398 62.5 -6.50098c11.333 -1.33301 18.666 -4 21.999 -8s5 -10.333 5 -19v-7c0 -8.66699 -3 -15 -9 -19 s-13.333 -5.33301 -22 -4c-23.333 3.33301 -44.333 5.66602 -63 6.99902s-35.667 2 -51 2c-25.333 0 -46.833 -4.33301 -64.5 -13s-32 -21 -43 -37s-18.833 -35.167 -23.5 -57.5s-7 -47.5 -7 -75.5v-65c0 -28 2.33301 -53.333 7 -76s12.5 -42.167 23.5 -58.5 s25.333 -29 43 -38s39.167 -13.5 64.5 -13.5c15.333 0 32.333 0.666992 51 2s39.667 3.66602 63 6.99902c8.66699 1.33301 16 0.166016 22 -3.50098s9 -10.167 9 -19.5v-7zM403 612.007c0 -10.667 -6.33301 -15.999 -19 -15.999h-21c-7.33301 0 -12 1.16699 -14 3.5 s-5 5.5 -9 9.5l-89 107l-86 -105c-4 -4.66699 -7.5 -8.33398 -10.5 -11.001s-8.16699 -4 -15.5 -4h-21c-12.667 0 -19 5.33301 -19 16c0 6.66699 1.66699 12 5 16l97 123c5.33301 6.66699 10 11.334 14 14.001s9.66699 4 17 4h38c7.33301 0 13 -1.33301 17 -4 s8.66699 -7.33398 14 -14.001l97 -123c3.33301 -4 5 -9.33301 5 -16z"/>
    <glyph glyph-name="Cdotaccent" unicode="" horiz-adv-x="547" d="M516 30c0 -7.33301 -2.83301 -13.168 -8.5 -17.501s-12.167 -7.16602 -19.5 -8.49902c-15.333 -2 -36.666 -4.16699 -63.999 -6.5s-62.333 -3.5 -105 -3.5c-32 0 -63 5 -93 15s-56.667 27 -80 51s-42 56.167 -56 96.5s-21 90.5 -21 150.5v128c0 60 7 110.167 21 150.5 s32.667 72.5 56 96.5s50 41 80 51s61 15 93 15c42 0 76.5 -1.16699 103.5 -3.5s48.833 -4.5 65.5 -6.5c7.33301 -1.33301 13.833 -4.16602 19.5 -8.49902s8.5 -10.166 8.5 -17.499v-12c0 -10 -2.66699 -16.333 -8 -19s-12.666 -3.33398 -21.999 -2.00098l-33.5 2.5 c-13 1 -27 2 -42 3s-30.333 1.66699 -46 2s-30.834 0.5 -45.501 0.5c-26 0 -50.333 -4.5 -73 -13.5s-42.167 -23.5 -58.5 -43.5s-29.333 -46 -39 -78s-14.5 -71 -14.5 -117v-128c0 -46 4.83301 -85 14.5 -117s22.667 -58 39 -78s35.833 -34.5 58.5 -43.5s47 -13.5 73 -13.5 c14.667 0 30 0.166992 46 0.5s31.5 1 46.5 2s29 1.83301 42 2.5s23.833 1.66699 32.5 3c9.33301 1.33301 16.666 0.666016 21.999 -2.00098s8 -9 8 -19v-12zM356 818.998c0 -8 -3 -14.667 -9 -20s-12.667 -8 -20 -8h-6c-7.33301 0 -14 2.66699 -20 8s-9 12 -9 20v71 c0 7.33301 3 13.833 9 19.5s12.667 8.5 20 8.5h6c7.33301 0 14 -2.83301 20 -8.5s9 -12.167 9 -19.5v-71z"/>
    <glyph glyph-name="cdotaccent" unicode="" horiz-adv-x="446" d="M411 30c0 -8.66699 -1.66699 -14.9932 -5 -18.9932s-10.666 -6.66699 -21.999 -8c-20.667 -2.66699 -41.5 -4.83398 -62.5 -6.50098s-39.5 -2.5 -55.5 -2.5c-36.667 0 -67.834 6.5 -93.501 19.5s-46.5 30.667 -62.5 53s-27.667 48.166 -35 77.499s-11 60.333 -11 93v65 c0 33.333 3.66699 64.666 11 93.999s19 54.833 35 76.5s36.833 38.667 62.5 51s56.834 18.5 93.501 18.5c16 0 34.5 -0.833008 55.5 -2.5s41.833 -3.83398 62.5 -6.50098c11.333 -1.33301 18.666 -4 21.999 -8s5 -10.333 5 -19v-7c0 -8.66699 -3 -15 -9 -19 s-13.333 -5.33301 -22 -4c-23.333 3.33301 -44.333 5.66602 -63 6.99902s-35.667 2 -51 2c-25.333 0 -46.833 -4.33301 -64.5 -13s-32 -21 -43 -37s-18.833 -35.167 -23.5 -57.5s-7 -47.5 -7 -75.5v-65c0 -28 2.33301 -53.333 7 -76s12.5 -42.167 23.5 -58.5 s25.333 -29 43 -38s39.167 -13.5 64.5 -13.5c15.333 0 32.333 0.666992 51 2s39.667 3.66602 63 6.99902c8.66699 1.33301 16 0.166016 22 -3.50098s9 -10.167 9 -19.5v-7zM303 646.007c0 -8 -3 -14.667 -9 -20s-12.667 -8 -20 -8h-6c-7.33301 0 -14 2.66699 -20 8 s-9 12 -9 20v71c0 7.33301 3 13.833 9 19.5s12.667 8.5 20 8.5h6c7.33301 0 14 -2.83301 20 -8.5s9 -12.167 9 -19.5v-71z"/>
    </font>
</defs>
</svg>
